Kumimoji-Bold.sfdir
StartChar: uF1D97
Encoding: 990615 990615 0
Width: 1000
Flags: MW
LayerCount: 2
Fore
SplineSet
426 0 m 5
 426 695 l 5
 574 695 l 5
 574 0 l 5
 426 0 l 5
EndSplineSet
EndChar
StartChar: uF1D98
Encoding: 990616 990616 1
Width: 1000
VWidth: 0
Flags: MW
LayerCount: 2
Fore
SplineSet
260 0 m 5
 260 695 l 5
 408 695 l 5
 408 0 l 5
 260 0 l 5
592 0 m 5
 592 695 l 5
 740 695 l 5
 740 0 l 5
 592 0 l 5
EndSplineSet
EndChar
StartChar: uF1D99
Encoding: 990617 990617 2
Width: 1000
Flags: MW
LayerCount: 2
Fore
SplineSet
95 0 m 5
 95 695 l 5
 243 695 l 5
 243 0 l 5
 95 0 l 5
426 0 m 5
 426 695 l 5
 574 695 l 5
 574 0 l 5
 426 0 l 5
757 0 m 5
 757 695 l 5
 905 695 l 5
 905 0 l 5
 757 0 l 5
EndSplineSet
EndChar
StartChar: uF1D9A
Encoding: 990618 990618 3
Width: 1000
VWidth: 0
Flags: MW
LayerCount: 2
Fore
SplineSet
46 0 m 1
 46 695 l 1
 194 695 l 1
 194 0 l 1
 46 0 l 1
252 695 m 5
 406 695 l 5
 522 380 l 6
 577 228 595 177 610 125 c 5
 629 193 654 255 676 320 c 6
 814 695 l 5
 954 695 l 5
 698 0 l 5
 508 0 l 5
 252 695 l 5
EndSplineSet
EndChar
StartChar: uF1D9B
Encoding: 990619 990619 4
Width: 1000
Flags: MW
LayerCount: 2
Fore
SplineSet
149 695 m 5
 304 695 l 5
 419 380 l 6
 474 228 493 177 508 125 c 5
 527 193 552 255 574 320 c 6
 711 695 l 5
 851 695 l 5
 595 0 l 5
 405 0 l 5
 149 695 l 5
EndSplineSet
EndChar
StartChar: uF1D9C
Encoding: 990620 990620 5
Width: 1000
VWidth: 0
Flags: MW
LayerCount: 2
Fore
SplineSet
46 695 m 1
 202 695 l 1
 316 380 l 2
 371 228 391 177 406 125 c 1
 425 193 450 255 472 320 c 2
 608 695 l 1
 748 695 l 1
 492 0 l 1
 302 0 l 1
 46 695 l 1
806 0 m 1
 806 695 l 1
 954 695 l 1
 954 0 l 1
 806 0 l 1
EndSplineSet
EndChar
StartChar: uF1D9D
Encoding: 990621 990621 6
Width: 1000
VWidth: 0
Flags: MW
LayerCount: 2
Fore
SplineSet
556 0 m 1
 556 695 l 1
 704 695 l 1
 704 0 l 1
 556 0 l 1
786 0 m 1
 786 695 l 1
 934 695 l 1
 934 0 l 1
 786 0 l 1
66 695 m 1
 204 695 l 1
 235 526 292 212 308 125 c 1
 368 695 l 1
 498 695 l 1
 396 0 l 1
 206 0 l 1
 66 695 l 1
EndSplineSet
EndChar
StartChar: uF1D9E
Encoding: 990622 990622 7
Width: 1000
Flags: MW
LayerCount: 2
Fore
SplineSet
812 0 m 1
 812 695 l 1
 960 695 l 1
 960 0 l 1
 812 0 l 1
406 0 m 1
 406 695 l 1
 554 695 l 1
 554 0 l 1
 406 0 l 1
612 0 m 1
 612 695 l 1
 760 695 l 1
 760 0 l 1
 612 0 l 1
40 695 m 1
 178 695 l 1
 209 526 222 272 234 125 c 5
 242 695 l 1
 372 695 l 1
 270 0 l 1
 180 0 l 1
 40 695 l 1
EndSplineSet
EndChar
StartChar: uF1D9F
Encoding: 990623 990623 8
Width: 1000
Flags: MW
LayerCount: 2
Fore
SplineSet
46 0 m 1
 46 695 l 1
 194 695 l 1
 194 0 l 1
 46 0 l 1
252 0 m 1
 520 369 l 1
 520 369 l 1
 268 695 l 1
 444 695 l 1
 594 487 l 1
 740 695 l 1
 908 695 l 1
 670 368 l 1
 670 368 l 1
 954 0 l 1
 776 0 l 1
 596 261 l 1
 594 261 l 1
 418 0 l 1
 252 0 l 1
EndSplineSet
EndChar
StartChar: uF1DA0
Encoding: 990624 990624 9
Width: 1000
Flags: MW
LayerCount: 2
Fore
SplineSet
149 0 m 5
 417 369 l 5
 417 369 l 5
 165 695 l 5
 341 695 l 5
 492 487 l 5
 638 695 l 5
 805 695 l 5
 568 368 l 5
 568 368 l 5
 851 0 l 5
 674 0 l 5
 493 261 l 5
 492 261 l 5
 316 0 l 5
 149 0 l 5
EndSplineSet
EndChar
StartChar: uF1DB1
Encoding: 990641 990641 30
Width: 1000
VWidth: 0
Flags: MW
LayerCount: 2
Fore
SplineSet
37 0 m 5xdc
 37 478 l 5
 128 478 l 5
 128 415 l 5
 129 373 l 5
 139 414 158 483 197 483 c 4xec
 291 483 286 410 296 379 c 5
 304 417 324 484 362 484 c 4
 399 484 410 478 431 463 c 4
 462 441 463 376 463 314 c 4
 463 300 462 286 462 273 c 6
 462 0 l 5
 366 0 l 5
 366 327 l 6
 366 375 362 411 339 411 c 4
 311 411 300 341 298 291 c 6
 298 0 l 5
 201 0 l 5
 201 327 l 6
 201 375 198 411 174 411 c 4
 147 411 136 341 134 291 c 6
 134 0 l 5
 37 0 l 5xdc
537 0 m 5xdc
 537 478 l 5
 628 478 l 5
 628 415 l 5
 629 373 l 5
 639 414 658 483 697 483 c 4xec
 791 483 786 410 796 379 c 5
 804 417 824 484 862 484 c 4
 899 484 910 478 931 463 c 4
 962 441 963 376 963 314 c 4
 963 300 962 286 962 273 c 6
 962 0 l 5
 866 0 l 5
 866 327 l 6
 866 375 862 411 839 411 c 4
 811 411 800 341 798 291 c 6
 798 0 l 5
 701 0 l 5
 701 327 l 6
 701 375 698 411 674 411 c 4
 647 411 636 341 634 291 c 6
 634 0 l 5
 537 0 l 5xdc
EndSplineSet
EndChar
StartChar: uF1DB3
Encoding: 990643 990643 32
Width: 1000
Flags: W
LayerCount: 2
Fore
SplineSet
27 0 m 1
 27 695 l 1
 144 695 l 1
 144 333 l 1
 218 472 l 1
 350 472 l 1
 236 298 l 1
 374 0 l 1
 239 0 l 1
 168 194 l 1
 142 155 l 1
 142 0 l 1
 27 0 l 1
393 0 m 1xdc
 393 478 l 1
 524 478 l 1
 524 415 l 1
 525 373 l 1
 537 414 560 483 609 483 c 0xec
 738 483 739 410 749 379 c 1
 759 417 782 484 830 484 c 0
 868 484 899 476 921 463 c 0
 970 433 973 376 973 314 c 0
 973 300 972 286 972 273 c 2
 972 0 l 1
 836 0 l 1
 836 327 l 2
 836 375 831 411 802 411 c 0
 768 411 753 341 751 291 c 2
 751 0 l 1
 614 0 l 1
 614 327 l 2
 614 375 610 411 580 411 c 0
 546 411 532 341 530 291 c 2
 530 0 l 1
 393 0 l 1xdc
EndSplineSet
EndChar
StartChar: uF1DB4
Encoding: 990644 990644 33
Width: 1000
Flags: W
LayerCount: 2
Fore
SplineSet
12 0 m 1xdc
 12 478 l 1
 143 478 l 1
 143 415 l 1
 144 373 l 1
 154 414 173 483 212 483 c 0xec
 340 483 342 410 352 379 c 1
 360 417 379 484 417 484 c 0
 454 484 484 476 506 463 c 0
 555 433 558 376 558 314 c 0
 558 300 557 286 557 273 c 2
 557 0 l 1
 421 0 l 1
 421 327 l 2
 421 375 417 411 394 411 c 0
 366 411 356 341 354 291 c 2
 354 0 l 1
 216 0 l 1
 216 327 l 2
 216 375 213 411 189 411 c 0
 162 411 151 341 149 291 c 2
 149 0 l 1
 12 0 l 1xdc
727 295 m 2xea80
 727 269 728 244 734 228 c 0
 738 217 745 211 755 211 c 0
 767 211 774 217 778 228 c 0
 784 244 785 269 785 296 c 2
 785 313 l 2
 785 338 785 362 779 378 c 0
 775 390 768 397 757 397 c 0
 743 397 736 388 732 374 c 0
 727 358 727 335 727 312 c 2
 727 295 l 2xea80
676 -63 m 0xe440
 676 -87 688 -107 707 -118 c 0
 736 -134 748 -134 779 -134 c 2
 785 -134 l 2
 831 -134 843 -129 863 -114 c 0
 880 -101 885 -80 885 -67 c 0
 885 -40 853 -17 786 -17 c 2
 755 -17 l 1
 734 -17 l 2
 704 -17 676 -21 676 -63 c 0xe440
591 -65 m 0xec40
 591 -9 607 17 629 29 c 1
 605 66 603 92 603 108 c 0xe9
 603 140 613 166 630 190 c 1
 630 192 l 1
 617 215 598 250 598 303 c 0
 598 343 607 395 653 430 c 0
 683 453 728 469 756 469 c 2
 757 469 l 2xea
 805 469 827 445 844 445 c 0
 856 445 912 468 965 468 c 1
 981 394 l 1xf2
 970 394 941 398 928 398 c 2
 889 397 l 1xea40
 908 365 913 336 913 304 c 0xe880
 913 265 907 216 881 179 c 0
 869 162 831 138 791 138 c 0
 751 138 719 142 676 159 c 1xec80
 675 153 674 147 674 141 c 0xe9
 674 122 682 92 731 92 c 2
 796 92 l 2
 854 92 870 88 913 67 c 0
 947 51 973 25 983 -18 c 1
 986 -31 988 -46 988 -63 c 0
 988 -106 969 -157 896 -185 c 0
 846 -204 834 -206 781 -206 c 0
 741 -206 710 -206 653 -180 c 0
 624 -167 602 -147 596 -117 c 0
 593 -101 591 -83 591 -65 c 0xec40
EndSplineSet
EndChar
StartChar: uF1DB5
Encoding: 990645 990645 34
Width: 1000
VWidth: 0
Flags: W
LayerCount: 2
Fore
SplineSet
44 0 m 1
 44 695 l 1
 162 695 l 1
 162 316 l 1
 281 472 l 1
 425 472 l 1
 277 295 l 1
 449 0 l 1
 314 0 l 1
 202 209 l 1
 159 155 l 1
 159 0 l 1
 44 0 l 1
589 295 m 2xea80
 589 269 590 244 606 228 c 0
 616 217 634 211 660 211 c 0
 689 211 707 217 718 228 c 0
 734 244 735 269 735 296 c 2
 735 313 l 2
 735 338 733 362 719 378 c 0
 709 390 692 397 664 397 c 0
 630 397 612 388 602 374 c 0
 590 358 589 335 589 312 c 2
 589 295 l 2xea80
546 -63 m 0xe440
 546 -87 558 -103 577 -114 c 0
 605 -130 647 -134 691 -134 c 2
 697 -134 l 2
 761 -134 797 -123 817 -108 c 0
 834 -95 839 -80 839 -67 c 0
 839 -27 791 -17 698 -17 c 2
 625 -17 l 1
 604 -17 l 2
 574 -17 546 -21 546 -63 c 0xe440
443 -65 m 0xec40
 443 -9 477 17 499 29 c 1
 475 66 473 92 473 108 c 0xe9
 473 140 483 166 500 190 c 1
 500 192 l 1
 479 215 460 250 460 303 c 0
 460 343 469 395 515 430 c 0
 545 453 592 469 662 469 c 2
 664 469 l 2xea
 755 469 777 445 794 445 c 0
 806 445 874 468 937 468 c 1
 956 394 l 1xf2
 943 394 909 398 893 398 c 2
 839 397 l 1xea40
 858 365 863 336 863 304 c 0xe880
 863 265 854 214 811 179 c 0
 781 155 734 138 661 138 c 0
 621 138 589 142 546 159 c 1xec80
 545 153 544 147 544 141 c 0xe9
 544 122 552 92 601 92 c 2
 708 92 l 2
 766 92 824 88 867 67 c 0
 901 51 927 25 937 -18 c 1
 940 -31 942 -46 942 -63 c 0
 942 -106 923 -157 850 -185 c 0
 800 -204 746 -206 693 -206 c 0
 653 -206 580 -206 523 -180 c 0
 494 -167 469 -147 455 -117 c 0
 447 -101 443 -83 443 -65 c 0xec40
EndSplineSet
EndChar
StartChar: uF1DB6
Encoding: 990646 990646 35
Width: 1000
Flags: MW
LayerCount: 2
Fore
SplineSet
45 237 m 4
 45 439 158 489 288 489 c 4
 365 489 399 478 460 446 c 5
 444 351 l 5
 402 383 377 411 289 411 c 4
 188 411 183 326 182 257 c 6
 182 228 l 6
 182 132 200 67 287 67 c 4
 379 67 432 112 458 133 c 5
 466 35 l 5
 408 4 357 -11 284 -11 c 4
 93 -11 45 107 45 237 c 4
534 237 m 4
 534 439 647 489 777 489 c 4
 854 489 888 478 949 446 c 5
 933 351 l 5
 891 383 866 411 778 411 c 4
 677 411 672 326 671 257 c 6
 671 228 l 6
 671 132 689 67 776 67 c 4
 868 67 921 112 947 133 c 5
 955 35 l 5
 897 4 846 -11 773 -11 c 4
 582 -11 534 107 534 237 c 4
EndSplineSet
EndChar
StartChar: uF1DB7
Encoding: 990647 990647 36
Width: 1000
Flags: MW
LayerCount: 2
Fore
SplineSet
126 0 m 1xdc
 126 478 l 1
 257 478 l 1
 257 415 l 1
 258 373 l 1
 276 414 323 483 421 483 c 0xec
 555 483 556 410 566 379 c 1
 584 417 630 484 726 484 c 0
 770 484 800 476 822 463 c 0
 871 433 874 376 874 314 c 0
 874 300 873 286 873 273 c 2
 873 0 l 1
 737 0 l 1
 737 327 l 2
 737 375 727 411 669 411 c 0
 600 411 572 341 568 291 c 2
 568 0 l 1
 431 0 l 1
 431 327 l 2
 431 375 422 411 363 411 c 0
 295 411 267 341 263 291 c 2
 263 0 l 1
 126 0 l 1xdc
683 761 m 1
 725 787 763 800 819 800 c 0
 910 800 974 752 974 682 c 0
 974 622 901 621 847 601 c 0
 829 594 829 593 759 561 c 1
 860 561 l 1
 876 562 l 1
 974 562 l 1
 974 481 l 1
 690 481 l 1
 690 560 l 1
 764 600 l 2
 817 623 868 636 868 680 c 0
 868 706 844 725 808 725 c 0
 764 725 741 700 733 692 c 1
 683 761 l 1
EndSplineSet
EndChar
StartChar: uF1DBA
Encoding: 990650 990650 37
Width: 1000
VWidth: 0
Flags: W
LayerCount: 2
Fore
SplineSet
47 0 m 1
 47 695 l 1
 212 695 l 1
 212 695 299 306 316 96 c 1
 316 695 l 1
 440 695 l 1
 440 0 l 1
 248 0 l 1
 248 0 189 339 170 552 c 1
 170 0 l 1
 47 0 l 1
488 239 m 0
 488 436 560 489 634 489 c 0
 708 489 781 436 781 239 c 0
 781 28 708 -11 634 -11 c 0
 560 -11 488 28 488 239 c 0
598 241 m 0
 598 164 599 67 635 67 c 0
 671 67 671 164 671 241 c 0
 671 323 670 416 634 416 c 0
 598 416 598 323 598 241 c 0
822 0 m 1
 822 131 l 1
 953 131 l 1
 953 0 l 1
 822 0 l 1
EndSplineSet
EndChar
StartChar: uF1DBB
Encoding: 990651 990651 38
Width: 1000
VWidth: 0
Flags: MW
LayerCount: 2
Fore
SplineSet
20 0 m 5
 20 695 l 5
 113 695 l 5
 113 376 l 5
 228 695 l 5
 332 695 l 5
 205 402 l 5
 343 0 l 5
 237 0 l 5
 151 296 l 5
 113 218 l 5
 113 0 l 5
 20 0 l 5
386 0 m 5
 386 131 l 5
 480 131 l 5
 480 0 l 5
 386 0 l 5
520 0 m 5
 520 695 l 5
 613 695 l 5
 613 376 l 5
 728 695 l 5
 832 695 l 5
 705 402 l 5
 843 0 l 5
 737 0 l 5
 651 296 l 5
 613 218 l 5
 613 0 l 5
 520 0 l 5
886 0 m 5
 886 131 l 5
 980 131 l 5
 980 0 l 5
 886 0 l 5
EndSplineSet
EndChar
StartChar: uF1DBC
Encoding: 990652 990652 39
Width: 1000
VWidth: 0
Flags: MW
LayerCount: 2
Fore
SplineSet
40 584 m 1
 40 689 l 1
 354 689 l 1
 354 584 l 1
 271 588 l 1
 271 0 l 1
 123 0 l 1
 123 588 l 1
 40 584 l 1
375 0 m 1
 375 692 l 1x6c
 644 692 l 1
 644 587 l 1x34
 523 590 l 1
 523 407 l 1
 613 407 l 1
 613 312 l 1
 523 312 l 1
 523 107 l 1xac
 659 111 l 1
 659 0 l 1x64
 375 0 l 1
687 0 m 1x70
 687 695 l 1
 835 695 l 1
 835 101 l 1xb0
 960 105 l 1
 960 0 l 1x70
 687 0 l 1x70
EndSplineSet
EndChar
StartChar: uF1F54
Encoding: 991060 991060 40
Width: 1000
VWidth: 0
Flags: MW
LayerCount: 2
Fore
SplineSet
21 237 m 0
 21 439 109 489 239 489 c 0
 316 489 325 478 386 446 c 1
 370 351 l 1
 328 383 305 411 240 411 c 0
 176 411 159 326 158 257 c 2
 158 228 l 2
 158 132 192 67 238 67 c 0
 316 67 358 112 384 133 c 1
 392 35 l 1
 334 4 308 -11 235 -11 c 0
 44 -11 21 107 21 237 c 0
433 0 m 1xdc
 433 478 l 1
 564 478 l 1
 564 415 l 1
 565 394 l 1
 575 435 594 483 633 483 c 0xec
 761 483 762 433 772 402 c 1
 780 440 800 484 838 484 c 0
 875 484 905 476 927 463 c 0
 976 433 979 376 979 314 c 0
 979 300 978 286 978 273 c 2
 978 0 l 1
 842 0 l 1
 842 327 l 2
 842 375 838 411 815 411 c 0
 787 411 776 341 774 291 c 2
 774 0 l 1
 637 0 l 1
 637 327 l 2
 637 375 634 411 610 411 c 0
 583 411 572 341 570 291 c 2
 570 0 l 1
 433 0 l 1xdc
683 761 m 5
 725 787 763 800 819 800 c 4
 910 800 974 752 974 682 c 4
 974 622 901 621 847 601 c 4
 829 594 829 593 759 561 c 5
 860 561 l 5
 876 562 l 5
 974 562 l 5
 974 481 l 5
 690 481 l 5
 690 560 l 5
 764 600 l 6
 817 623 868 636 868 680 c 4
 868 706 844 725 808 725 c 4
 764 725 741 700 733 692 c 5
 683 761 l 5
EndSplineSet
EndChar
StartChar: uF1F55
Encoding: 991061 991061 41
Width: 1000
Flags: MW
LayerCount: 2
Fore
SplineSet
27 0 m 1
 27 695 l 1
 144 695 l 1
 144 333 l 1
 218 472 l 1
 350 472 l 1
 236 298 l 1
 374 0 l 1
 239 0 l 1
 168 194 l 1
 142 155 l 1
 142 0 l 1
 27 0 l 1
393 0 m 1xdc
 393 478 l 1
 524 478 l 1
 524 415 l 1
 525 373 l 1
 537 414 560 483 609 483 c 0xec
 738 483 739 410 749 379 c 1
 759 417 782 484 830 484 c 0
 868 484 899 476 921 463 c 0
 970 433 973 376 973 314 c 0
 973 300 972 286 972 273 c 2
 972 0 l 1
 836 0 l 1
 836 327 l 2
 836 375 831 411 802 411 c 0
 768 411 753 341 751 291 c 2
 751 0 l 1
 614 0 l 1
 614 327 l 2
 614 375 610 411 580 411 c 0
 546 411 532 341 530 291 c 2
 530 0 l 1
 393 0 l 1xdc
683 761 m 5
 725 787 763 800 819 800 c 4
 910 800 974 752 974 682 c 4
 974 622 901 621 847 601 c 4
 829 594 829 593 759 561 c 5
 860 561 l 5
 876 562 l 5
 974 562 l 5
 974 481 l 5
 690 481 l 5
 690 560 l 5
 764 600 l 6
 817 623 868 636 868 680 c 4
 868 706 844 725 808 725 c 4
 764 725 741 700 733 692 c 5
 683 761 l 5
EndSplineSet
EndChar
StartChar: uF1F56
Encoding: 991062 991062 42
Width: 1000
VWidth: 0
Flags: MW
LayerCount: 2
Fore
SplineSet
21 237 m 0
 21 439 109 489 239 489 c 0
 316 489 325 478 386 446 c 1
 370 351 l 1
 328 383 305 411 240 411 c 0
 176 411 159 326 158 257 c 2
 158 228 l 2
 158 132 192 67 238 67 c 0
 316 67 358 112 384 133 c 1
 392 35 l 1
 334 4 308 -11 235 -11 c 0
 44 -11 21 107 21 237 c 0
433 0 m 1xdc
 433 478 l 1
 564 478 l 1
 564 415 l 1
 565 394 l 1
 575 435 594 483 633 483 c 0xec
 761 483 762 433 772 402 c 1
 780 440 800 484 838 484 c 0
 875 484 905 476 927 463 c 0
 976 433 979 376 979 314 c 0
 979 300 978 286 978 273 c 2
 978 0 l 1
 842 0 l 1
 842 327 l 2
 842 375 838 411 815 411 c 0
 787 411 776 341 774 291 c 2
 774 0 l 1
 637 0 l 1
 637 327 l 2
 637 375 634 411 610 411 c 0
 583 411 572 341 570 291 c 2
 570 0 l 1
 433 0 l 1xdc
692 498 m 5
 703 568 l 5
 703 568 748 544 786 544 c 6
 822 544 l 4
 842 544 856 545 866 551 c 4
 874 555 878 565 878 579 c 4
 878 593 874 602 866 607 c 4
 858 612 848 614 834 614 c 6
 794 614 l 5
 794 668 l 5
 821 671 838 670 852 686 c 4
 859 693 861 702 861 710 c 4
 861 730 848 734 832 734 c 4
 795 734 770 727 740 715 c 5
 703 773 l 5
 745 791 785 801 832 801 c 4
 928 801 966 765 966 709 c 4
 966 669 938 651 922 641 c 5
 950 634 989 618 989 578 c 4
 989 562 984 518 940 494 c 4
 902 473 859 473 817 473 c 6
 780 473 l 6
 742 473 692 498 692 498 c 5
EndSplineSet
EndChar
StartChar: uF1F57
Encoding: 991063 991063 43
Width: 1000
Flags: MW
LayerCount: 2
Fore
SplineSet
126 0 m 1xdc
 126 478 l 1
 257 478 l 1
 257 415 l 1
 258 373 l 1
 276 414 323 483 421 483 c 0xec
 555 483 556 410 566 379 c 1
 584 417 630 484 726 484 c 0
 770 484 800 476 822 463 c 0
 871 433 874 376 874 314 c 0
 874 300 873 286 873 273 c 2
 873 0 l 1
 737 0 l 1
 737 327 l 2
 737 375 727 411 669 411 c 0
 600 411 572 341 568 291 c 2
 568 0 l 1
 431 0 l 1
 431 327 l 2
 431 375 422 411 363 411 c 0
 295 411 267 341 263 291 c 2
 263 0 l 1
 126 0 l 1xdc
692 498 m 1
 703 568 l 1
 703 568 748 544 786 544 c 2
 822 544 l 0
 842 544 856 545 866 551 c 0
 874 555 878 565 878 579 c 0
 878 593 874 602 866 607 c 0
 858 612 848 614 834 614 c 2
 794 614 l 1
 794 668 l 1
 821 671 838 670 852 686 c 0
 859 693 861 702 861 710 c 0
 861 730 848 734 832 734 c 0
 795 734 770 727 740 715 c 1
 703 773 l 1
 745 791 785 801 832 801 c 0
 928 801 966 765 966 709 c 0
 966 669 938 651 922 641 c 1
 950 634 989 618 989 578 c 0
 989 562 984 518 940 494 c 0
 902 473 859 473 817 473 c 2
 780 473 l 2
 742 473 692 498 692 498 c 1
EndSplineSet
EndChar
StartChar: uF1F58
Encoding: 991064 991064 44
Width: 1000
Flags: MW
LayerCount: 2
Fore
SplineSet
88 238 m 0
 88 316 100 398 157 445 c 0
 188 472 230 483 272 483 c 0xbc
 335 483 382 458 417 428 c 1
 417 695 l 1
 551 695 l 1xba
 551 0 l 1
 414 0 l 1
 414 52 l 1
 377 15 334 -11 271 -11 c 0
 240 -11 163 -5 120 72 c 0
 95 118 88 172 88 238 c 0
225 250 m 0
 225 169 226 124 249 94 c 0
 267 72 297 61 325 61 c 0
 385 61 411 102 414 103 c 1
 414 382 l 1xbc
 408 387 402 390 396 394 c 0
 382 403 368 408 351 410 c 0
 347 410 342 411 337 411 c 0
 231 411 225 328 225 250 c 0
649 149 m 2
 746 695 l 1
 880 695 l 1
 786 162 l 1
 782 140 l 2
 778 119 776 100 783 87 c 0
 787 78 797 73 812 73 c 0
 869 73 894 139 896 140 c 1
 912 50 l 1
 883 23 854 0 793 0 c 0
 729 0 691 15 670 36 c 0
 634 71 644 123 649 149 c 2
EndSplineSet
EndChar
StartChar: uF1F59
Encoding: 991065 991065 45
Width: 1000
Flags: MW
LayerCount: 2
Fore
SplineSet
371 149 m 2
 467 695 l 1
 601 695 l 1
 507 162 l 1
 504 140 l 2
 500 119 498 100 505 87 c 0
 509 78 519 73 534 73 c 0
 591 73 616 139 618 140 c 1
 634 50 l 1
 605 23 576 0 515 0 c 0
 451 0 413 15 392 36 c 0
 356 71 366 123 371 149 c 2
EndSplineSet
EndChar
StartChar: uF1F5A
Encoding: 991066 991066 46
Width: 1000
Flags: MW
LayerCount: 2
Fore
SplineSet
119 0 m 1
 119 695 l 1
 237 695 l 1
 237 316 l 1
 386 472 l 1
 538 472 l 1
 366 293 l 1
 562 0 l 1
 427 0 l 1
 287 209 l 1
 234 155 l 1
 234 0 l 1
 119 0 l 1
618 149 m 2
 715 695 l 1
 849 695 l 1
 755 162 l 1
 751 140 l 2
 747 119 745 100 752 87 c 0
 756 78 766 73 781 73 c 0
 838 73 863 139 865 140 c 1
 881 50 l 1
 852 23 823 0 762 0 c 0
 698 0 660 15 639 36 c 0
 603 71 613 123 618 149 c 2
EndSplineSet
EndChar
StartChar: uF1F5B
Encoding: 991067 991067 47
Width: 1000
VWidth: 0
Flags: W
LayerCount: 2
Fore
SplineSet
17 0 m 1xdc
 17 478 l 1
 148 478 l 1
 148 415 l 1
 149 373 l 1
 161 414 184 483 233 483 c 0xec
 362 483 363 410 373 379 c 1
 383 417 406 484 454 484 c 0
 492 484 523 476 545 463 c 0
 594 433 597 376 597 314 c 0
 597 300 596 286 596 273 c 2
 596 0 l 1
 460 0 l 1
 460 327 l 2
 460 375 455 411 426 411 c 0
 392 411 377 341 375 291 c 2
 375 0 l 1
 238 0 l 1
 238 327 l 2
 238 375 234 411 204 411 c 0
 170 411 156 341 154 291 c 2
 154 0 l 1
 17 0 l 1xdc
617 36 m 1
 636 146 l 1
 649 133 703 68 804 68 c 0
 870 68 883 99 883 124 c 0
 883 152 860 170 836 178 c 0
 811 186 769 188 727 204 c 0
 698 215 668 233 646 265 c 0
 638 278 623 304 623 342 c 0
 623 408 648 445 685 466 c 0
 717 484 759 489 801 489 c 0
 865 489 904 482 967 456 c 1
 950 360 l 1
 898 399 861 417 789 417 c 0
 731 417 723 387 723 367 c 0
 723 313 784 313 845 300 c 0
 910 286 983 235 983 143 c 0
 983 87 966 50 939 26 c 0
 906 -2 858 -11 805 -11 c 0
 733 -11 676 5 617 36 c 1
EndSplineSet
EndChar
StartChar: uF1F5C
Encoding: 991068 991068 48
Width: 1000
VWidth: 0
Flags: W
LayerCount: 2
Fore
SplineSet
55 -167 m 5
 55 473 l 5
 190 473 l 5
 190 201 l 6
 191 140 215 126 231 126 c 4
 247 126 270 143 270 201 c 6
 270 473 l 5
 394 473 l 5
 394 200 l 6
 394 154 403 110 443 110 c 4
 465 110 494 133 494 167 c 6
 492 182 l 5
 577 182 l 5
 578 175 578 167 578 160 c 4
 578 72 517 -11 424 -11 c 4
 363 -11 333 24 309 52 c 5
 289 1 257 -11 231 -11 c 4
 209 -11 190 -1 190 0 c 5
 190 -167 l 5
 55 -167 l 5
604 36 m 5
 621 146 l 5
 633 133 681 68 772 68 c 4
 832 68 845 99 845 124 c 4
 845 152 823 170 801 178 c 4
 779 186 740 188 702 204 c 4
 676 215 650 233 630 265 c 4
 623 278 609 304 609 342 c 4
 609 408 632 445 665 466 c 4
 694 484 731 489 769 489 c 4
 827 489 866 482 929 456 c 5
 912 360 l 5
 860 399 823 417 758 417 c 4
 706 417 699 387 699 367 c 4
 699 313 754 313 809 300 c 4
 872 286 945 235 945 143 c 4
 945 87 928 50 901 26 c 4
 868 -2 821 -11 773 -11 c 4
 708 -11 657 5 604 36 c 5
EndSplineSet
EndChar
StartChar: uF1F5D
Encoding: 991069 991069 49
Width: 1000
VWidth: 0
Flags: MW
LayerCount: 2
Fore
SplineSet
51 0 m 5xd8
 51 478 l 5
 182 478 l 5
 182 415 l 5
 183 373 l 5
 201 415 248 483 346 483 c 4
 399 483 433 471 455 452 c 4
 490 421 493 370 493 315 c 4
 493 301 492 288 492 274 c 6
 492 0 l 5
 356 0 l 5
 356 327 l 6xe8
 356 374 347 411 288 411 c 4
 220 411 192 341 188 291 c 6
 188 0 l 5
 51 0 l 5xd8
583 36 m 5
 602 146 l 5
 615 133 669 68 770 68 c 4
 836 68 849 99 849 124 c 4
 849 152 826 170 802 178 c 4
 777 186 735 188 693 204 c 4
 664 215 634 233 612 265 c 4
 604 278 589 304 589 342 c 4
 589 408 614 445 651 466 c 4
 683 484 725 489 767 489 c 4
 831 489 870 482 933 456 c 5
 916 360 l 5
 864 399 827 417 755 417 c 4
 697 417 689 387 689 367 c 4
 689 313 750 313 811 300 c 4
 876 286 949 235 949 143 c 4
 949 87 932 50 905 26 c 4
 872 -2 824 -11 771 -11 c 4
 699 -11 642 5 583 36 c 5
EndSplineSet
EndChar
StartChar: uF1F5E
Encoding: 991070 991070 50
Width: 1000
Flags: MW
LayerCount: 2
Fore
SplineSet
52 -167 m 5
 52 472 l 5
 186 472 l 5
 186 422 l 5
 201 434 219 446 238 456 c 4
 271 472 310 483 356 483 c 4
 408 483 450 463 478 416 c 4
 501 377 514 319 514 238 c 4
 514 159 499 102 472 62 c 4
 437 11 384 -11 318 -11 c 4
 282 -11 254 -2 230 12 c 4
 215 21 200 32 188 44 c 5
 188 -167 l 5
 52 -167 l 5
188 96 m 5
 192 93 205 79 226 70 c 4
 237 65 249 62 264 62 c 4
 302 62 334 80 352 110 c 4
 380 156 377 205 378 247 c 6
 376 271 l 6
 374 295 371 334 352 364 c 4
 337 387 313 405 274 405 c 4
 255 405 239 401 226 396 c 4
 203 387 189 374 188 374 c 5
 188 96 l 5
582 36 m 5
 602 146 l 5
 615 133 669 68 770 68 c 4
 836 68 848 99 848 124 c 4
 848 152 826 170 802 178 c 4
 777 186 734 188 692 204 c 4
 663 215 634 233 612 265 c 4
 604 278 588 304 588 342 c 4
 588 408 613 445 650 466 c 4
 682 484 724 489 766 489 c 4
 830 489 869 482 932 456 c 5
 916 360 l 5
 864 399 826 417 754 417 c 4
 696 417 688 387 688 367 c 4
 688 313 749 313 810 300 c 4
 875 286 948 235 948 143 c 4
 948 87 931 50 904 26 c 4
 871 -2 823 -11 770 -11 c 4
 698 -11 641 5 582 36 c 5
EndSplineSet
EndChar
StartChar: uF1F5F
Encoding: 991071 991071 51
Width: 1000
Flags: MW
LayerCount: 2
Fore
SplineSet
534 0 m 1
 534 695 l 1
 732 695 l 2
 844 695 949 600 949 514 c 4xf8
 949 394 825 369 807 363 c 1
 853 356 965 327 965 193 c 3xf4
 965 78 869 0 745 0 c 2
 534 0 l 1
676 87 m 1
 741 87 l 2
 801 87 826 129 826 197 c 0xf4
 826 276 802 325 732 325 c 2
 677 325 l 25
 676 290 l 17
 676 87 l 1
676 398 m 1
 725 398 l 2
 782 398 812 439 812 511 c 0xf8
 812 550 799 608 737 608 c 2
 677 608 l 25
 676 576 l 17
 676 398 l 1
24 0 m 1
 24 695 l 1
 154 695 l 1
 154 376 l 1
 314 695 l 1
 460 695 l 1
 283 402 l 1
 476 0 l 1
 327 0 l 1
 207 296 l 1
 154 218 l 1
 154 0 l 1
 24 0 l 1
EndSplineSet
EndChar
StartChar: uF1F60
Encoding: 991072 991072 52
Width: 1000
Flags: MW
LayerCount: 2
Fore
SplineSet
534 0 m 1
 534 695 l 1
 732 695 l 2
 844 695 949 600 949 514 c 4xf8
 949 394 825 369 807 363 c 1
 853 356 965 327 965 193 c 3xf4
 965 78 869 0 745 0 c 2
 534 0 l 1
676 87 m 1
 741 87 l 2
 801 87 826 129 826 197 c 0xf4
 826 276 802 325 732 325 c 2
 677 325 l 25
 676 290 l 17
 676 87 l 1
676 398 m 1
 725 398 l 2
 782 398 812 439 812 511 c 0xf8
 812 550 799 608 737 608 c 2
 677 608 l 25
 676 576 l 17
 676 398 l 1
10 0 m 1
 10 695 l 1
 162 695 l 1
 186 521 226 303 249 148 c 1
 250 148 l 1
 278 357 305 497 337 695 c 1
 490 695 l 1
 490 0 l 1
 366 0 l 1
 366 531 l 1
 366 553 366 569 366 569 c 1
 364 555 362 543 360 532 c 8
 340 355 306 191 278 22 c 1
 220 22 l 1
 193 176 150 426 132 569 c 1
 132 0 l 1
 10 0 l 1
EndSplineSet
EndChar
StartChar: uF1F61
Encoding: 991073 991073 53
Width: 1000
Flags: MW
LayerCount: 2
Fore
SplineSet
534 0 m 1
 534 695 l 1
 732 695 l 2
 844 695 949 600 949 514 c 4xf8
 949 394 825 369 807 363 c 1
 853 356 965 327 965 193 c 3xf4
 965 78 869 0 745 0 c 2
 534 0 l 1
676 87 m 1
 741 87 l 2
 801 87 826 129 826 197 c 0xf4
 826 276 802 325 732 325 c 2
 677 325 l 25
 676 290 l 17
 676 87 l 1
676 398 m 1
 725 398 l 2
 782 398 812 439 812 511 c 0xf8
 812 550 799 608 737 608 c 2
 677 608 l 25
 676 576 l 17
 676 398 l 1
29 348 m 0
 29 575 132 717 286 717 c 0
 330 717 385 703 461 668 c 1
 438 537 l 1
 407 562 356 617 287 617 c 0
 197 617 177 483 177 348 c 0
 177 205 199 78 288 78 c 0
 311 78 330 87 334 88 c 1
 334 233 l 1
 286 233 l 1
 286 328 l 1
 471 328 l 1
 471 26 l 1
 406 -1 332 -22 286 -22 c 0
 102 -22 29 156 29 348 c 0
EndSplineSet
EndChar
StartChar: uF1F62
Encoding: 991074 991074 54
Width: 1000
VWidth: 0
Flags: W
LayerCount: 2
Fore
SplineSet
25 0 m 1
 25 695 l 1
 173 695 l 1
 173 409 l 1
 425 409 l 1
 425 695 l 1
 705 695 l 2
 788 695 871 685 924 626 c 0
 961 586 975 531 975 478 c 0
 975 318 858 280 775 271 c 0
 754 269 735 268 721 268 c 2
 573 268 l 1
 573 0 l 1
 425 0 l 1
 425 314 l 1
 173 314 l 1
 173 0 l 1
 25 0 l 1
573 347 m 1
 683 347 l 2
 779 347 835 365 835 477 c 0
 835 592 778 608 683 608 c 2
 573 608 l 1
 573 347 l 1
EndSplineSet
EndChar
StartChar: uF1F63
Encoding: 991075 991075 55
Width: 1000
Flags: W
LayerCount: 2
Fore
SplineSet
50 0 m 1
 50 695 l 1
 198 695 l 1
 198 409 l 1
 368 409 l 1
 368 695 l 1
 516 695 l 1
 516 0 l 1
 368 0 l 1
 368 314 l 1
 198 314 l 1
 198 0 l 1
 50 0 l 1
588 0 m 1
 588 49 l 1
 819 404 l 1
 603 402 l 1
 603 472 l 1
 947 472 l 1
 947 427 l 1
 718 74 l 1
 950 76 l 1
 950 0 l 1
 588 0 l 1
EndSplineSet
EndChar
StartChar: uF1F64
Encoding: 991076 991076 56
Width: 1000
Flags: W
LayerCount: 2
Fore
SplineSet
18 0 m 1xdc
 18 478 l 1
 136 478 l 1
 136 415 l 1
 137 373 l 1
 147 414 166 483 207 483 c 0xec
 314 483 325 410 333 379 c 1
 341 417 360 484 400 484 c 0
 432 484 467 476 485 463 c 0
 526 433 528 376 528 314 c 0
 528 300 528 286 528 273 c 2
 528 0 l 1
 405 0 l 1
 405 327 l 2
 405 375 401 411 377 411 c 0
 348 411 337 341 335 291 c 2
 335 0 l 1
 211 0 l 1
 211 327 l 2
 211 375 207 411 183 411 c 0
 155 411 143 341 141 291 c 2
 141 0 l 1
 18 0 l 1xdc
578 0 m 1
 578 695 l 1
 699 695 l 1
 699 424 l 1
 731 456 775 483 832 483 c 0x7c
 944 483 982 366 982 234 c 4
 982 58 907 -11 808 -11 c 0xbc
 760 -11 729 12 702 44 c 1
 702 0 l 1
 578 0 l 1
702 97 m 1
 705 93 711 87 718 80 c 0
 729 71 744 62 766 62 c 0
 852 62 859 138 859 232 c 0
 859 331 857 411 775 411 c 0
 744 411 724 398 702 378 c 1
 702 97 l 1
EndSplineSet
EndChar
StartChar: uF1F65
Encoding: 991077 991077 57
Width: 1000
Flags: W
LayerCount: 2
Fore
SplineSet
26 0 m 1xdc
 26 478 l 1
 157 478 l 1
 157 415 l 1
 158 373 l 1
 171 414 199 483 258 483 c 0xec
 388 483 389 410 399 379 c 1
 411 417 438 484 496 484 c 0
 536 484 566 476 588 463 c 0
 637 433 640 376 640 314 c 0
 640 300 639 286 639 273 c 2
 639 0 l 1
 503 0 l 1
 503 327 l 2
 503 375 497 411 462 411 c 0
 421 411 403 341 401 291 c 2
 401 0 l 1
 264 0 l 1
 264 327 l 2
 264 375 258 411 223 411 c 0
 182 411 165 341 163 291 c 2
 163 0 l 1
 26 0 l 1xdc
711 149 m 2
 807 695 l 1
 941 695 l 1
 847 162 l 1
 843 140 l 2
 839 119 838 100 845 87 c 0
 849 78 859 73 874 73 c 0
 931 73 955 139 957 140 c 1
 974 50 l 1
 945 23 916 0 855 0 c 0
 791 0 753 15 732 36 c 0
 696 71 706 123 711 149 c 2
EndSplineSet
EndChar
StartChar: uF1F75
Encoding: 991093 991093 58
Width: 1000
VWidth: 0
Flags: MW
LayerCount: 2
Fore
SplineSet
24 0 m 5
 24 695 l 5
 132 695 l 5
 132 376 l 5
 265 695 l 5
 387 695 l 5
 240 402 l 5
 400 0 l 5
 276 0 l 5
 176 296 l 5
 132 218 l 5
 132 0 l 5
 24 0 l 5
440 0 m 5
 440 695 l 5
 549 695 l 5
 549 376 l 5
 682 695 l 5
 804 695 l 5
 656 402 l 5
 817 0 l 5
 693 0 l 5
 593 296 l 5
 549 218 l 5
 549 0 l 5
 440 0 l 5
867 0 m 5
 867 131 l 5
 976 131 l 5
 976 0 l 5
 867 0 l 5
EndSplineSet
EndChar
StartChar: uF1F77
Encoding: 991095 991095 59
Width: 1000
VWidth: 0
Flags: MW
LayerCount: 2
Fore
SplineSet
30 584 m 1
 30 689 l 1
 384 689 l 1
 384 584 l 1
 301 588 l 1
 301 0 l 1
 133 0 l 1
 133 588 l 1
 30 584 l 1
385 0 m 1
 385 492 l 1x6c
 654 492 l 1
 654 387 l 1x34
 533 390 l 1
 533 307 l 1
 623 307 l 1
 623 212 l 1
 533 212 l 1
 533 107 l 1xac
 669 111 l 1
 669 0 l 1x64
 385 0 l 1
697 0 m 1x70
 697 495 l 1
 845 495 l 1
 845 101 l 1xb0
 970 105 l 1
 970 0 l 1x70
 697 0 l 1x70
EndSplineSet
EndChar
StartChar: uF1F7E
Encoding: 991102 991102 70
Width: 1000
Flags: MW
LayerCount: 2
Fore
SplineSet
836 0 m 5
 836 131 l 5
 967 131 l 5
 967 0 l 5
 836 0 l 5
296 575 m 1
 296 648 l 1
 412 648 495 670 551 717 c 1
 586 717 l 1
 586 73 l 1
 704 73 l 1
 704 0 l 1
 311 0 l 1
 311 73 l 1
 448 73 l 1
 448 591 l 1
 392 579 344 575 296 575 c 1
EndSplineSet
EndChar
StartChar: uF1F7F
Encoding: 991103 991103 71
Width: 1000
Flags: MW
LayerCount: 2
Fore
SplineSet
836 0 m 5
 836 131 l 5
 967 131 l 5
 967 0 l 5
 836 0 l 5
223 574 m 1
 251 643 309 717 483 717 c 0
 694 717 777 603 777 487 c 0
 777 385 702 333 526 229 c 2
 327 106 l 1
 777 108 l 1
 777 0 l 1
 232 0 l 1
 232 100 l 1
 406 254 l 2
 474 297 625 378 625 485 c 0
 625 552 569 617 459 617 c 0
 341 617 310 551 292 486 c 1
 223 574 l 1
EndSplineSet
EndChar
StartChar: uF1F81
Encoding: 991105 991105 73
Width: 1000
Flags: MW
LayerCount: 2
Fore
SplineSet
836 0 m 5
 836 131 l 5
 967 131 l 5
 967 0 l 5
 836 0 l 5
216 152 m 1
 216 247 l 1
 216 247 l 1
 521 695 l 1
 694 695 l 1
 694 247 l 1
 784 247 l 1
 784 152 l 1
 694 152 l 1
 694 0 l 1
 567 0 l 1
 567 152 l 1
 216 152 l 1
321 247 m 1
 575 247 l 1
 575 592 l 1
 548 528 492 466 321 247 c 1
EndSplineSet
EndChar
StartChar: uF1F82
Encoding: 991106 991106 74
Width: 1000
Flags: MW
LayerCount: 2
Fore
SplineSet
836 0 m 5
 836 131 l 5
 967 131 l 5
 967 0 l 5
 836 0 l 5
224 82 m 1
 276 169 l 1
 282 159 287 150 294 140 c 0
 310 118 331 102 356 91 c 0
 394 78 434 72 472 72 c 0
 538 72 576 85 598 108 c 0
 625 135 640 175 640 220 c 2
 640 248 l 2
 640 288 625 329 603 354 c 0
 589 369 566 379 532 379 c 0
 424 379 388 296 386 296 c 2
 270 296 l 1
 270 695 l 1
 740 695 l 1
 740 594 l 1
 406 594 l 1
 406 435 l 1
 436 444 488 452 540 452 c 0
 627 452 676 438 712 406 c 0
 753 369 776 309 776 219 c 0
 776 134 752 78 714 41 c 0
 666 -6 580 -22 478 -22 c 0
 416 -22 365 -14 330 -2 c 0
 271 22 238 62 224 82 c 1
EndSplineSet
EndChar
StartChar: uF1F84
Encoding: 991108 991108 76
Width: 1000
Flags: MW
LayerCount: 2
Fore
SplineSet
836 0 m 5
 836 131 l 5
 967 131 l 5
 967 0 l 5
 836 0 l 5
216 587 m 1
 216 695 l 1
 784 695 l 1
 784 594 l 1
 626 422 456 200 456 -11 c 1
 314 -11 l 1
 314 214 476 428 680 588 c 1
 216 587 l 1
EndSplineSet
EndChar
StartChar: uF1F9C
Encoding: 991132 991132 15
Width: 1000
Flags: MW
LayerCount: 2
Fore
SplineSet
433 573 m 1
 433 695 l 1
 567 695 l 1
 567 573 l 1
 433 573 l 1
433 0 m 1
 433 472 l 1
 567 472 l 1
 567 0 l 1
 433 0 l 1
EndSplineSet
EndChar
StartChar: uF1F9D
Encoding: 991133 991133 16
Width: 1000
VWidth: 0
Flags: MW
LayerCount: 2
Fore
SplineSet
305 573 m 1
 305 695 l 1
 439 695 l 1
 439 573 l 1
 305 573 l 1
305 0 m 1
 305 472 l 1
 439 472 l 1
 439 0 l 1
 305 0 l 1
561 573 m 1
 561 695 l 1
 695 695 l 1
 695 573 l 1
 561 573 l 1
561 0 m 1
 561 472 l 1
 695 472 l 1
 695 0 l 1
 561 0 l 1
EndSplineSet
EndChar
StartChar: uF1F9E
Encoding: 991134 991134 17
Width: 1000
Flags: MW
LayerCount: 2
Fore
SplineSet
177 573 m 1
 177 695 l 1
 311 695 l 1
 311 573 l 1
 177 573 l 1
177 0 m 1
 177 472 l 1
 311 472 l 1
 311 0 l 1
 177 0 l 1
433 573 m 1
 433 695 l 1
 567 695 l 1
 567 573 l 1
 433 573 l 1
433 0 m 1
 433 472 l 1
 567 472 l 1
 567 0 l 1
 433 0 l 1
689 573 m 1
 689 695 l 1
 823 695 l 1
 823 573 l 1
 689 573 l 1
689 0 m 1
 689 472 l 1
 823 472 l 1
 823 0 l 1
 689 0 l 1
EndSplineSet
EndChar
StartChar: uF1F9F
Encoding: 991135 991135 18
Width: 1000
VWidth: 0
Flags: MW
LayerCount: 2
Fore
SplineSet
160 573 m 1
 160 695 l 1
 294 695 l 1
 294 573 l 1
 160 573 l 1
160 0 m 1
 160 472 l 1
 294 472 l 1
 294 0 l 1
 160 0 l 1
371 472 m 1
 495 472 l 1
 566 248 l 2
 595 156 603 142 607 117 c 1
 625 165 706 436 719 472 c 1
 840 472 l 1
 691 0 l 1
 520 0 l 1
 371 472 l 1
EndSplineSet
EndChar
StartChar: uF1FA0
Encoding: 991136 991136 19
Width: 1000
Flags: MW
LayerCount: 2
Fore
SplineSet
266 472 m 1
 390 472 l 1
 460 248 l 2
 489 156 498 142 502 117 c 1
 520 165 601 436 614 472 c 1
 734 472 l 1
 586 0 l 1
 414 0 l 1
 266 472 l 1
EndSplineSet
EndChar
StartChar: uF1FA1
Encoding: 991137 991137 20
Width: 1000
Flags: MW
LayerCount: 2
Fore
SplineSet
160 472 m 1
 284 472 l 1
 356 248 l 2
 385 156 392 142 396 117 c 1
 414 165 495 436 508 472 c 1
 630 472 l 1
 480 0 l 1
 310 0 l 1
 160 472 l 1
706 573 m 1
 706 695 l 1
 840 695 l 1
 840 573 l 1
 706 573 l 1
706 0 m 1
 706 472 l 1
 840 472 l 1
 840 0 l 1
 706 0 l 1
EndSplineSet
EndChar
StartChar: uF1FA2
Encoding: 991138 991138 21
Width: 1000
VWidth: 0
Flags: W
LayerCount: 2
Fore
SplineSet
50 472 m 1
 174 472 l 1
 245 248 l 2
 274 157 282 142 286 117 c 1
 304 165 374 436 386 472 c 1
 504 472 l 1
 370 0 l 1
 199 0 l 1
 50 472 l 1
572 573 m 1
 572 695 l 1
 706 695 l 1
 706 573 l 1
 572 573 l 1
572 0 m 1
 572 472 l 1
 706 472 l 1
 706 0 l 1
 572 0 l 1
816 573 m 1
 816 695 l 1
 950 695 l 1
 950 573 l 1
 816 573 l 1
816 0 m 1
 816 472 l 1
 950 472 l 1
 950 0 l 1
 816 0 l 1
EndSplineSet
EndChar
StartChar: uF1FA3
Encoding: 991139 991139 22
Width: 1000
VWidth: 0
Flags: W
LayerCount: 2
Fore
SplineSet
22 472 m 1
 146 472 l 1
 201 248 l 2
 223 160 225 142 229 117 c 1
 247 165 292 436 298 472 c 1
 416 472 l 1
 313 0 l 1
 142 0 l 1
 22 472 l 1
454 573 m 1
 454 695 l 1
 588 695 l 1
 588 573 l 1
 454 573 l 1
454 0 m 1
 454 472 l 1
 588 472 l 1
 588 0 l 1
 454 0 l 1
649 573 m 1
 649 695 l 1
 783 695 l 1
 783 573 l 1
 649 573 l 1
649 0 m 1
 649 472 l 1
 783 472 l 1
 783 0 l 1
 649 0 l 1
844 573 m 1
 844 695 l 1
 978 695 l 1
 978 573 l 1
 844 573 l 1
844 0 m 1
 844 472 l 1
 978 472 l 1
 978 0 l 1
 844 0 l 1
EndSplineSet
EndChar
StartChar: uF1FA4
Encoding: 991140 991140 23
Width: 1000
VWidth: 0
Flags: MW
LayerCount: 2
Fore
SplineSet
152 573 m 1
 152 695 l 1
 286 695 l 1
 286 573 l 1
 152 573 l 1
152 0 m 1
 152 472 l 1
 286 472 l 1
 286 0 l 1
 152 0 l 1
348 0 m 1
 540 243 l 1
 540 247 l 1
 354 472 l 1
 491 472 l 1
 594 337 l 1
 596 337 l 1
 693 472 l 1
 829 472 l 1
 649 245 l 1
 649 244 l 1
 848 0 l 1
 710 0 l 1
 595 170 l 1
 484 0 l 1
 348 0 l 1
EndSplineSet
EndChar
StartChar: uF1FA5
Encoding: 991141 991141 24
Width: 1000
VWidth: 0
Flags: MW
LayerCount: 2
Fore
SplineSet
250 0 m 1
 442 243 l 1
 442 247 l 1
 256 472 l 1
 393 472 l 1
 496 337 l 1
 498 337 l 1
 595 472 l 1
 731 472 l 1
 551 245 l 1
 551 244 l 1
 750 0 l 1
 612 0 l 1
 497 170 l 1
 386 0 l 1
 250 0 l 1
EndSplineSet
EndChar
StartChar: uF1FF6
Encoding: 991222 991222 60
Width: 1000
VWidth: 0
Flags: MW
LayerCount: 2
Fore
SplineSet
152 573 m 1
 152 695 l 1
 286 695 l 1
 286 573 l 1
 152 573 l 1
152 0 m 1
 152 472 l 1
 286 472 l 1
 286 0 l 1
 152 0 l 1
406 0 m 1xd8
 406 478 l 1
 538 478 l 1
 538 415 l 1
 538 373 l 1
 556 415 604 483 702 483 c 0
 755 483 788 471 810 452 c 4
 845 421 848 370 848 315 c 0
 848 301 848 288 848 274 c 2
 848 0 l 1
 712 0 l 1
 712 327 l 2xe8
 712 374 703 411 644 411 c 0
 576 411 548 341 544 291 c 2
 544 0 l 1
 406 0 l 1xd8
EndSplineSet
EndChar
StartChar: uF1FFA
Encoding: 991226 991226 61
Width: 1000
VWidth: 0
Flags: MW
LayerCount: 2
Fore
SplineSet
37 0 m 5xdc
 37 478 l 5
 128 478 l 5
 128 415 l 5
 129 373 l 5
 139 414 158 483 197 483 c 4xec
 291 483 286 410 296 379 c 5
 304 417 324 484 362 484 c 4
 399 484 410 478 431 463 c 4
 462 441 463 376 463 314 c 4
 463 300 462 286 462 273 c 6
 462 0 l 5
 366 0 l 5
 366 327 l 6
 366 375 362 411 339 411 c 4
 311 411 300 341 298 291 c 6
 298 0 l 5
 201 0 l 5
 201 327 l 6
 201 375 198 411 174 411 c 4
 147 411 136 341 134 291 c 6
 134 0 l 5
 37 0 l 5xdc
537 0 m 5xdc
 537 478 l 5
 628 478 l 5
 628 415 l 5
 629 373 l 5
 639 414 658 483 697 483 c 4xec
 791 483 786 410 796 379 c 5
 804 417 824 484 862 484 c 4
 899 484 910 478 931 463 c 4
 962 441 963 376 963 314 c 4
 963 300 962 286 962 273 c 6
 962 0 l 5
 866 0 l 5
 866 327 l 6
 866 375 862 411 839 411 c 4
 811 411 800 341 798 291 c 6
 798 0 l 5
 701 0 l 5
 701 327 l 6
 701 375 698 411 674 411 c 4
 647 411 636 341 634 291 c 6
 634 0 l 5
 537 0 l 5xdc
683 761 m 5
 725 787 763 800 819 800 c 4
 910 800 974 752 974 682 c 4
 974 622 901 621 847 601 c 4
 829 594 829 593 759 561 c 5
 860 561 l 5
 876 562 l 5
 974 562 l 5
 974 481 l 5
 690 481 l 5
 690 560 l 5
 764 600 l 6
 817 623 868 636 868 680 c 4
 868 706 844 725 808 725 c 4
 764 725 741 700 733 692 c 5
 683 761 l 5
EndSplineSet
EndChar
StartChar: uF1FFB
Encoding: 991227 991227 62
Width: 1000
VWidth: 0
Flags: MW
LayerCount: 2
Fore
SplineSet
37 0 m 5xdc
 37 478 l 5
 128 478 l 5
 128 415 l 5
 129 373 l 5
 139 414 158 483 197 483 c 4xec
 291 483 286 410 296 379 c 5
 304 417 324 484 362 484 c 4
 399 484 410 478 431 463 c 4
 462 441 463 376 463 314 c 4
 463 300 462 286 462 273 c 6
 462 0 l 5
 366 0 l 5
 366 327 l 6
 366 375 362 411 339 411 c 4
 311 411 300 341 298 291 c 6
 298 0 l 5
 201 0 l 5
 201 327 l 6
 201 375 198 411 174 411 c 4
 147 411 136 341 134 291 c 6
 134 0 l 5
 37 0 l 5xdc
537 0 m 5xdc
 537 478 l 5
 628 478 l 5
 628 415 l 5
 629 373 l 5
 639 414 658 483 697 483 c 4xec
 791 483 786 410 796 379 c 5
 804 417 824 484 862 484 c 4
 899 484 910 478 931 463 c 4
 962 441 963 376 963 314 c 4
 963 300 962 286 962 273 c 6
 962 0 l 5
 866 0 l 5
 866 327 l 6
 866 375 862 411 839 411 c 4
 811 411 800 341 798 291 c 6
 798 0 l 5
 701 0 l 5
 701 327 l 6
 701 375 698 411 674 411 c 4
 647 411 636 341 634 291 c 6
 634 0 l 5
 537 0 l 5xdc
692 498 m 5
 703 568 l 5
 703 568 748 544 786 544 c 6
 822 544 l 4
 842 544 856 545 866 551 c 4
 874 555 878 565 878 579 c 4
 878 593 874 602 866 607 c 4
 858 612 848 614 834 614 c 6
 794 614 l 5
 794 668 l 5
 821 671 838 670 852 686 c 4
 859 693 861 702 861 710 c 4
 861 730 848 734 832 734 c 4
 795 734 770 727 740 715 c 5
 703 773 l 5
 745 791 785 801 832 801 c 4
 928 801 966 765 966 709 c 4
 966 669 938 651 922 641 c 5
 950 634 989 618 989 578 c 4
 989 562 984 518 940 494 c 4
 902 473 859 473 817 473 c 6
 780 473 l 6
 742 473 692 498 692 498 c 5
EndSplineSet
EndChar
StartChar: uF1FFC
Encoding: 991228 991228 63
Width: 1000
Flags: MW
LayerCount: 2
Fore
SplineSet
27 0 m 1
 27 695 l 1
 144 695 l 1
 144 333 l 1
 218 472 l 1
 350 472 l 1
 236 298 l 1
 374 0 l 1
 239 0 l 1
 168 194 l 1
 142 155 l 1
 142 0 l 1
 27 0 l 1
393 0 m 1xdc
 393 478 l 1
 524 478 l 1
 524 415 l 1
 525 373 l 1
 537 414 560 483 609 483 c 0xec
 738 483 739 410 749 379 c 1
 759 417 782 484 830 484 c 0
 868 484 899 476 921 463 c 0
 970 433 973 376 973 314 c 0
 973 300 972 286 972 273 c 2
 972 0 l 1
 836 0 l 1
 836 327 l 2
 836 375 831 411 802 411 c 0
 768 411 753 341 751 291 c 2
 751 0 l 1
 614 0 l 1
 614 327 l 2
 614 375 610 411 580 411 c 0
 546 411 532 341 530 291 c 2
 530 0 l 1
 393 0 l 1xdc
692 498 m 5
 703 568 l 5
 703 568 748 544 786 544 c 6
 822 544 l 4
 842 544 856 545 866 551 c 4
 874 555 878 565 878 579 c 4
 878 593 874 602 866 607 c 4
 858 612 848 614 834 614 c 6
 794 614 l 5
 794 668 l 5
 821 671 838 670 852 686 c 4
 859 693 861 702 861 710 c 4
 861 730 848 734 832 734 c 4
 795 734 770 727 740 715 c 5
 703 773 l 5
 745 791 785 801 832 801 c 4
 928 801 966 765 966 709 c 4
 966 669 938 651 922 641 c 5
 950 634 989 618 989 578 c 4
 989 562 984 518 940 494 c 4
 902 473 859 473 817 473 c 6
 780 473 l 6
 742 473 692 498 692 498 c 5
EndSplineSet
EndChar
StartChar: uF1FFD
Encoding: 991229 991229 64
Width: 1000
VWidth: 0
Flags: MW
LayerCount: 2
Fore
SplineSet
22 36 m 1
 35 146 l 1
 44 133 82 68 153 68 c 0
 199 68 209 99 209 124 c 0
 209 152 193 170 176 178 c 0
 158 186 129 188 99 204 c 0
 79 215 57 233 42 265 c 0
 36 278 26 304 26 342 c 0
 26 408 44 445 70 466 c 0
 93 484 121 489 151 489 c 0
 196 489 224 482 268 456 c 1
 256 360 l 1
 219 399 194 417 143 417 c 0
 102 417 96 387 96 367 c 0
 96 313 139 313 182 300 c 0
 228 286 279 235 279 143 c 0
 279 87 267 50 248 26 c 0
 225 -2 191 -11 154 -11 c 0
 103 -11 63 5 22 36 c 1
319 240 m 0
 319 368 353 489 487 489 c 0
 619 489 634 360 634 250 c 1
 634 250 l 1
 409 250 l 1
 409 202 410 149 430 108 c 0
 438 91 459 62 501 62 c 0
 561 62 602 103 625 129 c 1
 630 38 l 1
 607 19 564 -11 496 -11 c 0
 405 -11 319 39 319 240 c 0
411 304 m 1
 555 304 l 1
 548 397 514 416 487 416 c 0
 427 416 415 331 411 304 c 1
682 237 m 0
 682 439 762 489 853 489 c 0
 907 489 931 478 974 446 c 1
 963 351 l 1
 933 383 916 411 854 411 c 0
 783 411 779 326 778 257 c 2
 778 228 l 2
 778 132 791 67 852 67 c 0
 917 67 955 112 973 133 c 1
 978 35 l 1
 937 4 901 -11 850 -11 c 0
 716 -11 682 107 682 237 c 0
EndSplineSet
EndChar
StartChar: uF1FFE
Encoding: 991230 991230 65
Width: 1000
VWidth: 0
Flags: MW
LayerCount: 2
Fore
SplineSet
30 0 m 1
 30 486 l 1
 117 486 l 1
 117 418 l 1
 118 371 l 1
 129 419 157 491 216 491 c 0
 303 491 298 409 303 380 c 1
 314 423 341 493 397 493 c 0
 423 493 441 485 454 473 c 0
 486 441 486 378 485 308 c 0
 485 295 484 281 484 268 c 2
 484 0 l 1
 395 0 l 1
 395 341 l 2
 395 386 389 416 361 416 c 0
 322 416 306 349 303 306 c 2
 303 0 l 1
 212 0 l 1
 212 341 l 2
 212 386 207 416 178 416 c 0
 140 416 124 349 121 306 c 2
 121 0 l 1
 30 0 l 1
548 568 m 1
 548 700 l 1
 634 700 l 1
 634 568 l 1
 548 568 l 1
547 0 m 1
 547 480 l 1
 635 480 l 1
 635 0 l 1
 547 0 l 1
697 0 m 1
 697 486 l 1
 784 486 l 1
 784 417 l 1
 785 371 l 1
 796 420 824 491 883 491 c 0
 914 491 934 480 947 462 c 0
 970 429 971 373 970 311 c 0
 970 297 969 284 969 270 c 2
 969 0 l 1
 879 0 l 1
 879 341 l 2
 879 384 874 416 845 416 c 0
 807 416 791 349 788 306 c 2
 788 0 l 1
 697 0 l 1
EndSplineSet
EndChar
StartChar: uF2000
Encoding: 991232 991232 66
Width: 1000
VWidth: 0
Flags: MW
LayerCount: 2
Fore
SplineSet
9 237 m 0
 37 439 134 489 236 489 c 0
 297 489 321 478 365 446 c 1
 339 351 l 1
 310 383 295 411 226 411 c 0
 146 411 130 326 120 257 c 2
 116 228 l 2
 103 132 107 67 176 67 c 0
 248 67 297 112 320 133 c 1
 313 35 l 1
 263 4 220 -11 163 -11 c 0
 13 -11 -9 107 9 237 c 0
375 129 m 0
 396 279 628 267 629 270 c 1
 635 311 l 2
 637 331 644 371 633 397 c 0
 627 412 615 422 593 422 c 0
 518 422 475 370 452 346 c 1
 460 446 l 1
 511 476 550 489 606 489 c 0
 730 489 757 420 742 315 c 2
 699 0 l 1
 593 0 l 1
 603 69 l 1
 568 17 514 -11 465 -11 c 0
 398 -11 365 60 375 129 c 0
479 131 m 0
 474 94 491 62 524 62 c 0
 549 62 603 80 613 154 c 2
 623 229 l 1
 572 224 490 210 479 131 c 0
794 0 m 1
 890 695 l 1
 996 695 l 1
 899 0 l 1
 794 0 l 1
EndSplineSet
EndChar
StartChar: uF2001
Encoding: 991233 991233 67
Width: 1000
VWidth: 0
Flags: MW
LayerCount: 2
Fore
SplineSet
-7 0 m 1
 -7 687 l 1
 66 687 l 1
 66 340 l 1
 136 480 l 1
 229 480 l 1
 136 299 l 1
 243 0 l 1
 160 0 l 1
 88 204 l 1
 64 159 l 1
 64 0 l 1
 -7 0 l 1
308 241 m 0
 330 469 400 497 468 497 c 0
 512 497 530 486 560 455 c 1
 540 351 l 1
 520 385 510 415 461 415 c 0
 403 415 399 325 394 258 c 1
 395 261 392 227 392 230 c 1
 383 134 379 71 427 71 c 0
 479 71 513 120 528 141 c 1
 523 34 l 1
 486 3 457 -11 417 -11 c 0
 301 -11 296 111 308 241 c 0
564 134 m 0
 580 297 760 274 742 278 c 1
 747 321 l 2
 748 337 753 380 747 405 c 0
 745 416 739 428 721 428 c 0
 666 428 634 369 620 345 c 1
 626 455 l 1
 664 486 691 497 730 497 c 0
 826 497 842 430 830 318 c 2
 800 0 l 1
 717 0 l 1
 725 79 l 1
 704 23 666 -11 630 -11 c 0
 584 -11 557 58 564 134 c 0
646 136 m 0
 642 99 652 65 673 65 c 0
 688 65 724 84 731 161 c 2
 739 240 l 1
 705 234 654 220 646 136 c 0
858 0 m 1
 923 687 l 1
 1007 687 l 1
 941 0 l 1
 858 0 l 1
EndSplineSet
EndChar
StartChar: uF2002
Encoding: 991234 991234 68
Width: 1000
Flags: MW
LayerCount: 2
Fore
SplineSet
38 238 m 0
 38 316 47 398 91 445 c 0
 115 472 148 483 180 483 c 0xbc
 229 483 265 458 292 428 c 1
 292 695 l 1
 396 695 l 1xba
 396 0 l 1
 290 0 l 1
 290 52 l 1
 261 15 228 -11 179 -11 c 0
 155 -11 96 -5 63 72 c 0
 44 118 38 172 38 238 c 0
144 250 m 0
 144 169 144 124 162 94 c 0
 176 72 199 61 221 61 c 0
 267 61 288 102 290 103 c 1
 290 382 l 1xbc
 285 387 281 390 276 394 c 0
 265 403 254 408 241 410 c 0
 238 410 234 411 230 411 c 0
 148 411 144 328 144 250 c 0
514 0 m 1
 514 695 l 1
 709 695 l 2
 765 695 823 695 872 660 c 0
 932 619 939 547 939 514 c 0xf8
 939 394 843 369 825 363 c 1
 864 356 962 329 962 193 c 0xf4
 962 115 933 55 878 25 c 0
 854 12 830 6 804 3 c 0
 779 0 754 0 730 0 c 2
 514 0 l 1
624 87 m 1
 723 87 l 2
 776 87 814 95 837 130 c 0
 849 148 855 173 855 197 c 0xf4
 855 244 838 279 813 299 c 0
 793 314 770 320 748 323 c 0
 736 324 722 325 710 325 c 2
 624 325 l 25
 624 290 l 17
 624 87 l 1
624 398 m 1
 699 398 l 2
 749 398 794 405 817 447 c 0
 826 462 833 485 833 511 c 0xf8
 833 550 814 608 718 608 c 2
 624 608 l 25
 624 576 l 17
 624 398 l 1
EndSplineSet
EndChar
StartChar: uF2021
Encoding: 991265 991265 10
Width: 1000
VWidth: 0
Flags: MW
LayerCount: 2
Fore
SplineSet
15 0 m 1
 283 369 l 1
 283 369 l 1
 31 695 l 1
 207 695 l 1
 358 487 l 1
 504 695 l 1
 671 695 l 1
 434 368 l 1
 434 368 l 1
 717 0 l 1
 540 0 l 1
 359 261 l 1
 358 261 l 1
 182 0 l 1
 15 0 l 1
774 0 m 1
 774 695 l 1
 922 695 l 1
 922 0 l 1
 774 0 l 1
EndSplineSet
EndChar
StartChar: uF2022
Encoding: 991266 991266 11
Width: 1000
VWidth: 0
Flags: MW
LayerCount: 2
Fore
SplineSet
15 0 m 1
 172 378 l 1
 172 378 l 1
 31 695 l 1
 207 695 l 1
 258 581 l 1
 304 695 l 1
 471 695 l 1
 344 389 l 1
 344 389 l 1
 517 0 l 1
 340 0 l 1
 259 182 l 1
 258 182 l 1
 182 0 l 1
 15 0 l 1
574 0 m 1
 574 695 l 1
 722 695 l 1
 722 0 l 1
 574 0 l 1
805 0 m 1
 805 695 l 1
 953 695 l 1
 953 0 l 1
 805 0 l 1
EndSplineSet
EndChar
StartChar: uF2067
Encoding: 991335 991335 12
Width: 1000
Flags: MW
LayerCount: 2
Fore
SplineSet
16 0 m 1
 155 392 l 1
 155 392 l 1
 32 695 l 1
 195 695 l 1
 230 604 l 1
 262 695 l 1
 422 695 l 1
 310 401 l 1
 310 401 l 1
 468 0 l 1
 314 0 l 1
 234 196 l 1
 233 196 l 1
 159 0 l 1
 16 0 l 1
474 0 m 1
 474 695 l 1
 622 695 l 1
 622 0 l 1
 474 0 l 1
656 0 m 1
 656 695 l 1
 804 695 l 1
 804 0 l 1
 656 0 l 1
836 0 m 1
 836 695 l 1
 984 695 l 1
 984 0 l 1
 836 0 l 1
EndSplineSet
EndChar
StartChar: uF2068
Encoding: 991336 991336 13
Width: 1000
Flags: MW
LayerCount: 2
Fore
SplineSet
17 0 m 1
 159 394 l 1
 159 394 l 1
 33 695 l 1
 193 695 l 1
 231 598 l 1
 266 695 l 1
 423 695 l 1
 309 401 l 1
 309 401 l 1
 469 0 l 1
 323 0 l 1
 236 208 l 1
 234 208 l 1
 153 0 l 1
 17 0 l 1
426 0 m 1
 426 695 l 1
 574 695 l 1
 574 0 l 1
 426 0 l 1
531 695 m 1
 686 695 l 1
 765 215 l 1
 843 695 l 1
 983 695 l 1
 852 0 l 1
 662 0 l 1
 531 695 l 1
EndSplineSet
EndChar
StartChar: uF2069
Encoding: 991337 991337 14
Width: 1000
VWidth: 0
Flags: MW
LayerCount: 2
Fore
SplineSet
8 0 m 1
 165 378 l 1
 165 378 l 1
 24 695 l 1
 200 695 l 1
 250 582 l 1
 296 695 l 1
 464 695 l 1
 336 388 l 1
 336 388 l 1
 510 0 l 1
 332 0 l 1
 251 182 l 1
 250 182 l 1
 174 0 l 1
 8 0 l 1
490 695 m 1
 646 695 l 1
 673 497 725 261 750 176 c 1
 852 695 l 1
 992 695 l 1
 836 0 l 1
 646 0 l 1
 490 695 l 1
EndSplineSet
EndChar
StartChar: uF206A
Encoding: 991338 991338 25
Width: 1000
Flags: MW
LayerCount: 2
Fore
SplineSet
153 0 m 1
 345 243 l 1
 345 247 l 1
 159 472 l 1
 296 472 l 1
 399 337 l 1
 401 337 l 1
 498 472 l 1
 634 472 l 1
 454 245 l 1
 454 244 l 1
 653 0 l 1
 515 0 l 1
 400 170 l 1
 289 0 l 1
 153 0 l 1
713 573 m 1
 713 695 l 1
 847 695 l 1
 847 573 l 1
 713 573 l 1
713 0 m 1
 713 472 l 1
 847 472 l 1
 847 0 l 1
 713 0 l 1
EndSplineSet
EndChar
StartChar: uF206B
Encoding: 991339 991339 26
Width: 1000
VWidth: 0
Flags: MW
LayerCount: 2
Fore
SplineSet
25 0 m 1
 217 243 l 1
 217 247 l 1
 31 472 l 1
 168 472 l 1
 271 337 l 1
 273 337 l 1
 370 472 l 1
 506 472 l 1
 326 245 l 1
 326 244 l 1
 525 0 l 1
 387 0 l 1
 272 170 l 1
 161 0 l 1
 25 0 l 1
585 573 m 1
 585 695 l 1
 719 695 l 1
 719 573 l 1
 585 573 l 1
585 0 m 1
 585 472 l 1
 719 472 l 1
 719 0 l 1
 585 0 l 1
841 573 m 1
 841 695 l 1
 975 695 l 1
 975 573 l 1
 841 573 l 1
841 0 m 1
 841 472 l 1
 975 472 l 1
 975 0 l 1
 841 0 l 1
EndSplineSet
EndChar
StartChar: uF206C
Encoding: 991340 991340 27
Width: 1000
VWidth: 0
Flags: W
LayerCount: 2
Fore
SplineSet
30 0 m 1
 152 241 l 1
 152 245 l 1
 36 472 l 1
 169 472 l 1
 220 376 l 1
 220 376 l 1
 270 472 l 1
 398 472 l 1
 288 247 l 1
 288 246 l 1
 416 0 l 1
 278 0 l 1
 220 112 l 1
 166 0 l 1
 30 0 l 1
446 573 m 1
 446 695 l 1
 580 695 l 1
 580 573 l 1
 446 573 l 1
446 0 m 1
 446 472 l 1
 580 472 l 1
 580 0 l 1
 446 0 l 1
642 573 m 1
 642 695 l 1
 776 695 l 1
 776 573 l 1
 642 573 l 1
642 0 m 1
 642 472 l 1
 776 472 l 1
 776 0 l 1
 642 0 l 1
836 573 m 1
 836 695 l 1
 970 695 l 1
 970 573 l 1
 836 573 l 1
836 0 m 1
 836 472 l 1
 970 472 l 1
 970 0 l 1
 836 0 l 1
EndSplineSet
EndChar
StartChar: uF206D
Encoding: 991341 991341 28
Width: 1000
Flags: W
LayerCount: 2
Fore
SplineSet
8 0 m 1
 131 241 l 1
 131 245 l 1
 14 472 l 1
 148 472 l 1
 198 375 l 1
 199 375 l 1
 248 472 l 1
 376 472 l 1
 266 248 l 1
 266 247 l 1
 395 0 l 1
 257 0 l 1
 199 112 l 1
 144 0 l 1
 8 0 l 1
425 573 m 1
 425 695 l 1
 559 695 l 1
 559 573 l 1
 425 573 l 1
425 0 m 1
 425 472 l 1
 559 472 l 1
 559 0 l 1
 425 0 l 1
598 472 m 1
 722 472 l 1
 770 248 l 2
 790 156 788 142 792 117 c 1
 810 165 858 436 871 472 c 1
 992 472 l 1
 878 0 l 1
 707 0 l 1
 598 472 l 1
EndSplineSet
EndChar
StartChar: uF206E
Encoding: 991342 991342 29
Width: 1000
Flags: MW
LayerCount: 2
Fore
SplineSet
8 0 m 1
 200 243 l 1
 200 247 l 1
 14 472 l 1
 151 472 l 1
 254 337 l 1
 256 337 l 1
 353 472 l 1
 489 472 l 1
 309 245 l 1
 309 244 l 1
 508 0 l 1
 370 0 l 1
 255 170 l 1
 144 0 l 1
 8 0 l 1
523 472 m 1
 647 472 l 1
 718 248 l 2
 747 156 755 142 759 117 c 1
 777 165 858 436 871 472 c 1
 992 472 l 1
 843 0 l 1
 672 0 l 1
 523 472 l 1
EndSplineSet
EndChar
StartChar: uF2071
Encoding: 991345 991345 81
Width: 1000
Flags: MW
LayerCount: 2
Fore
SplineSet
114 572 m 0
 114 653 164 695 236 695 c 0
 311 695 358 651 358 573 c 0
 358 491 308 450 236 450 c 0
 156 450 114 501 114 572 c 0
197 572 m 0
 197 539 214 534 235 534 c 2
 238 534 l 2
 268 534 275 550 275 573 c 0
 275 599 265 611 238 611 c 0
 215 611 197 607 197 572 c 0
412 0 m 1
 412 692 l 1xd8
 886 692 l 1
 886 587 l 1xe8
 560 590 l 1
 560 394 l 1xd8
 840 394 l 1
 840 299 l 1
 560 299 l 1
 560 0 l 1
 412 0 l 1
EndSplineSet
EndChar
StartChar: uF2072
Encoding: 991346 991346 82
Width: 1000
VWidth: 0
Flags: MW
LayerCount: 2
Fore
SplineSet
10 584 m 5
 10 689 l 5
 490 689 l 5
 490 584 l 5
 324 588 l 5
 324 0 l 5
 176 0 l 5
 176 588 l 5
 10 584 l 5
534 0 m 5
 534 695 l 5
 732 695 l 6
 844 695 949 600 949 514 c 4xf8
 949 394 825 369 807 363 c 5
 853 356 965 327 965 193 c 7xf4
 965 78 869 0 745 0 c 6
 534 0 l 5
676 87 m 5
 741 87 l 6
 801 87 826 129 826 197 c 4xf4
 826 276 802 325 732 325 c 6
 677 325 l 29
 676 290 l 21
 676 87 l 5
676 398 m 5
 725 398 l 6
 782 398 812 439 812 511 c 4xf8
 812 550 799 608 737 608 c 6
 677 608 l 29
 676 576 l 21
 676 398 l 5
EndSplineSet
EndChar
StartChar: uF2073
Encoding: 991347 991347 83
Width: 1000
VWidth: 0
Flags: MW
LayerCount: 2
Fore
SplineSet
24 0 m 1
 24 693 l 1
 253 693 l 1
 253 564 l 1
 110 568 l 1
 110 405 l 1
 230 405 l 1
 230 289 l 1
 110 289 l 1
 110 0 l 1
 24 0 l 1
289 0 m 1
 394 696 l 1
 510 696 l 1
 614 0 l 1
 525 0 l 1
 509 118 l 1
 387 118 l 1
 371 0 l 1
 289 0 l 1
404 223 m 1
 492 223 l 1
 454 486 l 1
 448 536 l 1
 443 489 433 433 404 223 c 1
636 0 m 1
 758 371 l 1
 758 371 l 1
 644 696 l 1
 747 696 l 1
 802 519 l 1
 855 696 l 1
 954 696 l 1
 847 369 l 1
 847 370 l 1
 976 0 l 1
 873 0 l 1
 803 235 l 1
 803 235 l 1
 735 0 l 1
 636 0 l 1
EndSplineSet
EndChar
StartChar: uF2690
Encoding: 992912 992912 84
Width: 1000
Flags: MW
LayerCount: 2
Fore
SplineSet
284 344 m 0
 284 356 284 368 284 380 c 0
 286 509 302 664 430 706 c 0
 448 713 469 717 493 717 c 0
 539 717 590 700 632 654 c 0
 703 576 703 431 703 362 c 2
 703 352 l 2
 703 213 701 32 555 -12 c 4
 537 -18 516 -22 492 -22 c 0
 293 -22 284 180 284 344 c 0
417 352 m 0
 417 155 422 91 464 60 c 0
 472 55 482 50 493 50 c 0
 498 50 519 51 537 76 c 0
 570 120 567 200 569 357 c 0
 569 368 570 380 570 393 c 0
 570 468 566 559 552 595 c 0
 541 623 519 644 493 644 c 0
 418 644 417 516 417 396 c 0
 417 381 417 366 417 352 c 0
EndSplineSet
EndChar
StartChar: uF2691
Encoding: 992913 992913 85
Width: 1000
Flags: MW
LayerCount: 2
Fore
SplineSet
311 575 m 1
 311 648 l 1
 427 648 495 670 551 717 c 1
 586 717 l 1
 586 73 l 1
 704 73 l 1
 704 0 l 1
 326 0 l 1
 326 73 l 1
 448 73 l 1
 448 591 l 1
 406 579 359 575 311 575 c 1
EndSplineSet
EndChar
StartChar: uF2692
Encoding: 992914 992914 86
Width: 1000
Flags: MW
LayerCount: 2
Fore
SplineSet
286 574 m 1
 314 643 371 717 480 717 c 0
 610 717 693 603 693 487 c 0
 693 385 619 333 504 229 c 2
 390 106 l 1
 693 108 l 1
 693 0 l 1
 295 0 l 1
 295 100 l 1
 440 254 l 2
 476 297 556 378 556 485 c 0
 556 552 526 617 468 617 c 0
 404 617 373 551 355 486 c 1
 286 574 l 1
EndSplineSet
EndChar
StartChar: uF2693
Encoding: 992915 992915 87
Width: 1000
Flags: MW
LayerCount: 2
Fore
SplineSet
286 58 m 1
 303 151 l 1
 335 124 369 102 408 88 c 0
 430 79 454 73 480 73 c 0
 508 73 526 83 538 99 c 0
 556 124 558 162 558 197 c 2
 558 216 l 2xe8
 558 261 550 289 540 307 c 0
 518 345 483 337 468 339 c 2
 420 339 l 1
 420 411 l 1
 449 414 459 414 469 417 c 0
 504 426 540 470 540 547 c 0
 540 572 537 596 525 611 c 0
 516 622 504 628 483 628 c 0xf0
 458 628 438 621 421 610 c 0
 403 599 387 584 375 571 c 0
 364 559 357 548 354 543 c 1
 301 619 l 1
 328 652 362 680 405 698 c 0
 428 710 455 717 485 717 c 0
 547 717 594 698 625 670 c 0
 666 634 675 583 675 544 c 0xf0
 675 501 661 468 642 443 c 0
 617 409 583 389 564 378 c 1
 584 373 634 361 669 319 c 0
 691 293 706 256 706 203 c 0
 706 133 687 62 625 19 c 4
 589 -6 541 -22 484 -22 c 0
 452 -22 424 -16 395 -5 c 0
 355 9 319 30 286 58 c 1
EndSplineSet
EndChar
StartChar: uF2694
Encoding: 992916 992916 88
Width: 1000
Flags: MW
LayerCount: 2
Fore
SplineSet
274 152 m 1
 274 247 l 1
 274 247 l 1
 492 695 l 1
 640 695 l 1
 640 247 l 1
 730 247 l 1
 730 152 l 1
 640 152 l 1
 640 0 l 1
 517 0 l 1
 517 152 l 1
 274 152 l 1
379 247 m 1
 521 247 l 1
 521 592 l 1
 507 528 477 466 379 247 c 1
EndSplineSet
EndChar
StartChar: uF2695
Encoding: 992917 992917 89
Width: 1000
Flags: MW
LayerCount: 2
Fore
SplineSet
279 82 m 1
 332 169 l 1
 338 159 343 150 350 140 c 0
 366 118 386 102 405 91 c 0
 425 78 448 72 468 72 c 0
 503 72 523 85 535 108 c 0
 549 135 551 175 551 220 c 2
 551 248 l 2
 551 288 549 329 537 354 c 0
 530 369 518 379 500 379 c 0
 442 379 422 296 421 296 c 2
 325 296 l 1
 325 695 l 1
 662 695 l 1
 662 594 l 1
 444 594 l 1
 444 435 l 1
 460 444 476 452 504 452 c 0
 550 452 598 438 634 406 c 4
 675 369 699 309 699 219 c 0
 699 134 675 78 637 41 c 0
 589 -6 525 -22 471 -22 c 0
 438 -22 410 -14 385 -2 c 0
 326 22 293 62 279 82 c 1
EndSplineSet
EndChar
StartChar: uF2696
Encoding: 992918 992918 90
Width: 1000
Flags: MW
LayerCount: 2
Fore
SplineSet
286 342 m 0
 286 501 318 566 346 608 c 0
 395 682 468 717 546 717 c 0
 578 717 602 712 638 696 c 1
 638 604 l 1
 607 619 583 628 549 628 c 0
 491 628 462 590 452 568 c 0
 438 539 427 489 427 391 c 1
 444 441 476 493 535 493 c 0
 611 493 645 455 667 424 c 0
 705 368 709 314 709 250 c 2
 709 244 l 2
 709 189 708 127 673 71 c 0
 614 -20 538 -22 500 -22 c 0
 439 -22 391 5 357 46 c 0
 289 127 286 262 286 342 c 0
428 253 m 0
 428 245 428 237 428 229 c 4
 429 148 438 72 502 72 c 0
 553 72 566 117 568 170 c 0
 569 193 568 217 569 240 c 2
 569 274 l 2
 568 313 569 351 560 378 c 0
 552 403 536 420 504 420 c 0
 452 420 433 356 429 288 c 0
 428 276 428 265 428 253 c 0
EndSplineSet
EndChar
StartChar: uF2697
Encoding: 992919 992919 91
Width: 1000
Flags: MW
LayerCount: 2
Fore
SplineSet
286 587 m 1
 286 695 l 1
 724 695 l 1
 724 594 l 1
 581 422 525 200 525 -11 c 1
 383 -11 l 1
 383 214 472 433 645 588 c 1
 286 587 l 1
EndSplineSet
EndChar
StartChar: uF2698
Encoding: 992920 992920 92
Width: 1000
Flags: MW
LayerCount: 2
Fore
SplineSet
286 201 m 0xf2
 286 287 323 351 410 375 c 1
 388 384 301 406 301 523 c 0
 301 620 344 717 497 717 c 2
 498 717 l 2
 651 717 693 620 693 522 c 0xec
 693 394 585 379 584 375 c 1
 671 351 708 287 708 201 c 0
 708 89 662 -22 497 -22 c 0
 332 -22 286 90 286 201 c 0xf2
426 190 m 2
 427 152 427 116 444 94 c 0
 454 81 470 73 496 73 c 0
 518 73 535 80 545 90 c 4
 572 116 568 166 569 198 c 2
 569 219 l 2xf2
 568 260 565 295 550 316 c 0
 540 331 523 339 497 339 c 0
 471 339 455 330 445 316 c 0
 423 287 427 239 426 213 c 2
 426 190 l 2
428 511 m 2xec
 428 475 432 449 444 432 c 0
 454 418 471 411 496 411 c 0
 522 411 539 419 549 432 c 0
 564 452 566 482 566 512 c 2
 566 530 l 2
 566 562 563 586 554 602 c 0
 544 620 527 628 498 628 c 0
 472 628 456 621 446 610 c 0
 428 590 429 557 428 529 c 2
 428 511 l 2xec
EndSplineSet
EndChar
StartChar: uF2699
Encoding: 992921 992921 93
Width: 1000
Flags: MW
LayerCount: 2
Fore
SplineSet
279 443 m 0
 279 513 279 573 322 632 c 0
 358 682 404 717 502 717 c 0
 565 717 608 695 641 662 c 0
 718 585 721 444 721 359 c 0
 721 255 712 124 630 45 c 0
 584 -3 517 -22 454 -22 c 0
 398 -22 358 -5 313 26 c 1
 361 110 l 1
 391 87 412 73 454 73 c 0
 500 73 540 96 559 131 c 0
 573 159 584 213 584 296 c 2
 584 305 l 1
 569 264 533 202 455 202 c 0
 377 202 341 241 320 273 c 0
 283 328 279 381 279 443 c 0
415 450 m 2
 417 335 421 318 436 298 c 0
 450 281 471 275 492 275 c 0
 515 275 545 284 564 324 c 0
 577 350 584 389 584 448 c 0
 584 525 583 628 500 628 c 0
 478 628 460 623 449 614 c 0
 411 586 418 522 415 482 c 2
 415 450 l 2
EndSplineSet
EndChar
StartChar: uF269A
Encoding: 992922 992922 94
Width: 1000
Flags: MW
LayerCount: 2
Fore
SplineSet
290 344 m 0
 290 356 290 368 290 380 c 0
 292 509 309 664 437 706 c 0
 455 713 476 717 500 717 c 0
 546 717 597 700 639 654 c 0
 710 576 710 431 710 362 c 2
 710 352 l 2
 710 213 708 32 562 -12 c 0
 544 -18 523 -22 499 -22 c 0
 300 -22 290 180 290 344 c 0
424 352 m 0
 424 310 424 275 425 244 c 1
 543 622 l 1
 531 636 516 644 500 644 c 0
 425 644 424 516 424 396 c 0
 424 381 424 366 424 352 c 0
448 87 m 1
 454 75 461 67 471 60 c 0
 479 55 489 50 500 50 c 0
 505 50 526 51 544 76 c 0
 577 120 574 200 576 357 c 0
 576 368 577 380 577 393 c 0
 577 425 576 460 574 492 c 1
 448 87 l 1
EndSplineSet
EndChar
StartChar: uF269B
Encoding: 992923 992923 95
Width: 1000
Flags: MW
LayerCount: 2
Fore
SplineSet
80 0 m 1
 80 695 l 1
 228 695 l 1
 228 0 l 1
 80 0 l 1
310 0 m 1
 310 695 l 1
 458 695 l 1
 458 0 l 1
 310 0 l 1
542 0 m 1
 542 695 l 1
 690 695 l 1
 690 0 l 1
 542 0 l 1
772 0 m 1
 772 695 l 1
 920 695 l 1
 920 0 l 1
 772 0 l 1
EndSplineSet
EndChar
StartChar: uF2E46
Encoding: 994886 994886 96
Width: 1000
Flags: MW
LayerCount: 2
Fore
SplineSet
10 0 m 5
 199 695 l 5
 292 695 l 5
 490 0 l 5
 337 0 l 5
 310 150 l 5
 172 150 l 5
 146 0 l 5
 10 0 l 5
188 237 m 5
 296 237 l 5
 248 521 l 5
 242 569 l 5
 236 512 224 457 188 237 c 5
510 0 m 5
 510 695 l 5
 662 695 l 5
 686 521 726 303 749 148 c 5
 750 148 l 5
 778 357 805 497 837 695 c 5
 990 695 l 5
 990 0 l 5
 866 0 l 5
 866 531 l 5
 866 553 866 569 866 569 c 5
 864 555 862 543 860 532 c 12
 840 355 806 191 778 22 c 5
 720 22 l 5
 693 176 650 426 632 569 c 5
 632 0 l 5
 510 0 l 5
EndSplineSet
EndChar
StartChar: uF2E47
Encoding: 994887 994887 97
Width: 1000
Flags: MW
LayerCount: 2
Fore
SplineSet
24 0 m 5
 24 695 l 5
 154 695 l 5
 154 376 l 5
 314 695 l 5
 460 695 l 5
 283 402 l 5
 476 0 l 5
 327 0 l 5
 207 296 l 5
 154 218 l 5
 154 0 l 5
 24 0 l 5
524 0 m 5
 524 695 l 5
 654 695 l 5
 654 376 l 5
 814 695 l 5
 960 695 l 5
 783 402 l 5
 976 0 l 5
 827 0 l 5
 707 296 l 5
 654 218 l 5
 654 0 l 5
 524 0 l 5
EndSplineSet
EndChar
StartChar: uF2E48
Encoding: 994888 994888 98
Width: 1000
Flags: MW
LayerCount: 2
Fore
SplineSet
68 0 m 1
 68 695 l 1
 211 695 l 1
 401 196 l 1
 430 120 l 1
 430 695 l 1
 522 695 l 1
 522 0 l 1
 379 0 l 1
 181 518 l 1
 159 574 l 1
 159 0 l 1
 68 0 l 1
613 239 m 0
 613 436 703 489 795 489 c 0
 887 489 976 436 976 239 c 0
 976 28 887 -11 795 -11 c 0
 703 -11 613 28 613 239 c 0
714 241 m 0
 714 164 715 67 795 67 c 0
 875 67 875 164 875 241 c 0
 875 323 875 416 795 416 c 0
 715 416 714 323 714 241 c 0
EndSplineSet
EndChar
StartChar: uF2E49
Encoding: 994889 994889 99
Width: 1000
Flags: MW
LayerCount: 2
Fore
SplineSet
40 0 m 5
 40 695 l 5
 254 695 l 6
 378 695 460 604 460 478 c 4
 460 331 338 268 262 268 c 6
 188 268 l 5
 188 0 l 5
 40 0 l 5
186 347 m 5
 244 347 l 6
 292 347 320 365 320 477 c 4
 320 592 292 608 244 608 c 6
 186 608 l 5
 186 347 l 5
523 0 m 5
 523 695 l 5
 671 695 l 5
 671 409 l 5
 829 409 l 5
 829 695 l 5
 977 695 l 5
 977 0 l 5
 829 0 l 5
 829 314 l 5
 671 314 l 5
 671 0 l 5
 523 0 l 5
EndSplineSet
EndChar
StartChar: uF2E4A
Encoding: 994890 994890 100
Width: 1000
VWidth: 0
Flags: MW
LayerCount: 2
Fore
SplineSet
40 0 m 5
 40 695 l 5
 254 695 l 6
 378 695 460 604 460 478 c 4
 460 331 338 268 262 268 c 6
 188 268 l 5
 188 0 l 5
 40 0 l 5
186 347 m 5
 244 347 l 6
 292 347 320 365 320 477 c 4
 320 592 292 608 244 608 c 6
 186 608 l 5
 186 347 l 5
510 0 m 5
 510 695 l 5
 662 695 l 5
 686 521 726 303 749 148 c 5
 750 148 l 5
 778 357 805 497 837 695 c 5
 990 695 l 5
 990 0 l 5
 866 0 l 5
 866 531 l 5
 866 553 866 569 866 569 c 5
 864 555 862 543 860 532 c 12
 840 355 806 191 778 22 c 5
 720 22 l 5
 693 176 650 426 632 569 c 5
 632 0 l 5
 510 0 l 5
EndSplineSet
EndChar
StartChar: uF2E4B
Encoding: 994891 994891 101
Width: 1000
VWidth: 0
Flags: MW
LayerCount: 2
Fore
SplineSet
40 0 m 5
 40 695 l 5
 254 695 l 6
 378 695 460 604 460 478 c 4
 460 331 338 268 262 268 c 6
 188 268 l 5
 188 0 l 5
 40 0 l 5
186 347 m 5
 244 347 l 6
 292 347 320 365 320 477 c 4
 320 592 292 608 244 608 c 6
 186 608 l 5
 186 347 l 5
532 0 m 5
 532 695 l 5
 730 695 l 6
 886 695 949 584 949 497 c 4
 949 400 888 332 830 321 c 5
 968 0 l 5
 820 0 l 5
 732 311 l 5
 677 311 l 5
 677 0 l 5
 532 0 l 5
677 384 m 5
 736 384 l 6
 798 384 809 421 809 496 c 4
 809 571 798 608 737 608 c 6
 677 608 l 5
 677 384 l 5
EndSplineSet
EndChar
StartChar: uF2E4C
Encoding: 994892 994892 102
Width: 1000
Flags: MW
LayerCount: 2
Fore
SplineSet
33 619 m 1
 33 689 l 1
 360 689 l 1
 360 619 l 1
 237 622 l 1
 237 276 l 1
 155 276 l 1
 155 622 l 1
 33 619 l 1
424 276 m 1
 424 691 l 1
 669 691 l 1
 669 621 l 1
 505 623 l 1
 505 523 l 1
 654 523 l 1
 654 460 l 1
 505 460 l 1
 505 346 l 1
 677 349 l 1
 677 276 l 1
 424 276 l 1
745 276 m 1
 745 693 l 1
 826 693 l 1
 826 343 l 1
 967 346 l 1
 967 276 l 1
 745 276 l 1
EndSplineSet
EndChar
StartChar: uF2E4D
Encoding: 994893 994893 103
Width: 1000
Flags: MW
LayerCount: 2
Fore
SplineSet
27 619 m 1
 27 689 l 1
 415 689 l 1
 415 619 l 1
 269 622 l 1
 269 276 l 1
 173 276 l 1
 173 622 l 1
 27 619 l 1
490 276 m 1
 490 693 l 1
 607 693 l 1
 693 478 l 2
 703 453 725 388 730 374 c 1
 731 374 l 1
 742 411 766 471 769 478 c 2
 854 693 l 1
 973 693 l 1
 973 276 l 1
 893 276 l 1
 893 583 l 1
 893 597 893 607 893 607 c 1
 890 596 887 590 885 585 c 2
 848 487 l 17
 769 289 l 1
 692 289 l 1
 617 477 l 2
 592 541 576 581 569 607 c 1
 569 276 l 1
 490 276 l 1
EndSplineSet
EndChar
StartChar: uF2E4E
Encoding: 994894 994894 104
Width: 1000
Flags: MW
LayerCount: 2
Fore
SplineSet
34 695 m 5
 172 695 l 5
 203 526 261 212 277 125 c 5
 336 695 l 5
 466 695 l 5
 364 0 l 5
 174 0 l 5
 34 695 l 5
531 47 m 5
 554 179 l 5
 622 124 678 87 753 87 c 4
 830 87 843 145 843 184 c 4
 843 235 813 265 789 277 c 4
 743 299 646 294 575 402 c 4
 557 429 543 464 543 509 c 4
 543 615 595 716 755 717 c 6
 758 717 l 6
 820 717 861 705 938 668 c 5
 915 537 l 5
 886 561 841 613 757 613 c 4
 683 613 669 561 669 527 c 4
 669 479 695 458 729 444 c 4
 762 431 802 425 831 409 c 4
 901 378 969 305 969 199 c 4
 969 88 919 -22 753 -22 c 4
 683 -22 609 3 531 47 c 5
EndSplineSet
EndChar
StartChar: uF2E4F
Encoding: 994895 994895 105
Width: 1000
Flags: MW
LayerCount: 2
Fore
SplineSet
575 237 m 0
 575 419 677 464 775 464 c 0
 833 464 864 454 919 425 c 1
 905 340 l 1
 867 369 844 394 775 394 c 0
 702 394 700 317 699 255 c 2
 699 229 l 2
 699 143 711 84 774 84 c 0
 846 84 894 125 917 144 c 1
 925 55 l 1
 873 27 827 14 772 14 c 0
 618 14 575 120 575 237 c 0
112 14 m 0
 112 24 117 34 124 41 c 2
 812 705 l 2
 822 715 834 747 860 747 c 0
 877 747 888 734 888 714 c 0
 888 705 881 694 877 690 c 2
 192 25 l 2
 184 17 172 0 162 -10 c 0
 158 -14 152 -18 145 -19 c 0
 143 -19 142 -19 140 -19 c 0
 125 -19 112 -6 112 14 c 0
72 440 m 0
 72 575 307 564 308 567 c 1
 308 604 l 2
 307 622 309 658 296 681 c 0
 289 695 276 704 256 704 c 0
 188 704 148 657 126 635 c 1
 119 725 l 1
 173 752 208 764 259 764 c 0
 385 764 428 701 428 607 c 2
 428 324 l 1
 309 324 l 1
 309 386 l 1
 284 339 239 314 194 314 c 0
 121 314 72 378 72 440 c 0
189 442 m 0
 189 409 207 380 238 380 c 0
 261 380 308 395 308 462 c 2
 308 530 l 1
 262 526 189 513 189 442 c 0
EndSplineSet
EndChar
StartChar: uF2E50
Encoding: 994896 994896 106
Width: 1000
VWidth: 0
Flags: MW
LayerCount: 2
Fore
SplineSet
8 134 m 0
 8 297 172 274 156 278 c 1
 156 321 l 2
 156 337 157 380 149 405 c 0
 146 416 139 428 123 428 c 0
 74 428 51 369 40 345 c 1
 36 455 l 1
 67 486 91 497 126 497 c 0
 212 497 232 430 231 318 c 2
 231 0 l 1
 157 0 l 1
 157 79 l 1
 143 23 112 -11 79 -11 c 0
 38 -11 8 58 8 134 c 0
81 136 m 0
 81 99 92 65 111 65 c 0
 124 65 156 84 156 161 c 2
 156 240 l 1
 126 234 81 220 81 136 c 0
298 0 m 1
 298 145 l 1
 369 145 l 1
 369 0 l 1
 298 0 l 1
436 0 m 1
 436 486 l 1
 509 486 l 1
 509 418 l 1
 509 371 l 1
 518 419 542 491 591 491 c 0
 664 491 660 409 664 380 c 1
 673 423 696 493 743 493 c 0
 765 493 780 485 791 473 c 0
 818 441 818 378 817 308 c 0
 817 295 816 281 816 268 c 2
 816 0 l 1
 741 0 l 1
 741 341 l 2
 741 386 736 416 713 416 c 0
 681 416 667 349 664 306 c 2
 664 0 l 1
 588 0 l 1
 588 341 l 2
 588 386 584 416 560 416 c 0
 528 416 515 349 512 306 c 2
 512 0 l 1
 436 0 l 1
883 0 m 1
 883 145 l 1
 954 145 l 1
 954 0 l 1
 883 0 l 1
EndSplineSet
EndChar
StartChar: uF2E51
Encoding: 994897 994897 107
Width: 1000
Flags: MW
LayerCount: 2
Fore
SplineSet
575 237 m 0
 575 419 677 464 775 464 c 0
 833 464 864 454 919 425 c 1
 905 340 l 1
 867 369 844 394 775 394 c 0
 702 394 700 317 699 255 c 2
 699 229 l 2
 699 143 711 84 774 84 c 0
 846 84 894 125 917 144 c 1
 925 55 l 1
 873 27 827 14 772 14 c 0
 618 14 575 120 575 237 c 0
112 14 m 0
 112 24 117 34 124 41 c 2
 812 705 l 2
 822 715 834 747 860 747 c 0
 877 747 888 734 888 714 c 0
 888 705 881 694 877 690 c 2
 192 25 l 2
 184 17 172 0 162 -10 c 0
 158 -14 152 -18 145 -19 c 0
 143 -19 142 -19 140 -19 c 0
 125 -19 112 -6 112 14 c 0
75 537 m 0
 75 719 177 764 275 764 c 0
 333 764 364 754 419 725 c 1
 405 640 l 1
 367 669 344 694 275 694 c 0
 202 694 200 617 199 555 c 2
 199 529 l 2
 199 443 211 384 274 384 c 0
 346 384 394 425 417 444 c 1
 425 355 l 1
 373 327 327 314 272 314 c 0
 118 314 75 420 75 537 c 0
EndSplineSet
EndChar
StartChar: uF2E52
Encoding: 994898 994898 108
Width: 1000
VWidth: 0
Flags: MW
LayerCount: 2
Fore
SplineSet
23 237 m 0
 23 439 93 489 175 489 c 0
 223 489 246 478 284 446 c 1
 274 351 l 1
 248 383 231 411 176 411 c 0
 112 411 110 326 109 257 c 2
 109 228 l 2
 109 132 120 67 175 67 c 0
 233 67 266 112 282 133 c 1
 287 35 l 1
 251 4 219 -11 173 -11 c 0
 53 -11 23 107 23 237 c 0
362 0 m 1
 362 131 l 1
 444 131 l 1
 444 0 l 1
 362 0 l 1
523 237 m 0
 523 439 593 489 675 489 c 0
 723 489 746 478 784 446 c 1
 774 351 l 1
 748 383 731 411 676 411 c 0
 612 411 610 326 609 257 c 2
 609 228 l 2
 609 132 620 67 675 67 c 0
 733 67 766 112 782 133 c 1
 787 35 l 1
 751 4 719 -11 673 -11 c 0
 553 -11 523 107 523 237 c 0
862 0 m 1
 862 131 l 1
 944 131 l 1
 944 0 l 1
 862 0 l 1
EndSplineSet
EndChar
StartChar: uF2E53
Encoding: 994899 994899 109
Width: 1000
Flags: MW
LayerCount: 2
Fore
SplineSet
550 239 m 0
 550 416 658 464 750 464 c 0
 842 464 950 416 950 239 c 0
 950 49 842 14 750 14 c 0
 658 14 550 49 550 239 c 0
673 241 m 0
 673 172 674 84 751 84 c 0
 829 84 827 172 827 241 c 0
 827 315 827 398 750 398 c 0
 673 398 673 315 673 241 c 0
112 14 m 0
 112 24 117 34 124 41 c 2
 812 705 l 2
 822 715 834 747 860 747 c 0
 877 747 888 734 888 714 c 0
 888 705 881 694 877 690 c 2
 192 25 l 2
 184 17 172 0 162 -10 c 0
 158 -14 152 -18 145 -19 c 0
 143 -19 142 -19 140 -19 c 0
 125 -19 112 -6 112 14 c 0
75 537 m 0
 75 719 177 764 275 764 c 0
 333 764 364 754 419 725 c 1
 405 640 l 1
 367 669 344 694 275 694 c 0
 202 694 200 617 199 555 c 2
 199 529 l 2
 199 443 211 384 274 384 c 0
 346 384 394 425 417 444 c 1
 425 355 l 1
 373 327 327 314 272 314 c 0
 118 314 75 420 75 537 c 0
EndSplineSet
EndChar
StartChar: uF2E54
Encoding: 994900 994900 110
Width: 1000
Flags: MW
LayerCount: 2
Fore
SplineSet
140 238 m 4
 140 316 153 398 210 445 c 4
 241 472 282 483 324 483 c 4xbc
 387 483 435 458 470 428 c 5
 470 695 l 5
 604 695 l 5xba
 604 0 l 5
 466 0 l 5
 466 52 l 5
 429 15 387 -11 324 -11 c 4
 293 -11 215 -5 172 72 c 4
 147 118 140 172 140 238 c 4
278 250 m 4
 278 169 279 124 302 94 c 4
 320 72 350 61 378 61 c 4
 438 61 463 102 466 103 c 5
 466 382 l 5xbc
 460 387 454 390 448 394 c 4
 434 403 421 408 404 410 c 4
 400 410 395 411 390 411 c 4
 284 411 278 328 278 250 c 4
726 0 m 5
 726 695 l 5
 860 695 l 5
 860 0 l 5
 726 0 l 5
EndSplineSet
EndChar
StartChar: uF2E55
Encoding: 994901 994901 111
Width: 1000
Flags: MW
LayerCount: 2
Fore
SplineSet
33 0 m 1
 33 695 l 1
 108 695 l 1
 108 379 l 1
 118 417 144 483 198 483 c 0
 276 483 280 404 280 314 c 0
 280 300 279 286 279 273 c 2
 279 0 l 1
 203 0 l 1
 203 327 l 2
 203 374 198 411 165 411 c 0
 127 411 112 341 110 291 c 2
 110 0 l 1
 33 0 l 1
364 0 m 1
 364 695 l 1
 521 695 l 2
 567 695 613 685 643 626 c 0
 664 586 672 531 672 478 c 0
 672 318 606 280 560 271 c 0
 548 269 538 268 530 268 c 2
 447 268 l 1
 447 0 l 1
 364 0 l 1
446 347 m 1
 509 347 l 2
 563 347 594 365 594 477 c 0
 594 592 562 608 509 608 c 2
 446 608 l 1
 446 347 l 1
723 129 m 0
 723 279 889 267 890 270 c 1
 890 311 l 2
 889 331 890 371 880 397 c 0
 874 412 866 422 850 422 c 0
 797 422 771 370 757 346 c 1
 752 446 l 1
 786 476 812 489 852 489 c 0
 940 489 966 420 966 315 c 2
 966 0 l 1
 891 0 l 1
 891 69 l 1
 871 17 836 -11 801 -11 c 0
 753 -11 723 60 723 129 c 0
797 131 m 0
 797 94 813 62 836 62 c 0
 854 62 890 80 890 154 c 2
 890 229 l 1
 854 224 797 210 797 131 c 0
EndSplineSet
EndChar
StartChar: uF2E56
Encoding: 994902 994902 112
Width: 1000
Flags: MW
LayerCount: 2
Fore
SplineSet
172 0 m 5
 172 695 l 5
 290 695 l 5
 290 316 l 5
 438 472 l 5
 590 472 l 5
 418 293 l 5
 614 0 l 5
 480 0 l 5
 340 209 l 5
 286 155 l 5
 286 0 l 5
 172 0 l 5
694 0 m 5
 694 695 l 5
 828 695 l 5
 828 0 l 5
 694 0 l 5
EndSplineSet
EndChar
StartChar: uF2E57
Encoding: 994903 994903 113
Width: 1000
Flags: MW
LayerCount: 2
Fore
SplineSet
433 0 m 1
 433 695 l 1
 567 695 l 1
 567 0 l 1
 433 0 l 1
EndSplineSet
EndChar
StartChar: uF2E58
Encoding: 994904 994904 114
Width: 1000
Flags: W
LayerCount: 2
Fore
SplineSet
35 -167 m 5
 35 473 l 5
 168 473 l 5
 168 201 l 6
 169 140 190 126 204 126 c 4
 218 126 240 143 240 201 c 6
 240 473 l 5
 349 473 l 5
 349 200 l 6
 349 154 358 110 393 110 c 4
 413 110 438 133 438 167 c 6
 436 182 l 5
 512 182 l 5
 513 175 513 167 513 160 c 4
 513 72 458 -11 376 -11 c 4
 322 -11 296 24 274 52 c 5
 256 1 227 -11 204 -11 c 4
 184 -11 168 -1 168 0 c 5
 168 -167 l 5
 35 -167 l 5
648 295 m 6xea80
 648 269 648 244 661 228 c 4
 669 217 683 211 704 211 c 4
 727 211 742 217 751 228 c 4
 764 244 764 269 764 296 c 6
 764 313 l 6
 764 338 763 362 752 378 c 4
 744 390 730 397 708 397 c 4
 681 397 666 388 658 374 c 4
 648 358 648 335 648 312 c 6
 648 295 l 6xea80
613 -63 m 4xe440
 613 -87 623 -103 638 -114 c 4
 660 -130 694 -134 729 -134 c 6
 734 -134 l 6
 785 -134 814 -123 830 -108 c 4
 844 -95 848 -80 848 -67 c 4
 848 -27 809 -17 735 -17 c 6
 676 -17 l 5
 660 -17 l 6
 636 -17 613 -21 613 -63 c 4xe440
531 -65 m 4xec40
 531 -9 558 17 576 29 c 5
 557 66 555 92 555 108 c 4xe9
 555 140 562 166 576 190 c 5
 576 192 l 5
 559 215 544 250 544 303 c 4
 544 343 551 395 588 430 c 4
 612 453 650 469 706 469 c 6
 708 469 l 6xea
 781 469 798 445 812 445 c 4
 822 445 883 468 946 468 c 5
 965 394 l 5xf2
 952 394 918 398 902 398 c 6
 848 397 l 5xea40
 867 365 872 336 872 304 c 4xe880
 872 265 863 214 825 179 c 4
 801 155 763 138 705 138 c 4
 673 138 647 142 613 159 c 5xec80
 612 153 612 147 612 141 c 4xe9
 612 122 618 92 657 92 c 6
 743 92 l 6
 789 92 835 88 876 67 c 4
 910 51 936 25 946 -18 c 5
 949 -31 951 -46 951 -63 c 4
 951 -106 932 -157 859 -185 c 4
 816 -204 773 -206 731 -206 c 4
 699 -206 641 -206 595 -180 c 4
 572 -167 551 -147 540 -117 c 4
 534 -101 531 -83 531 -65 c 4xec40
EndSplineSet
EndChar
StartChar: uF2E59
Encoding: 994905 994905 115
Width: 1000
VWidth: 0
Flags: W
LayerCount: 2
Fore
SplineSet
39 -167 m 1
 39 473 l 1
 156 473 l 1
 156 201 l 2
 157 140 179 126 194 126 c 0
 209 126 231 143 231 201 c 2
 231 473 l 1
 348 473 l 1
 348 200 l 2
 348 154 348 110 360 110 c 0
 373 110 374 133 374 167 c 2
 372 182 l 1
 453 182 l 1
 454 175 454 167 454 160 c 0
 454 72 431 -11 343 -11 c 0
 308 -11 291 24 268 52 c 1
 249 1 219 -11 194 -11 c 0
 173 -11 156 -1 156 0 c 1
 156 -167 l 1
 39 -167 l 1
468 0 m 1xdc
 468 478 l 1
 580 478 l 1
 580 415 l 1
 581 373 l 1
 591 414 610 483 652 483 c 0xec
 762 483 763 410 771 379 c 1
 779 417 799 484 840 484 c 0
 873 484 898 476 917 463 c 0
 959 433 961 376 961 314 c 0
 961 300 960 286 960 273 c 2
 960 0 l 1
 844 0 l 1
 844 327 l 2
 844 375 841 411 816 411 c 0
 787 411 775 341 773 291 c 2
 773 0 l 1
 656 0 l 1
 656 327 l 2
 656 375 652 411 627 411 c 0
 598 411 587 341 585 291 c 2
 585 0 l 1
 468 0 l 1xdc
EndSplineSet
EndChar
StartChar: uF2E5A
Encoding: 994906 994906 116
Width: 1000
Flags: W
LayerCount: 2
Fore
SplineSet
56 0 m 5xdc
 56 478 l 5
 187 478 l 5
 187 415 l 5
 188 373 l 5
 203 414 238 483 312 483 c 4xec
 444 483 444 410 454 379 c 5
 468 417 503 484 575 484 c 4
 616 484 646 476 668 463 c 4
 717 433 720 376 720 314 c 4
 720 300 719 286 719 273 c 6
 719 0 l 5
 583 0 l 5
 583 327 l 6
 583 375 576 411 532 411 c 4
 480 411 459 341 456 291 c 6
 456 0 l 5
 319 0 l 5
 319 327 l 6
 319 375 312 411 268 411 c 4
 217 411 196 341 193 291 c 6
 193 0 l 5
 56 0 l 5xdc
810 0 m 5
 810 695 l 5
 944 695 l 5
 944 0 l 5
 810 0 l 5
EndSplineSet
EndChar
StartChar: uF2E5B
Encoding: 994907 994907 117
Width: 1000
Flags: MW
LayerCount: 2
Fore
SplineSet
558 24 m 1xdc
 558 454 l 1
 640 454 l 1
 640 398 l 1
 641 360 l 1
 650 397 667 459 702 459 c 0xec
 787 459 782 393 791 365 c 1
 798 399 817 460 851 460 c 0
 884 460 894 455 913 441 c 0
 941 421 942 363 942 307 c 0
 942 294 941 282 941 270 c 2
 941 24 l 1
 854 24 l 1
 854 318 l 2
 854 361 851 394 830 394 c 0
 805 394 795 331 793 286 c 2
 793 24 l 1
 706 24 l 1
 706 318 l 2
 706 361 704 394 682 394 c 0
 658 394 648 331 646 286 c 2
 646 24 l 1
 558 24 l 1xdc
112 14 m 0
 112 24 117 34 124 41 c 2
 812 705 l 2
 822 715 834 747 860 747 c 0
 877 747 888 734 888 714 c 0
 888 705 881 694 877 690 c 2
 192 25 l 2
 184 17 172 0 162 -10 c 0
 158 -14 152 -18 145 -19 c 0
 143 -19 142 -19 140 -19 c 0
 125 -19 112 -6 112 14 c 0
58 324 m 1xdc
 58 754 l 1
 140 754 l 1
 140 698 l 1
 141 660 l 1
 150 697 167 759 202 759 c 0xec
 287 759 282 693 291 665 c 1
 298 699 317 760 351 760 c 0
 384 760 394 755 413 741 c 0
 441 721 442 663 442 607 c 0
 442 594 441 582 441 570 c 2
 441 324 l 1
 354 324 l 1
 354 618 l 2
 354 661 351 694 330 694 c 0
 305 694 295 631 293 586 c 2
 293 324 l 1
 206 324 l 1
 206 618 l 2
 206 661 204 694 182 694 c 0
 158 694 148 631 146 586 c 2
 146 324 l 1
 58 324 l 1xdc
EndSplineSet
EndChar
StartChar: uF2E5C
Encoding: 994908 994908 118
Width: 1000
Flags: MW
LayerCount: 2
Fore
SplineSet
558 24 m 1xdc
 558 454 l 1
 640 454 l 1
 640 398 l 1
 641 360 l 1
 650 397 667 459 702 459 c 0xec
 787 459 782 393 791 365 c 1
 798 399 817 460 851 460 c 0
 884 460 894 455 913 441 c 0
 941 421 942 363 942 307 c 0
 942 294 941 282 941 270 c 2
 941 24 l 1
 854 24 l 1
 854 318 l 2
 854 361 851 394 830 394 c 0
 805 394 795 331 793 286 c 2
 793 24 l 1
 706 24 l 1
 706 318 l 2
 706 361 704 394 682 394 c 0
 658 394 648 331 646 286 c 2
 646 24 l 1
 558 24 l 1xdc
112 14 m 0
 112 24 117 34 124 41 c 2
 812 705 l 2
 822 715 834 747 860 747 c 0
 877 747 888 734 888 714 c 0
 888 705 881 694 877 690 c 2
 192 25 l 2
 184 17 172 0 162 -10 c 0
 158 -14 152 -18 145 -19 c 0
 143 -19 142 -19 140 -19 c 0
 125 -19 112 -6 112 14 c 0
66 324 m 1xd8
 66 754 l 1
 184 754 l 1
 184 698 l 1
 185 660 l 1
 199 698 233 759 303 759 c 0
 349 759 379 748 399 731 c 4
 431 703 434 658 434 608 c 0
 434 595 433 584 433 571 c 2
 433 324 l 1
 310 324 l 1
 310 618 l 2xe8
 310 660 304 694 262 694 c 0
 213 694 193 631 190 586 c 2
 190 324 l 1
 66 324 l 1xd8
EndSplineSet
EndChar
StartChar: uF2E5D
Encoding: 994909 994909 119
Width: 1000
Flags: MW
LayerCount: 2
Fore
SplineSet
44 -167 m 1
 44 472 l 1
 143 472 l 1
 143 422 l 1
 154 434 168 446 182 456 c 0
 206 472 235 483 269 483 c 0
 307 483 338 463 359 416 c 0
 376 377 386 319 386 238 c 0
 386 159 375 102 355 62 c 0
 329 11 290 -11 241 -11 c 0
 214 -11 194 -2 176 12 c 0
 165 21 154 32 145 44 c 1
 145 -167 l 1
 44 -167 l 1
145 96 m 1
 148 93 158 79 173 70 c 0
 181 65 190 62 201 62 c 0
 229 62 253 80 266 110 c 0
 287 156 284 205 285 247 c 2
 284 271 l 2
 283 295 280 334 266 364 c 0
 255 387 238 405 209 405 c 0
 195 405 183 401 173 396 c 0
 156 387 146 374 145 374 c 1
 145 96 l 1
481 0 m 1
 481 695 l 1
 590 695 l 1
 590 409 l 1
 823 409 l 1
 823 695 l 1
 932 695 l 1
 932 0 l 1
 823 0 l 1
 823 314 l 1
 590 314 l 1
 590 0 l 1
 481 0 l 1
EndSplineSet
EndChar
StartChar: uF2E5E
Encoding: 994910 994910 120
Width: 1000
VWidth: 0
Flags: MW
LayerCount: 2
Fore
SplineSet
24 -159 m 1
 24 480 l 1
 97 480 l 1
 97 430 l 1
 103 440 111 452 120 462 c 0
 134 478 153 491 179 491 c 0
 205 491 226 473 239 425 c 0
 249 387 255 329 255 242 c 0
 255 159 249 105 238 66 c 0
 221 11 193 -11 159 -11 c 0
 142 -11 129 -3 118 11 c 0
 111 20 105 31 99 43 c 1
 99 -159 l 1
 24 -159 l 1
99 87 m 1
 102 87 107 76 117 69 c 0
 121 66 125 66 131 66 c 0
 149 66 164 84 171 113 c 0
 185 164 179 215 180 254 c 1
 180 251 180 279 180 276 c 1
 180 296 179 336 171 368 c 0
 165 390 155 409 136 409 c 0
 129 409 122 407 116 404 c 0
 105 397 99 386 99 386 c 1
 99 87 l 1
312 0 m 1
 312 145 l 1
 382 145 l 1
 382 0 l 1
 312 0 l 1
448 0 m 1
 448 486 l 1
 520 486 l 1
 520 418 l 1
 521 371 l 1
 530 419 553 491 601 491 c 0
 673 491 669 409 673 380 c 1
 682 423 704 493 751 493 c 0
 772 493 786 485 797 473 c 0
 823 441 824 378 823 308 c 0
 823 295 822 281 822 268 c 2
 822 0 l 1
 748 0 l 1
 748 341 l 2
 748 386 744 416 721 416 c 0
 689 416 676 349 673 306 c 2
 673 0 l 1
 598 0 l 1
 598 341 l 2
 598 386 594 416 570 416 c 0
 539 416 526 349 523 306 c 2
 523 0 l 1
 448 0 l 1
888 0 m 1
 888 145 l 1
 958 145 l 1
 958 0 l 1
 888 0 l 1
EndSplineSet
EndChar
StartChar: uF502B
Encoding: 1003563 1003563 121
Width: 1000
Flags: MW
LayerCount: 2
Fore
SplineSet
544 41 m 0
 544 54 559 75 566 82 c 2
 692 207 l 1
 562 335 l 2
 550 347 546 354 544 360 c 2
 543 364 544 367 544 372 c 0
 544 392 560 410 580 413 c 1
 588 413 l 2
 601 412 611 405 624 392 c 2
 750 266 l 1
 876 391 l 2
 888 403 902 413 914 413 c 0
 936 413 956 396 956 372 c 0
 956 367 956 362 954 357 c 0
 951 351 946 344 938 335 c 2
 808 206 l 1
 928 88 l 2
 942 73 951 65 954 59 c 0
 957 53 956 49 956 42 c 0
 956 9 936 1 912 0 c 1
 900 1 890 7 876 20 c 2
 750 147 l 1
 618 16 l 2
 609 7 597 0 586 0 c 0
 563 0 544 19 544 41 c 0
34 344 m 0
 34 356 34 368 34 380 c 0
 36 509 52 664 180 706 c 0
 198 713 219 717 243 717 c 0
 289 717 340 700 382 654 c 0
 453 576 453 431 453 362 c 2
 453 352 l 2
 453 213 451 32 305 -12 c 4
 287 -18 266 -22 242 -22 c 0
 43 -22 34 180 34 344 c 0
167 352 m 0
 167 155 172 91 214 60 c 0
 222 55 232 50 243 50 c 0
 248 50 269 51 287 76 c 0
 320 120 317 200 319 357 c 0
 319 368 320 380 320 393 c 0
 320 468 316 559 302 595 c 0
 291 623 269 644 243 644 c 0
 168 644 167 516 167 396 c 0
 167 381 167 366 167 352 c 0
EndSplineSet
EndChar
StartChar: uF502C
Encoding: 1003564 1003564 122
Width: 1000
Flags: MW
LayerCount: 2
Fore
SplineSet
544 41 m 0
 544 54 559 75 566 82 c 2
 692 207 l 1
 562 335 l 2
 550 347 546 354 544 360 c 2
 543 364 544 367 544 372 c 0
 544 392 560 410 580 413 c 1
 588 413 l 2
 601 412 611 405 624 392 c 2
 750 266 l 1
 876 391 l 2
 888 403 902 413 914 413 c 0
 936 413 956 396 956 372 c 0
 956 367 956 362 954 357 c 0
 951 351 946 344 938 335 c 2
 808 206 l 1
 928 88 l 2
 942 73 951 65 954 59 c 0
 957 53 956 49 956 42 c 0
 956 9 936 1 912 0 c 1
 900 1 890 7 876 20 c 2
 750 147 l 1
 618 16 l 2
 609 7 597 0 586 0 c 0
 563 0 544 19 544 41 c 0
61 575 m 1
 61 648 l 1
 177 648 245 670 301 717 c 1
 336 717 l 1
 336 73 l 1
 454 73 l 1
 454 0 l 1
 76 0 l 1
 76 73 l 1
 198 73 l 1
 198 591 l 1
 156 579 109 575 61 575 c 1
EndSplineSet
EndChar
StartChar: uF502D
Encoding: 1003565 1003565 123
Width: 1000
Flags: MW
LayerCount: 2
Fore
SplineSet
544 41 m 0
 544 54 559 75 566 82 c 2
 692 207 l 1
 562 335 l 2
 550 347 546 354 544 360 c 2
 543 364 544 367 544 372 c 0
 544 392 560 410 580 413 c 1
 588 413 l 2
 601 412 611 405 624 392 c 2
 750 266 l 1
 876 391 l 2
 888 403 902 413 914 413 c 0
 936 413 956 396 956 372 c 0
 956 367 956 362 954 357 c 0
 951 351 946 344 938 335 c 2
 808 206 l 1
 928 88 l 2
 942 73 951 65 954 59 c 0
 957 53 956 49 956 42 c 0
 956 9 936 1 912 0 c 1
 900 1 890 7 876 20 c 2
 750 147 l 1
 618 16 l 2
 609 7 597 0 586 0 c 0
 563 0 544 19 544 41 c 0
36 574 m 1
 64 643 121 717 230 717 c 0
 360 717 443 603 443 487 c 0
 443 385 369 333 254 229 c 2
 140 106 l 1
 443 108 l 1
 443 0 l 1
 45 0 l 1
 45 100 l 1
 190 254 l 2
 226 297 306 378 306 485 c 0
 306 552 276 617 218 617 c 0
 154 617 123 551 105 486 c 1
 36 574 l 1
EndSplineSet
EndChar
StartChar: uF502E
Encoding: 1003566 1003566 124
Width: 1000
Flags: MW
LayerCount: 2
Fore
SplineSet
544 41 m 0
 544 54 559 75 566 82 c 2
 692 207 l 1
 562 335 l 2
 550 347 546 354 544 360 c 2
 543 364 544 367 544 372 c 0
 544 392 560 410 580 413 c 1
 588 413 l 2
 601 412 611 405 624 392 c 2
 750 266 l 1
 876 391 l 2
 888 403 902 413 914 413 c 0
 936 413 956 396 956 372 c 0
 956 367 956 362 954 357 c 0
 951 351 946 344 938 335 c 2
 808 206 l 1
 928 88 l 2
 942 73 951 65 954 59 c 0
 957 53 956 49 956 42 c 0
 956 9 936 1 912 0 c 1
 900 1 890 7 876 20 c 2
 750 147 l 1
 618 16 l 2
 609 7 597 0 586 0 c 0
 563 0 544 19 544 41 c 0
36 58 m 1
 53 151 l 1
 85 124 119 102 158 88 c 0
 180 79 204 73 230 73 c 0
 258 73 276 83 288 99 c 0
 306 124 308 162 308 197 c 2
 308 216 l 2xe8
 308 261 300 289 290 307 c 0
 268 345 233 337 218 339 c 2
 170 339 l 1
 170 411 l 1
 199 414 209 414 219 417 c 0
 254 426 290 470 290 547 c 0
 290 572 287 596 275 611 c 0
 266 622 254 628 233 628 c 0xf0
 208 628 188 621 171 610 c 0
 153 599 137 584 125 571 c 0
 114 559 107 548 104 543 c 1
 51 619 l 1
 78 652 112 680 155 698 c 0
 178 710 205 717 235 717 c 0
 297 717 344 698 375 670 c 0
 416 634 425 583 425 544 c 0xf0
 425 501 411 468 392 443 c 0
 367 409 333 389 314 378 c 1
 334 373 384 361 419 319 c 0
 441 293 456 256 456 203 c 0
 456 133 437 62 375 19 c 4
 339 -6 291 -22 234 -22 c 0
 202 -22 174 -16 145 -5 c 0
 105 9 69 30 36 58 c 1
EndSplineSet
EndChar
StartChar: uF502F
Encoding: 1003567 1003567 125
Width: 1000
Flags: MW
LayerCount: 2
Fore
SplineSet
544 41 m 0
 544 54 559 75 566 82 c 2
 692 207 l 1
 562 335 l 2
 550 347 546 354 544 360 c 2
 543 364 544 367 544 372 c 0
 544 392 560 410 580 413 c 1
 588 413 l 2
 601 412 611 405 624 392 c 2
 750 266 l 1
 876 391 l 2
 888 403 902 413 914 413 c 0
 936 413 956 396 956 372 c 0
 956 367 956 362 954 357 c 0
 951 351 946 344 938 335 c 2
 808 206 l 1
 928 88 l 2
 942 73 951 65 954 59 c 0
 957 53 956 49 956 42 c 0
 956 9 936 1 912 0 c 1
 900 1 890 7 876 20 c 2
 750 147 l 1
 618 16 l 2
 609 7 597 0 586 0 c 0
 563 0 544 19 544 41 c 0
24 152 m 1
 24 247 l 1
 24 247 l 1
 242 695 l 1
 390 695 l 1
 390 247 l 1
 480 247 l 1
 480 152 l 1
 390 152 l 1
 390 0 l 1
 267 0 l 1
 267 152 l 1
 24 152 l 1
129 247 m 1
 271 247 l 1
 271 592 l 1
 257 528 227 466 129 247 c 1
EndSplineSet
EndChar
StartChar: uF5030
Encoding: 1003568 1003568 126
Width: 1000
Flags: MW
LayerCount: 2
Fore
SplineSet
544 41 m 0
 544 54 559 75 566 82 c 2
 692 207 l 1
 562 335 l 2
 550 347 546 354 544 360 c 2
 543 364 544 367 544 372 c 0
 544 392 560 410 580 413 c 1
 588 413 l 2
 601 412 611 405 624 392 c 2
 750 266 l 1
 876 391 l 2
 888 403 902 413 914 413 c 0
 936 413 956 396 956 372 c 0
 956 367 956 362 954 357 c 0
 951 351 946 344 938 335 c 2
 808 206 l 1
 928 88 l 2
 942 73 951 65 954 59 c 0
 957 53 956 49 956 42 c 0
 956 9 936 1 912 0 c 1
 900 1 890 7 876 20 c 2
 750 147 l 1
 618 16 l 2
 609 7 597 0 586 0 c 0
 563 0 544 19 544 41 c 0
29 82 m 1
 82 169 l 1
 88 159 93 150 100 140 c 0
 116 118 136 102 155 91 c 0
 175 78 198 72 218 72 c 0
 253 72 273 85 285 108 c 0
 299 135 301 175 301 220 c 2
 301 248 l 2
 301 288 299 329 287 354 c 0
 280 369 268 379 250 379 c 0
 192 379 172 296 171 296 c 2
 75 296 l 1
 75 695 l 1
 412 695 l 1
 412 594 l 1
 194 594 l 1
 194 435 l 1
 210 444 226 452 254 452 c 0
 300 452 348 438 384 406 c 4
 425 369 449 309 449 219 c 0
 449 134 425 78 387 41 c 0
 339 -6 275 -22 221 -22 c 0
 188 -22 160 -14 135 -2 c 0
 76 22 43 62 29 82 c 1
EndSplineSet
EndChar
StartChar: uF5031
Encoding: 1003569 1003569 127
Width: 1000
Flags: MW
LayerCount: 2
Fore
SplineSet
544 41 m 0
 544 54 559 75 566 82 c 2
 692 207 l 1
 562 335 l 2
 550 347 546 354 544 360 c 2
 543 364 544 367 544 372 c 0
 544 392 560 410 580 413 c 1
 588 413 l 2
 601 412 611 405 624 392 c 2
 750 266 l 1
 876 391 l 2
 888 403 902 413 914 413 c 0
 936 413 956 396 956 372 c 0
 956 367 956 362 954 357 c 0
 951 351 946 344 938 335 c 2
 808 206 l 1
 928 88 l 2
 942 73 951 65 954 59 c 0
 957 53 956 49 956 42 c 0
 956 9 936 1 912 0 c 1
 900 1 890 7 876 20 c 2
 750 147 l 1
 618 16 l 2
 609 7 597 0 586 0 c 0
 563 0 544 19 544 41 c 0
36 342 m 0
 36 501 68 566 96 608 c 0
 145 682 218 717 296 717 c 0
 328 717 352 712 388 696 c 1
 388 604 l 1
 357 619 333 628 299 628 c 0
 241 628 212 590 202 568 c 0
 188 539 177 489 177 391 c 1
 194 441 226 493 285 493 c 0
 361 493 395 455 417 424 c 0
 455 368 459 314 459 250 c 2
 459 244 l 2
 459 189 458 127 423 71 c 0
 364 -20 288 -22 250 -22 c 0
 189 -22 141 5 107 46 c 0
 39 127 36 262 36 342 c 0
178 253 m 0
 178 245 178 237 178 229 c 4
 179 148 188 72 252 72 c 0
 303 72 316 117 318 170 c 0
 319 193 318 217 319 240 c 2
 319 274 l 2
 318 313 319 351 310 378 c 0
 302 403 286 420 254 420 c 0
 202 420 183 356 179 288 c 0
 178 276 178 265 178 253 c 0
EndSplineSet
EndChar
StartChar: uF5032
Encoding: 1003570 1003570 128
Width: 1000
Flags: MW
LayerCount: 2
Fore
SplineSet
544 41 m 0
 544 54 559 75 566 82 c 2
 692 207 l 1
 562 335 l 2
 550 347 546 354 544 360 c 2
 543 364 544 367 544 372 c 0
 544 392 560 410 580 413 c 1
 588 413 l 2
 601 412 611 405 624 392 c 2
 750 266 l 1
 876 391 l 2
 888 403 902 413 914 413 c 0
 936 413 956 396 956 372 c 0
 956 367 956 362 954 357 c 0
 951 351 946 344 938 335 c 2
 808 206 l 1
 928 88 l 2
 942 73 951 65 954 59 c 0
 957 53 956 49 956 42 c 0
 956 9 936 1 912 0 c 1
 900 1 890 7 876 20 c 2
 750 147 l 1
 618 16 l 2
 609 7 597 0 586 0 c 0
 563 0 544 19 544 41 c 0
36 587 m 1
 36 695 l 1
 474 695 l 1
 474 594 l 1
 331 422 275 200 275 -11 c 1
 133 -11 l 1
 133 214 222 433 395 588 c 1
 36 587 l 1
EndSplineSet
EndChar
StartChar: uF5033
Encoding: 1003571 1003571 129
Width: 1000
Flags: MW
LayerCount: 2
Fore
SplineSet
544 41 m 0
 544 54 559 75 566 82 c 2
 692 207 l 1
 562 335 l 2
 550 347 546 354 544 360 c 2
 543 364 544 367 544 372 c 0
 544 392 560 410 580 413 c 1
 588 413 l 2
 601 412 611 405 624 392 c 2
 750 266 l 1
 876 391 l 2
 888 403 902 413 914 413 c 0
 936 413 956 396 956 372 c 0
 956 367 956 362 954 357 c 0
 951 351 946 344 938 335 c 2
 808 206 l 1
 928 88 l 2
 942 73 951 65 954 59 c 0
 957 53 956 49 956 42 c 0
 956 9 936 1 912 0 c 1
 900 1 890 7 876 20 c 2
 750 147 l 1
 618 16 l 2
 609 7 597 0 586 0 c 0
 563 0 544 19 544 41 c 0
36 201 m 0xf2
 36 287 73 351 160 375 c 1
 138 384 51 406 51 523 c 0
 51 620 94 717 247 717 c 2
 248 717 l 2
 401 717 443 620 443 522 c 0xec
 443 394 335 379 334 375 c 1
 421 351 458 287 458 201 c 0
 458 89 412 -22 247 -22 c 0
 82 -22 36 90 36 201 c 0xf2
176 190 m 2
 177 152 177 116 194 94 c 0
 204 81 220 73 246 73 c 0
 268 73 285 80 295 90 c 4
 322 116 318 166 319 198 c 2
 319 219 l 2xf2
 318 260 315 295 300 316 c 0
 290 331 273 339 247 339 c 0
 221 339 205 330 195 316 c 0
 173 287 177 239 176 213 c 2
 176 190 l 2
178 511 m 2xec
 178 475 182 449 194 432 c 0
 204 418 221 411 246 411 c 0
 272 411 289 419 299 432 c 0
 314 452 316 482 316 512 c 2
 316 530 l 2
 316 562 313 586 304 602 c 0
 294 620 277 628 248 628 c 0
 222 628 206 621 196 610 c 0
 178 590 179 557 178 529 c 2
 178 511 l 2xec
EndSplineSet
EndChar
StartChar: uF5034
Encoding: 1003572 1003572 130
Width: 1000
Flags: MW
LayerCount: 2
Fore
SplineSet
544 41 m 0
 544 54 559 75 566 82 c 2
 692 207 l 1
 562 335 l 2
 550 347 546 354 544 360 c 2
 543 364 544 367 544 372 c 0
 544 392 560 410 580 413 c 1
 588 413 l 2
 601 412 611 405 624 392 c 2
 750 266 l 1
 876 391 l 2
 888 403 902 413 914 413 c 0
 936 413 956 396 956 372 c 0
 956 367 956 362 954 357 c 0
 951 351 946 344 938 335 c 2
 808 206 l 1
 928 88 l 2
 942 73 951 65 954 59 c 0
 957 53 956 49 956 42 c 0
 956 9 936 1 912 0 c 1
 900 1 890 7 876 20 c 2
 750 147 l 1
 618 16 l 2
 609 7 597 0 586 0 c 0
 563 0 544 19 544 41 c 0
29 443 m 0
 29 513 29 573 72 632 c 0
 108 682 154 717 252 717 c 0
 315 717 358 695 391 662 c 0
 468 585 471 444 471 359 c 0
 471 255 462 124 380 45 c 0
 334 -3 267 -22 204 -22 c 0
 148 -22 108 -5 63 26 c 1
 111 110 l 1
 141 87 162 73 204 73 c 0
 250 73 290 96 309 131 c 0
 323 159 334 213 334 296 c 2
 334 305 l 1
 319 264 283 202 205 202 c 0
 127 202 91 241 70 273 c 0
 33 328 29 381 29 443 c 0
165 450 m 2
 167 335 171 318 186 298 c 0
 200 281 221 275 242 275 c 0
 265 275 295 284 314 324 c 0
 327 350 334 389 334 448 c 0
 334 525 333 628 250 628 c 0
 228 628 210 623 199 614 c 0
 161 586 168 522 165 482 c 2
 165 450 l 2
EndSplineSet
EndChar
StartChar: uF5036
Encoding: 1003574 1003574 132
Width: 1000
Flags: MW
LayerCount: 2
Fore
SplineSet
561 575 m 1
 561 648 l 1
 677 648 745 670 801 717 c 1
 836 717 l 1
 836 73 l 1
 954 73 l 1
 954 0 l 1
 576 0 l 1
 576 73 l 1
 698 73 l 1
 698 591 l 1
 656 579 609 575 561 575 c 1
EndSplineSet
EndChar
StartChar: uF5037
Encoding: 1003575 1003575 133
Width: 1000
Flags: MW
LayerCount: 2
Fore
SplineSet
536 574 m 1
 564 643 621 717 730 717 c 0
 860 717 943 603 943 487 c 0
 943 385 869 333 754 229 c 2
 640 106 l 1
 943 108 l 1
 943 0 l 1
 545 0 l 1
 545 100 l 1
 690 254 l 2
 726 297 806 378 806 485 c 0
 806 552 776 617 718 617 c 0
 654 617 623 551 605 486 c 1
 536 574 l 1
EndSplineSet
EndChar
StartChar: uF5038
Encoding: 1003576 1003576 134
Width: 1000
Flags: MW
LayerCount: 2
Fore
SplineSet
536 58 m 1
 553 151 l 1
 585 124 619 102 658 88 c 0
 680 79 704 73 730 73 c 0
 758 73 776 83 788 99 c 0
 806 124 808 162 808 197 c 2
 808 216 l 2xe8
 808 261 800 289 790 307 c 0
 768 345 733 337 718 339 c 2
 670 339 l 1
 670 411 l 1
 699 414 709 414 719 417 c 0
 754 426 790 470 790 547 c 0
 790 572 787 596 775 611 c 0
 766 622 754 628 733 628 c 0xf0
 708 628 688 621 671 610 c 0
 653 599 637 584 625 571 c 0
 614 559 607 548 604 543 c 1
 551 619 l 1
 578 652 612 680 655 698 c 0
 678 710 705 717 735 717 c 0
 797 717 844 698 875 670 c 0
 916 634 925 583 925 544 c 0xf0
 925 501 911 468 892 443 c 0
 867 409 833 389 814 378 c 1
 834 373 884 361 919 319 c 0
 941 293 956 256 956 203 c 0
 956 133 937 62 875 19 c 4
 839 -6 791 -22 734 -22 c 0
 702 -22 674 -16 645 -5 c 0
 605 9 569 30 536 58 c 1
EndSplineSet
EndChar
StartChar: uF5039
Encoding: 1003577 1003577 135
Width: 1000
Flags: MW
LayerCount: 2
Fore
SplineSet
524 152 m 1
 524 247 l 1
 524 247 l 1
 742 695 l 1
 890 695 l 1
 890 247 l 1
 980 247 l 1
 980 152 l 1
 890 152 l 1
 890 0 l 1
 767 0 l 1
 767 152 l 1
 524 152 l 1
629 247 m 1
 771 247 l 1
 771 592 l 1
 757 528 727 466 629 247 c 1
EndSplineSet
EndChar
StartChar: uF503C
Encoding: 1003580 1003580 138
Width: 1000
Flags: MW
LayerCount: 2
Fore
SplineSet
536 587 m 1
 536 695 l 1
 974 695 l 1
 974 594 l 1
 831 422 775 200 775 -11 c 1
 633 -11 l 1
 633 214 722 433 895 588 c 1
 536 587 l 1
EndSplineSet
EndChar
StartChar: uF5043
Encoding: 1003587 1003587 145
Width: 1000
Flags: MW
LayerCount: 2
Fore
SplineSet
24 152 m 1
 24 247 l 1
 24 247 l 1
 242 695 l 1
 390 695 l 1
 390 247 l 1
 480 247 l 1
 480 152 l 1
 390 152 l 1
 390 0 l 1
 267 0 l 1
 267 152 l 1
 24 152 l 1
129 247 m 1
 271 247 l 1
 271 592 l 1
 257 528 227 466 129 247 c 1
EndSplineSet
EndChar
StartChar: uF5046
Encoding: 1003590 1003590 148
Width: 1000
Flags: MW
LayerCount: 2
Fore
SplineSet
36 587 m 1
 36 695 l 1
 474 695 l 1
 474 594 l 1
 331 422 275 200 275 -11 c 1
 133 -11 l 1
 133 214 222 433 395 588 c 1
 36 587 l 1
EndSplineSet
EndChar
StartChar: uF506B
Encoding: 1003627 1003627 151
Width: 1000
Flags: MW
LayerCount: 2
Fore
SplineSet
414 344 m 0
 414 356 414 368 414 380 c 0
 416 509 432 664 560 706 c 0
 578 713 599 717 623 717 c 0
 669 717 720 700 762 654 c 0
 833 576 833 431 833 362 c 2
 833 352 l 2
 833 213 831 32 685 -12 c 0
 667 -18 646 -22 622 -22 c 0
 423 -22 414 180 414 344 c 0
547 352 m 0
 547 155 552 91 594 60 c 0
 602 55 612 50 623 50 c 0
 628 50 649 51 667 76 c 0
 700 120 697 200 699 357 c 0
 699 368 700 380 700 393 c 0
 700 468 696 559 682 595 c 0
 671 623 649 644 623 644 c 0
 548 644 547 516 547 396 c 0
 547 381 547 366 547 352 c 0
21 575 m 1
 21 648 l 1
 137 648 205 670 261 717 c 1
 296 717 l 1
 296 73 l 1
 414 73 l 1
 414 0 l 1
 36 0 l 1
 36 73 l 1
 158 73 l 1
 158 591 l 1
 116 579 69 575 21 575 c 1
836 0 m 1
 836 131 l 1
 967 131 l 1
 967 0 l 1
 836 0 l 1
EndSplineSet
EndChar
StartChar: uF506C
Encoding: 1003628 1003628 152
Width: 1000
Flags: MW
LayerCount: 2
Fore
SplineSet
431 575 m 1
 431 648 l 1
 547 648 615 670 671 717 c 1
 706 717 l 1
 706 73 l 1
 824 73 l 1
 824 0 l 1
 446 0 l 1
 446 73 l 1
 568 73 l 1
 568 591 l 1
 526 579 479 575 431 575 c 1
21 575 m 1
 21 648 l 1
 137 648 205 670 261 717 c 1
 296 717 l 1
 296 73 l 1
 414 73 l 1
 414 0 l 1
 36 0 l 1
 36 73 l 1
 158 73 l 1
 158 591 l 1
 116 579 69 575 21 575 c 1
836 0 m 1
 836 131 l 1
 967 131 l 1
 967 0 l 1
 836 0 l 1
EndSplineSet
EndChar
StartChar: uF506D
Encoding: 1003629 1003629 153
Width: 1000
Flags: MW
LayerCount: 2
Fore
SplineSet
595 344 m 0
 597 356 599 368 601 380 c 0
 626 509 669 664 804 706 c 0
 823 713 845 717 869 717 c 0
 915 717 963 700 997 654 c 0
 1054 576 1029 431 1017 362 c 2
 1015 352 l 2
 990 213 957 32 803 -12 c 4
 784 -18 762 -22 738 -22 c 0
 539 -22 566 180 595 344 c 0
729 352 m 0
 694 155 688 91 725 60 c 0
 732 55 741 50 752 50 c 0
 757 50 778 51 800 76 c 0
 841 120 852 200 882 357 c 0
 884 368 887 380 889 393 c 0
 902 468 915 559 907 595 c 0
 901 623 883 644 857 644 c 0
 782 644 758 516 737 396 c 0
 734 381 731 366 729 352 c 0
95 344 m 0
 97 356 99 368 101 380 c 0
 126 509 169 664 304 706 c 0
 323 713 345 717 369 717 c 0
 415 717 463 700 497 654 c 0
 554 576 529 431 517 362 c 2
 515 352 l 2
 490 213 457 32 303 -12 c 4
 284 -18 262 -22 238 -22 c 0
 39 -22 66 180 95 344 c 0
229 352 m 0
 194 155 188 91 225 60 c 0
 232 55 241 50 252 50 c 0
 257 50 278 51 300 76 c 0
 341 120 352 200 382 357 c 0
 384 368 387 380 389 393 c 0
 402 468 415 559 407 595 c 0
 401 623 383 644 357 644 c 0
 282 644 258 516 237 396 c 0
 234 381 231 366 229 352 c 0
EndSplineSet
EndChar
StartChar: uF506F
Encoding: 1003631 1003631 155
Width: 1000
Flags: MW
LayerCount: 2
Fore
SplineSet
637 574 m 1
 677 643 747 717 856 717 c 0
 986 717 1049 603 1029 487 c 0
 1011 385 927 333 794 229 c 2
 659 106 l 1
 962 108 l 1
 943 0 l 1
 545 0 l 1
 563 100 l 1
 735 254 l 2
 779 297 873 378 892 485 c 0
 904 552 885 617 827 617 c 0
 763 617 720 551 691 486 c 1
 637 574 l 1
95 344 m 0
 97 356 99 368 101 380 c 0
 126 509 169 664 304 706 c 0
 323 713 345 717 369 717 c 0
 415 717 463 700 497 654 c 0
 554 576 529 431 517 362 c 2
 515 352 l 2
 490 213 457 32 303 -12 c 4
 284 -18 262 -22 238 -22 c 0
 39 -22 66 180 95 344 c 0
229 352 m 0
 194 155 188 91 225 60 c 0
 232 55 241 50 252 50 c 0
 257 50 278 51 300 76 c 0
 341 120 352 200 382 357 c 0
 384 368 387 380 389 393 c 0
 402 468 415 559 407 595 c 0
 401 623 383 644 357 644 c 0
 282 644 258 516 237 396 c 0
 234 381 231 366 229 352 c 0
EndSplineSet
EndChar
StartChar: uF5070
Encoding: 1003632 1003632 156
Width: 1000
Flags: MW
LayerCount: 2
Fore
SplineSet
546 58 m 1
 580 151 l 1
 607 124 637 102 674 88 c 0
 694 79 717 73 743 73 c 0
 771 73 790 83 805 99 c 0
 827 124 837 162 843 197 c 2
 846 216 l 2xe8
 854 261 851 289 844 307 c 0
 829 345 793 337 778 339 c 2
 730 339 l 1
 742 411 l 1
 772 414 782 414 793 417 c 0
 830 426 872 470 886 547 c 0
 890 572 892 596 883 611 c 0
 876 622 865 628 844 628 c 0xf0
 819 628 798 621 779 610 c 0
 759 599 740 584 726 571 c 0
 713 559 704 548 700 543 c 1
 660 619 l 1
 693 652 732 680 778 698 c 0
 803 710 831 717 861 717 c 0
 923 717 967 698 993 670 c 0
 1028 634 1028 583 1021 544 c 0xf0
 1013 501 993 468 970 443 c 0
 939 409 902 389 881 378 c 1
 900 373 947 361 975 319 c 0
 992 293 1001 256 992 203 c 0
 980 133 948 62 878 19 c 4
 838 -6 787 -22 730 -22 c 0
 698 -22 671 -16 644 -5 c 0
 606 9 574 30 546 58 c 1
95 344 m 0
 97 356 99 368 101 380 c 0
 126 509 169 664 304 706 c 0
 323 713 345 717 369 717 c 0
 415 717 463 700 497 654 c 0
 554 576 529 431 517 362 c 2
 515 352 l 2
 490 213 457 32 303 -12 c 4
 284 -18 262 -22 238 -22 c 0
 39 -22 66 180 95 344 c 0
229 352 m 0
 194 155 188 91 225 60 c 0
 232 55 241 50 252 50 c 0
 257 50 278 51 300 76 c 0
 341 120 352 200 382 357 c 0
 384 368 387 380 389 393 c 0
 402 468 415 559 407 595 c 0
 401 623 383 644 357 644 c 0
 282 644 258 516 237 396 c 0
 234 381 231 366 229 352 c 0
EndSplineSet
EndChar
StartChar: uF5071
Encoding: 1003633 1003633 157
Width: 1000
Flags: MW
LayerCount: 2
Fore
SplineSet
551 152 m 1
 568 247 l 1
 568 247 l 1
 865 695 l 1
 1013 695 l 1
 934 247 l 1
 1024 247 l 1
 1007 152 l 1
 917 152 l 1
 890 0 l 1
 767 0 l 1
 794 152 l 1
 551 152 l 1
673 247 m 1
 815 247 l 1
 875 592 l 1
 850 528 810 466 673 247 c 1
95 344 m 0
 97 356 99 368 101 380 c 0
 126 509 169 664 304 706 c 0
 323 713 345 717 369 717 c 0
 415 717 463 700 497 654 c 0
 554 576 529 431 517 362 c 2
 515 352 l 2
 490 213 457 32 303 -12 c 4
 284 -18 262 -22 238 -22 c 0
 39 -22 66 180 95 344 c 0
229 352 m 0
 194 155 188 91 225 60 c 0
 232 55 241 50 252 50 c 0
 257 50 278 51 300 76 c 0
 341 120 352 200 382 357 c 0
 384 368 387 380 389 393 c 0
 402 468 415 559 407 595 c 0
 401 623 383 644 357 644 c 0
 282 644 258 516 237 396 c 0
 234 381 231 366 229 352 c 0
EndSplineSet
EndChar
StartChar: uF5072
Encoding: 1003634 1003634 158
Width: 1000
Flags: MW
LayerCount: 2
Fore
SplineSet
543 82 m 1
 612 169 l 1
 616 159 620 150 625 140 c 0
 637 118 654 102 671 91 c 0
 689 78 711 72 731 72 c 0
 766 72 788 85 804 108 c 0
 823 135 832 175 840 220 c 2
 845 248 l 2
 852 288 857 329 849 354 c 0
 845 369 835 379 817 379 c 0
 759 379 724 296 723 296 c 2
 627 296 l 1
 698 695 l 1
 1035 695 l 1
 1017 594 l 1
 799 594 l 1
 771 435 l 1
 789 444 806 452 834 452 c 0
 880 452 926 438 956 406 c 4
 990 369 1004 309 988 219 c 0
 973 134 939 78 894 41 c 0
 838 -6 771 -22 717 -22 c 0
 684 -22 658 -14 635 -2 c 0
 580 22 553 62 543 82 c 1
95 344 m 0
 97 356 99 368 101 380 c 0
 126 509 169 664 304 706 c 0
 323 713 345 717 369 717 c 0
 415 717 463 700 497 654 c 0
 554 576 529 431 517 362 c 2
 515 352 l 2
 490 213 457 32 303 -12 c 4
 284 -18 262 -22 238 -22 c 0
 39 -22 66 180 95 344 c 0
229 352 m 0
 194 155 188 91 225 60 c 0
 232 55 241 50 252 50 c 0
 257 50 278 51 300 76 c 0
 341 120 352 200 382 357 c 0
 384 368 387 380 389 393 c 0
 402 468 415 559 407 595 c 0
 401 623 383 644 357 644 c 0
 282 644 258 516 237 396 c 0
 234 381 231 366 229 352 c 0
EndSplineSet
EndChar
StartChar: uF5073
Encoding: 1003635 1003635 159
Width: 1000
Flags: MW
LayerCount: 2
Fore
SplineSet
596 342 m 0
 624 501 668 566 703 608 c 0
 765 682 844 717 922 717 c 0
 954 717 978 712 1011 696 c 1
 995 604 l 1
 967 619 944 628 910 628 c 0
 852 628 816 590 802 568 c 0
 783 539 763 489 746 391 c 1
 772 441 813 493 872 493 c 0
 948 493 975 455 992 424 c 0
 1020 368 1014 314 1003 250 c 2
 1002 244 l 2
 992 189 981 127 936 71 c 0
 861 -20 784 -22 746 -22 c 0
 685 -22 642 5 615 46 c 0
 561 127 582 262 596 342 c 0
723 253 m 0
 722 245 719 237 718 229 c 4
 705 148 701 72 765 72 c 0
 816 72 837 117 848 170 c 0
 853 193 856 217 861 240 c 2
 867 274 l 2
 873 313 881 351 877 378 c 0
 873 403 860 420 828 420 c 0
 776 420 746 356 730 288 c 0
 727 276 725 265 723 253 c 0
95 344 m 0
 97 356 99 368 101 380 c 0
 126 509 169 664 304 706 c 0
 323 713 345 717 369 717 c 0
 415 717 463 700 497 654 c 0
 554 576 529 431 517 362 c 2
 515 352 l 2
 490 213 457 32 303 -12 c 4
 284 -18 262 -22 238 -22 c 0
 39 -22 66 180 95 344 c 0
229 352 m 0
 194 155 188 91 225 60 c 0
 232 55 241 50 252 50 c 0
 257 50 278 51 300 76 c 0
 341 120 352 200 382 357 c 0
 384 368 387 380 389 393 c 0
 402 468 415 559 407 595 c 0
 401 623 383 644 357 644 c 0
 282 644 258 516 237 396 c 0
 234 381 231 366 229 352 c 0
EndSplineSet
EndChar
StartChar: uF5074
Encoding: 1003636 1003636 160
Width: 1000
Flags: MW
LayerCount: 2
Fore
SplineSet
640 587 m 1
 659 695 l 1
 1097 695 l 1
 1079 594 l 1
 906 422 810 200 773 -11 c 1
 631 -11 l 1
 671 214 799 433 999 588 c 1
 640 587 l 1
95 344 m 0
 97 356 99 368 101 380 c 0
 126 509 169 664 304 706 c 0
 323 713 345 717 369 717 c 0
 415 717 463 700 497 654 c 0
 554 576 529 431 517 362 c 2
 515 352 l 2
 490 213 457 32 303 -12 c 4
 284 -18 262 -22 238 -22 c 0
 39 -22 66 180 95 344 c 0
229 352 m 0
 194 155 188 91 225 60 c 0
 232 55 241 50 252 50 c 0
 257 50 278 51 300 76 c 0
 341 120 352 200 382 357 c 0
 384 368 387 380 389 393 c 0
 402 468 415 559 407 595 c 0
 401 623 383 644 357 644 c 0
 282 644 258 516 237 396 c 0
 234 381 231 366 229 352 c 0
EndSplineSet
EndChar
StartChar: uF5075
Encoding: 1003637 1003637 161
Width: 1000
Flags: MW
LayerCount: 2
Fore
SplineSet
571 201 m 0xf2
 586 287 635 351 726 375 c 1
 706 384 622 406 643 523 c 0
 660 620 720 717 873 717 c 2
 874 717 l 2
 1027 717 1052 620 1035 522 c 0xec
 1012 394 902 379 900 375 c 1
 983 351 1008 287 993 201 c 0
 973 89 908 -22 743 -22 c 0
 578 -22 551 90 571 201 c 0xf2
710 190 m 2
 704 152 698 116 711 94 c 0
 719 81 733 73 759 73 c 0
 781 73 799 80 811 90 c 4
 843 116 847 166 854 198 c 2
 858 219 l 2xf2
 864 260 867 295 856 316 c 0
 849 331 833 339 807 339 c 0
 781 339 763 330 751 316 c 0
 724 287 720 239 714 213 c 2
 710 190 l 2
768 511 m 2xec
 762 475 761 449 770 432 c 0
 778 418 793 411 818 411 c 0
 844 411 863 419 875 432 c 0
 894 452 901 482 906 512 c 2
 909 530 l 2
 915 562 916 586 910 602 c 0
 903 620 888 628 859 628 c 0
 833 628 816 621 804 610 c 0
 782 590 777 557 771 529 c 2
 768 511 l 2xec
95 344 m 0
 97 356 99 368 101 380 c 0
 126 509 169 664 304 706 c 0
 323 713 345 717 369 717 c 0
 415 717 463 700 497 654 c 0
 554 576 529 431 517 362 c 2
 515 352 l 2
 490 213 457 32 303 -12 c 4
 284 -18 262 -22 238 -22 c 0
 39 -22 66 180 95 344 c 0
229 352 m 0
 194 155 188 91 225 60 c 0
 232 55 241 50 252 50 c 0
 257 50 278 51 300 76 c 0
 341 120 352 200 382 357 c 0
 384 368 387 380 389 393 c 0
 402 468 415 559 407 595 c 0
 401 623 383 644 357 644 c 0
 282 644 258 516 237 396 c 0
 234 381 231 366 229 352 c 0
EndSplineSet
EndChar
StartChar: uF5076
Encoding: 1003638 1003638 162
Width: 1000
Flags: MW
LayerCount: 2
Fore
SplineSet
607 443 m 0
 619 513 630 573 683 632 c 0
 728 682 780 717 878 717 c 0
 941 717 981 695 1008 662 c 0
 1071 585 1049 444 1034 359 c 0
 1016 255 984 124 888 45 c 0
 834 -3 763 -22 700 -22 c 0
 644 -22 608 -5 568 26 c 1
 630 110 l 1
 656 87 675 73 717 73 c 0
 763 73 807 96 832 131 c 0
 851 159 871 213 886 296 c 2
 888 305 l 1
 866 264 819 202 741 202 c 0
 663 202 633 241 618 273 c 0
 591 328 596 381 607 443 c 0
744 450 m 2
 726 335 728 318 739 298 c 0
 750 281 769 275 790 275 c 0
 813 275 845 284 871 324 c 0
 889 350 903 389 913 448 c 0
 927 525 944 628 861 628 c 0
 839 628 820 623 807 614 c 0
 764 586 760 522 750 482 c 2
 744 450 l 2
95 344 m 0
 97 356 99 368 101 380 c 0
 126 509 169 664 304 706 c 0
 323 713 345 717 369 717 c 0
 415 717 463 700 497 654 c 0
 554 576 529 431 517 362 c 2
 515 352 l 2
 490 213 457 32 303 -12 c 4
 284 -18 262 -22 238 -22 c 0
 39 -22 66 180 95 344 c 0
229 352 m 0
 194 155 188 91 225 60 c 0
 232 55 241 50 252 50 c 0
 257 50 278 51 300 76 c 0
 341 120 352 200 382 357 c 0
 384 368 387 380 389 393 c 0
 402 468 415 559 407 595 c 0
 401 623 383 644 357 644 c 0
 282 644 258 516 237 396 c 0
 234 381 231 366 229 352 c 0
EndSplineSet
EndChar
StartChar: uF5077
Encoding: 1003639 1003639 163
Width: 1000
Flags: MW
LayerCount: 2
Fore
SplineSet
595 344 m 0
 597 356 599 368 601 380 c 0
 626 509 669 664 804 706 c 0
 823 713 845 717 869 717 c 0
 915 717 963 700 997 654 c 0
 1054 576 1029 431 1017 362 c 2
 1015 352 l 2
 990 213 957 32 803 -12 c 4
 784 -18 762 -22 738 -22 c 0
 539 -22 566 180 595 344 c 0
729 352 m 0
 694 155 688 91 725 60 c 0
 732 55 741 50 752 50 c 0
 757 50 778 51 800 76 c 0
 841 120 852 200 882 357 c 0
 884 368 887 380 889 393 c 0
 902 468 915 559 907 595 c 0
 901 623 883 644 857 644 c 0
 782 644 758 516 737 396 c 0
 734 381 731 366 729 352 c 0
162 575 m 1
 175 648 l 1
 291 648 363 670 427 717 c 1
 462 717 l 1
 349 73 l 1
 467 73 l 1
 454 0 l 1
 76 0 l 1
 89 73 l 1
 211 73 l 1
 302 591 l 1
 258 579 210 575 162 575 c 1
EndSplineSet
EndChar
StartChar: uF5078
Encoding: 1003640 1003640 164
Width: 1000
Flags: MW
LayerCount: 2
Fore
SplineSet
662 575 m 1
 675 648 l 1
 791 648 863 670 927 717 c 1
 962 717 l 1
 849 73 l 1
 967 73 l 1
 954 0 l 1
 576 0 l 1
 589 73 l 1
 711 73 l 1
 802 591 l 1
 758 579 710 575 662 575 c 1
162 575 m 1
 175 648 l 1
 291 648 363 670 427 717 c 1
 462 717 l 1
 349 73 l 1
 467 73 l 1
 454 0 l 1
 76 0 l 1
 89 73 l 1
 211 73 l 1
 302 591 l 1
 258 579 210 575 162 575 c 1
EndSplineSet
EndChar
StartChar: uF5079
Encoding: 1003641 1003641 165
Width: 1000
Flags: MW
LayerCount: 2
Fore
SplineSet
637 574 m 1
 677 643 747 717 856 717 c 0
 986 717 1049 603 1029 487 c 0
 1011 385 927 333 794 229 c 2
 659 106 l 1
 962 108 l 1
 943 0 l 1
 545 0 l 1
 563 100 l 1
 735 254 l 2
 779 297 873 378 892 485 c 0
 904 552 885 617 827 617 c 0
 763 617 720 551 691 486 c 1
 637 574 l 1
162 575 m 1
 175 648 l 1
 291 648 363 670 427 717 c 1
 462 717 l 1
 349 73 l 1
 467 73 l 1
 454 0 l 1
 76 0 l 1
 89 73 l 1
 211 73 l 1
 302 591 l 1
 258 579 210 575 162 575 c 1
EndSplineSet
EndChar
StartChar: uF507A
Encoding: 1003642 1003642 166
Width: 1000
Flags: MW
LayerCount: 2
Fore
SplineSet
546 58 m 1
 580 151 l 1
 607 124 637 102 674 88 c 0
 694 79 717 73 743 73 c 0
 771 73 790 83 805 99 c 0
 827 124 837 162 843 197 c 2
 846 216 l 2xe8
 854 261 851 289 844 307 c 0
 829 345 793 337 778 339 c 2
 730 339 l 1
 742 411 l 1
 772 414 782 414 793 417 c 0
 830 426 872 470 886 547 c 0
 890 572 892 596 883 611 c 0
 876 622 865 628 844 628 c 0xf0
 819 628 798 621 779 610 c 0
 759 599 740 584 726 571 c 0
 713 559 704 548 700 543 c 1
 660 619 l 1
 693 652 732 680 778 698 c 0
 803 710 831 717 861 717 c 0
 923 717 967 698 993 670 c 0
 1028 634 1028 583 1021 544 c 0xf0
 1013 501 993 468 970 443 c 0
 939 409 902 389 881 378 c 1
 900 373 947 361 975 319 c 0
 992 293 1001 256 992 203 c 0
 980 133 948 62 878 19 c 4
 838 -6 787 -22 730 -22 c 0
 698 -22 671 -16 644 -5 c 0
 606 9 574 30 546 58 c 1
162 575 m 1
 175 648 l 1
 291 648 363 670 427 717 c 1
 462 717 l 1
 349 73 l 1
 467 73 l 1
 454 0 l 1
 76 0 l 1
 89 73 l 1
 211 73 l 1
 302 591 l 1
 258 579 210 575 162 575 c 1
EndSplineSet
EndChar
StartChar: uF507B
Encoding: 1003643 1003643 167
Width: 1000
Flags: MW
LayerCount: 2
Fore
SplineSet
551 152 m 1
 568 247 l 1
 568 247 l 1
 865 695 l 1
 1013 695 l 1
 934 247 l 1
 1024 247 l 1
 1007 152 l 1
 917 152 l 1
 890 0 l 1
 767 0 l 1
 794 152 l 1
 551 152 l 1
673 247 m 1
 815 247 l 1
 875 592 l 1
 850 528 810 466 673 247 c 1
162 575 m 1
 175 648 l 1
 291 648 363 670 427 717 c 1
 462 717 l 1
 349 73 l 1
 467 73 l 1
 454 0 l 1
 76 0 l 1
 89 73 l 1
 211 73 l 1
 302 591 l 1
 258 579 210 575 162 575 c 1
EndSplineSet
EndChar
StartChar: uF507C
Encoding: 1003644 1003644 168
Width: 1000
Flags: MW
LayerCount: 2
Fore
SplineSet
543 82 m 1
 612 169 l 1
 616 159 620 150 625 140 c 0
 637 118 654 102 671 91 c 0
 689 78 711 72 731 72 c 0
 766 72 788 85 804 108 c 0
 823 135 832 175 840 220 c 2
 845 248 l 2
 852 288 857 329 849 354 c 0
 845 369 835 379 817 379 c 0
 759 379 724 296 723 296 c 2
 627 296 l 1
 698 695 l 1
 1035 695 l 1
 1017 594 l 1
 799 594 l 1
 771 435 l 1
 789 444 806 452 834 452 c 0
 880 452 926 438 956 406 c 4
 990 369 1004 309 988 219 c 0
 973 134 939 78 894 41 c 0
 838 -6 771 -22 717 -22 c 0
 684 -22 658 -14 635 -2 c 0
 580 22 553 62 543 82 c 1
162 575 m 1
 175 648 l 1
 291 648 363 670 427 717 c 1
 462 717 l 1
 349 73 l 1
 467 73 l 1
 454 0 l 1
 76 0 l 1
 89 73 l 1
 211 73 l 1
 302 591 l 1
 258 579 210 575 162 575 c 1
EndSplineSet
EndChar
StartChar: uF507D
Encoding: 1003645 1003645 169
Width: 1000
Flags: MW
LayerCount: 2
Fore
SplineSet
596 342 m 0
 624 501 668 566 703 608 c 0
 765 682 844 717 922 717 c 0
 954 717 978 712 1011 696 c 1
 995 604 l 1
 967 619 944 628 910 628 c 0
 852 628 816 590 802 568 c 0
 783 539 763 489 746 391 c 1
 772 441 813 493 872 493 c 0
 948 493 975 455 992 424 c 0
 1020 368 1014 314 1003 250 c 2
 1002 244 l 2
 992 189 981 127 936 71 c 0
 861 -20 784 -22 746 -22 c 0
 685 -22 642 5 615 46 c 0
 561 127 582 262 596 342 c 0
723 253 m 0
 722 245 719 237 718 229 c 4
 705 148 701 72 765 72 c 0
 816 72 837 117 848 170 c 0
 853 193 856 217 861 240 c 2
 867 274 l 2
 873 313 881 351 877 378 c 0
 873 403 860 420 828 420 c 0
 776 420 746 356 730 288 c 0
 727 276 725 265 723 253 c 0
162 575 m 1
 175 648 l 1
 291 648 363 670 427 717 c 1
 462 717 l 1
 349 73 l 1
 467 73 l 1
 454 0 l 1
 76 0 l 1
 89 73 l 1
 211 73 l 1
 302 591 l 1
 258 579 210 575 162 575 c 1
EndSplineSet
EndChar
StartChar: uF507E
Encoding: 1003646 1003646 170
Width: 1000
Flags: MW
LayerCount: 2
Fore
SplineSet
640 587 m 1
 659 695 l 1
 1097 695 l 1
 1079 594 l 1
 906 422 810 200 773 -11 c 1
 631 -11 l 1
 671 214 799 433 999 588 c 1
 640 587 l 1
162 575 m 1
 175 648 l 1
 291 648 363 670 427 717 c 1
 462 717 l 1
 349 73 l 1
 467 73 l 1
 454 0 l 1
 76 0 l 1
 89 73 l 1
 211 73 l 1
 302 591 l 1
 258 579 210 575 162 575 c 1
EndSplineSet
EndChar
StartChar: uF5080
Encoding: 1003648 1003648 172
Width: 1000
Flags: MW
LayerCount: 2
Fore
SplineSet
607 443 m 0
 619 513 630 573 683 632 c 0
 728 682 780 717 878 717 c 0
 941 717 981 695 1008 662 c 0
 1071 585 1049 444 1034 359 c 0
 1016 255 984 124 888 45 c 0
 834 -3 763 -22 700 -22 c 0
 644 -22 608 -5 568 26 c 1
 630 110 l 1
 656 87 675 73 717 73 c 0
 763 73 807 96 832 131 c 0
 851 159 871 213 886 296 c 2
 888 305 l 1
 866 264 819 202 741 202 c 0
 663 202 633 241 618 273 c 0
 591 328 596 381 607 443 c 0
744 450 m 2
 726 335 728 318 739 298 c 0
 750 281 769 275 790 275 c 0
 813 275 845 284 871 324 c 0
 889 350 903 389 913 448 c 0
 927 525 944 628 861 628 c 0
 839 628 820 623 807 614 c 0
 764 586 760 522 750 482 c 2
 744 450 l 2
162 575 m 1
 175 648 l 1
 291 648 363 670 427 717 c 1
 462 717 l 1
 349 73 l 1
 467 73 l 1
 454 0 l 1
 76 0 l 1
 89 73 l 1
 211 73 l 1
 302 591 l 1
 258 579 210 575 162 575 c 1
EndSplineSet
EndChar
StartChar: uF5081
Encoding: 1003649 1003649 173
Width: 1000
Flags: MW
LayerCount: 2
Fore
SplineSet
595 344 m 0
 597 356 599 368 601 380 c 0
 626 509 669 664 804 706 c 0
 823 713 845 717 869 717 c 0
 915 717 963 700 997 654 c 0
 1054 576 1029 431 1017 362 c 2
 1015 352 l 2
 990 213 957 32 803 -12 c 4
 784 -18 762 -22 738 -22 c 0
 539 -22 566 180 595 344 c 0
729 352 m 0
 694 155 688 91 725 60 c 0
 732 55 741 50 752 50 c 0
 757 50 778 51 800 76 c 0
 841 120 852 200 882 357 c 0
 884 368 887 380 889 393 c 0
 902 468 915 559 907 595 c 0
 901 623 883 644 857 644 c 0
 782 644 758 516 737 396 c 0
 734 381 731 366 729 352 c 0
137 574 m 1
 177 643 247 717 356 717 c 0
 486 717 549 603 529 487 c 0
 511 385 427 333 294 229 c 2
 159 106 l 1
 462 108 l 1
 443 0 l 1
 45 0 l 1
 63 100 l 1
 235 254 l 2
 279 297 373 378 392 485 c 0
 404 552 385 617 327 617 c 0
 263 617 220 551 191 486 c 1
 137 574 l 1
EndSplineSet
EndChar
StartChar: uF5082
Encoding: 1003650 1003650 174
Width: 1000
Flags: MW
LayerCount: 2
Fore
SplineSet
662 575 m 1
 675 648 l 1
 791 648 863 670 927 717 c 1
 962 717 l 1
 849 73 l 1
 967 73 l 1
 954 0 l 1
 576 0 l 1
 589 73 l 1
 711 73 l 1
 802 591 l 1
 758 579 710 575 662 575 c 1
137 574 m 1
 177 643 247 717 356 717 c 0
 486 717 549 603 529 487 c 0
 511 385 427 333 294 229 c 2
 159 106 l 1
 462 108 l 1
 443 0 l 1
 45 0 l 1
 63 100 l 1
 235 254 l 2
 279 297 373 378 392 485 c 0
 404 552 385 617 327 617 c 0
 263 617 220 551 191 486 c 1
 137 574 l 1
EndSplineSet
EndChar
StartChar: uF5083
Encoding: 1003651 1003651 175
Width: 1000
Flags: MW
LayerCount: 2
Fore
SplineSet
637 574 m 1
 677 643 747 717 856 717 c 0
 986 717 1049 603 1029 487 c 0
 1011 385 927 333 794 229 c 2
 659 106 l 1
 962 108 l 1
 943 0 l 1
 545 0 l 1
 563 100 l 1
 735 254 l 2
 779 297 873 378 892 485 c 0
 904 552 885 617 827 617 c 0
 763 617 720 551 691 486 c 1
 637 574 l 1
137 574 m 1
 177 643 247 717 356 717 c 0
 486 717 549 603 529 487 c 0
 511 385 427 333 294 229 c 2
 159 106 l 1
 462 108 l 1
 443 0 l 1
 45 0 l 1
 63 100 l 1
 235 254 l 2
 279 297 373 378 392 485 c 0
 404 552 385 617 327 617 c 0
 263 617 220 551 191 486 c 1
 137 574 l 1
EndSplineSet
EndChar
StartChar: uF5084
Encoding: 1003652 1003652 176
Width: 1000
Flags: MW
LayerCount: 2
Fore
SplineSet
546 58 m 1
 580 151 l 1
 607 124 637 102 674 88 c 0
 694 79 717 73 743 73 c 0
 771 73 790 83 805 99 c 0
 827 124 837 162 843 197 c 2
 846 216 l 2xe8
 854 261 851 289 844 307 c 0
 829 345 793 337 778 339 c 2
 730 339 l 1
 742 411 l 1
 772 414 782 414 793 417 c 0
 830 426 872 470 886 547 c 0
 890 572 892 596 883 611 c 0
 876 622 865 628 844 628 c 0xf0
 819 628 798 621 779 610 c 0
 759 599 740 584 726 571 c 0
 713 559 704 548 700 543 c 1
 660 619 l 1
 693 652 732 680 778 698 c 0
 803 710 831 717 861 717 c 0
 923 717 967 698 993 670 c 0
 1028 634 1028 583 1021 544 c 0xf0
 1013 501 993 468 970 443 c 0
 939 409 902 389 881 378 c 1
 900 373 947 361 975 319 c 0
 992 293 1001 256 992 203 c 0
 980 133 948 62 878 19 c 4
 838 -6 787 -22 730 -22 c 0
 698 -22 671 -16 644 -5 c 0
 606 9 574 30 546 58 c 1
137 574 m 1
 177 643 247 717 356 717 c 0
 486 717 549 603 529 487 c 0
 511 385 427 333 294 229 c 2
 159 106 l 1
 462 108 l 1
 443 0 l 1
 45 0 l 1
 63 100 l 1
 235 254 l 2
 279 297 373 378 392 485 c 0
 404 552 385 617 327 617 c 0
 263 617 220 551 191 486 c 1
 137 574 l 1
EndSplineSet
EndChar
StartChar: uF5085
Encoding: 1003653 1003653 177
Width: 1000
Flags: MW
LayerCount: 2
Fore
SplineSet
551 152 m 1
 568 247 l 1
 568 247 l 1
 865 695 l 1
 1013 695 l 1
 934 247 l 1
 1024 247 l 1
 1007 152 l 1
 917 152 l 1
 890 0 l 1
 767 0 l 1
 794 152 l 1
 551 152 l 1
673 247 m 1
 815 247 l 1
 875 592 l 1
 850 528 810 466 673 247 c 1
137 574 m 1
 177 643 247 717 356 717 c 0
 486 717 549 603 529 487 c 0
 511 385 427 333 294 229 c 2
 159 106 l 1
 462 108 l 1
 443 0 l 1
 45 0 l 1
 63 100 l 1
 235 254 l 2
 279 297 373 378 392 485 c 0
 404 552 385 617 327 617 c 0
 263 617 220 551 191 486 c 1
 137 574 l 1
EndSplineSet
EndChar
StartChar: uF5086
Encoding: 1003654 1003654 178
Width: 1000
Flags: MW
LayerCount: 2
Fore
SplineSet
543 82 m 1
 612 169 l 1
 616 159 620 150 625 140 c 0
 637 118 654 102 671 91 c 0
 689 78 711 72 731 72 c 0
 766 72 788 85 804 108 c 0
 823 135 832 175 840 220 c 2
 845 248 l 2
 852 288 857 329 849 354 c 0
 845 369 835 379 817 379 c 0
 759 379 724 296 723 296 c 2
 627 296 l 1
 698 695 l 1
 1035 695 l 1
 1017 594 l 1
 799 594 l 1
 771 435 l 1
 789 444 806 452 834 452 c 0
 880 452 926 438 956 406 c 4
 990 369 1004 309 988 219 c 0
 973 134 939 78 894 41 c 0
 838 -6 771 -22 717 -22 c 0
 684 -22 658 -14 635 -2 c 0
 580 22 553 62 543 82 c 1
137 574 m 1
 177 643 247 717 356 717 c 0
 486 717 549 603 529 487 c 0
 511 385 427 333 294 229 c 2
 159 106 l 1
 462 108 l 1
 443 0 l 1
 45 0 l 1
 63 100 l 1
 235 254 l 2
 279 297 373 378 392 485 c 0
 404 552 385 617 327 617 c 0
 263 617 220 551 191 486 c 1
 137 574 l 1
EndSplineSet
EndChar
StartChar: uF5087
Encoding: 1003655 1003655 179
Width: 1000
Flags: MW
LayerCount: 2
Fore
SplineSet
596 342 m 0
 624 501 668 566 703 608 c 0
 765 682 844 717 922 717 c 0
 954 717 978 712 1011 696 c 1
 995 604 l 1
 967 619 944 628 910 628 c 0
 852 628 816 590 802 568 c 0
 783 539 763 489 746 391 c 1
 772 441 813 493 872 493 c 0
 948 493 975 455 992 424 c 0
 1020 368 1014 314 1003 250 c 2
 1002 244 l 2
 992 189 981 127 936 71 c 0
 861 -20 784 -22 746 -22 c 0
 685 -22 642 5 615 46 c 0
 561 127 582 262 596 342 c 0
723 253 m 0
 722 245 719 237 718 229 c 4
 705 148 701 72 765 72 c 0
 816 72 837 117 848 170 c 0
 853 193 856 217 861 240 c 2
 867 274 l 2
 873 313 881 351 877 378 c 0
 873 403 860 420 828 420 c 0
 776 420 746 356 730 288 c 0
 727 276 725 265 723 253 c 0
137 574 m 1
 177 643 247 717 356 717 c 0
 486 717 549 603 529 487 c 0
 511 385 427 333 294 229 c 2
 159 106 l 1
 462 108 l 1
 443 0 l 1
 45 0 l 1
 63 100 l 1
 235 254 l 2
 279 297 373 378 392 485 c 0
 404 552 385 617 327 617 c 0
 263 617 220 551 191 486 c 1
 137 574 l 1
EndSplineSet
EndChar
StartChar: uF5088
Encoding: 1003656 1003656 180
Width: 1000
Flags: MW
LayerCount: 2
Fore
SplineSet
640 587 m 1
 659 695 l 1
 1097 695 l 1
 1079 594 l 1
 906 422 810 200 773 -11 c 1
 631 -11 l 1
 671 214 799 433 999 588 c 1
 640 587 l 1
137 574 m 1
 177 643 247 717 356 717 c 0
 486 717 549 603 529 487 c 0
 511 385 427 333 294 229 c 2
 159 106 l 1
 462 108 l 1
 443 0 l 1
 45 0 l 1
 63 100 l 1
 235 254 l 2
 279 297 373 378 392 485 c 0
 404 552 385 617 327 617 c 0
 263 617 220 551 191 486 c 1
 137 574 l 1
EndSplineSet
EndChar
StartChar: uF5089
Encoding: 1003657 1003657 181
Width: 1000
Flags: MW
LayerCount: 2
Fore
SplineSet
571 201 m 0xf2
 586 287 635 351 726 375 c 1
 706 384 622 406 643 523 c 0
 660 620 720 717 873 717 c 2
 874 717 l 2
 1027 717 1052 620 1035 522 c 0xec
 1012 394 902 379 900 375 c 1
 983 351 1008 287 993 201 c 0
 973 89 908 -22 743 -22 c 0
 578 -22 551 90 571 201 c 0xf2
710 190 m 2
 704 152 698 116 711 94 c 0
 719 81 733 73 759 73 c 0
 781 73 799 80 811 90 c 4
 843 116 847 166 854 198 c 2
 858 219 l 2xf2
 864 260 867 295 856 316 c 0
 849 331 833 339 807 339 c 0
 781 339 763 330 751 316 c 0
 724 287 720 239 714 213 c 2
 710 190 l 2
768 511 m 2xec
 762 475 761 449 770 432 c 0
 778 418 793 411 818 411 c 0
 844 411 863 419 875 432 c 0
 894 452 901 482 906 512 c 2
 909 530 l 2
 915 562 916 586 910 602 c 0
 903 620 888 628 859 628 c 0
 833 628 816 621 804 610 c 0
 782 590 777 557 771 529 c 2
 768 511 l 2xec
137 574 m 1
 177 643 247 717 356 717 c 0
 486 717 549 603 529 487 c 0
 511 385 427 333 294 229 c 2
 159 106 l 1
 462 108 l 1
 443 0 l 1
 45 0 l 1
 63 100 l 1
 235 254 l 2
 279 297 373 378 392 485 c 0
 404 552 385 617 327 617 c 0
 263 617 220 551 191 486 c 1
 137 574 l 1
EndSplineSet
EndChar
StartChar: uF508A
Encoding: 1003658 1003658 182
Width: 1000
Flags: MW
LayerCount: 2
Fore
SplineSet
607 443 m 0
 619 513 630 573 683 632 c 0
 728 682 780 717 878 717 c 0
 941 717 981 695 1008 662 c 0
 1071 585 1049 444 1034 359 c 0
 1016 255 984 124 888 45 c 0
 834 -3 763 -22 700 -22 c 0
 644 -22 608 -5 568 26 c 1
 630 110 l 1
 656 87 675 73 717 73 c 0
 763 73 807 96 832 131 c 0
 851 159 871 213 886 296 c 2
 888 305 l 1
 866 264 819 202 741 202 c 0
 663 202 633 241 618 273 c 0
 591 328 596 381 607 443 c 0
744 450 m 2
 726 335 728 318 739 298 c 0
 750 281 769 275 790 275 c 0
 813 275 845 284 871 324 c 0
 889 350 903 389 913 448 c 0
 927 525 944 628 861 628 c 0
 839 628 820 623 807 614 c 0
 764 586 760 522 750 482 c 2
 744 450 l 2
137 574 m 1
 177 643 247 717 356 717 c 0
 486 717 549 603 529 487 c 0
 511 385 427 333 294 229 c 2
 159 106 l 1
 462 108 l 1
 443 0 l 1
 45 0 l 1
 63 100 l 1
 235 254 l 2
 279 297 373 378 392 485 c 0
 404 552 385 617 327 617 c 0
 263 617 220 551 191 486 c 1
 137 574 l 1
EndSplineSet
EndChar
StartChar: uF508B
Encoding: 1003659 1003659 183
Width: 1000
Flags: MW
LayerCount: 2
Fore
SplineSet
595 344 m 0
 597 356 599 368 601 380 c 0
 626 509 669 664 804 706 c 0
 823 713 845 717 869 717 c 0
 915 717 963 700 997 654 c 0
 1054 576 1029 431 1017 362 c 2
 1015 352 l 2
 990 213 957 32 803 -12 c 4
 784 -18 762 -22 738 -22 c 0
 539 -22 566 180 595 344 c 0
729 352 m 0
 694 155 688 91 725 60 c 0
 732 55 741 50 752 50 c 0
 757 50 778 51 800 76 c 0
 841 120 852 200 882 357 c 0
 884 368 887 380 889 393 c 0
 902 468 915 559 907 595 c 0
 901 623 883 644 857 644 c 0
 782 644 758 516 737 396 c 0
 734 381 731 366 729 352 c 0
46 58 m 1
 80 151 l 1
 107 124 137 102 174 88 c 0
 194 79 217 73 243 73 c 0
 271 73 290 83 305 99 c 0
 327 124 337 162 343 197 c 2
 346 216 l 2xe8
 354 261 351 289 344 307 c 0
 329 345 293 337 278 339 c 2
 230 339 l 1
 242 411 l 1
 272 414 282 414 293 417 c 0
 330 426 372 470 386 547 c 0
 390 572 392 596 383 611 c 0
 376 622 365 628 344 628 c 0xf0
 319 628 298 621 279 610 c 0
 259 599 240 584 226 571 c 0
 213 559 204 548 200 543 c 1
 160 619 l 1
 193 652 232 680 278 698 c 0
 303 710 331 717 361 717 c 0
 423 717 467 698 493 670 c 0
 528 634 528 583 521 544 c 0xf0
 513 501 493 468 470 443 c 0
 439 409 402 389 381 378 c 1
 400 373 447 361 475 319 c 0
 492 293 501 256 492 203 c 0
 480 133 448 62 378 19 c 4
 338 -6 287 -22 230 -22 c 0
 198 -22 171 -16 144 -5 c 0
 106 9 74 30 46 58 c 1
EndSplineSet
EndChar
StartChar: uF508E
Encoding: 1003662 1003662 186
Width: 1000
Flags: MW
LayerCount: 2
Fore
SplineSet
546 58 m 1
 580 151 l 1
 607 124 637 102 674 88 c 0
 694 79 717 73 743 73 c 0
 771 73 790 83 805 99 c 0
 827 124 837 162 843 197 c 2
 846 216 l 2xe8
 854 261 851 289 844 307 c 0
 829 345 793 337 778 339 c 2
 730 339 l 1
 742 411 l 1
 772 414 782 414 793 417 c 0
 830 426 872 470 886 547 c 0
 890 572 892 596 883 611 c 0
 876 622 865 628 844 628 c 0xf0
 819 628 798 621 779 610 c 0
 759 599 740 584 726 571 c 0
 713 559 704 548 700 543 c 1
 660 619 l 1
 693 652 732 680 778 698 c 0
 803 710 831 717 861 717 c 0
 923 717 967 698 993 670 c 0
 1028 634 1028 583 1021 544 c 0xf0
 1013 501 993 468 970 443 c 0
 939 409 902 389 881 378 c 1
 900 373 947 361 975 319 c 0
 992 293 1001 256 992 203 c 0
 980 133 948 62 878 19 c 4
 838 -6 787 -22 730 -22 c 0
 698 -22 671 -16 644 -5 c 0
 606 9 574 30 546 58 c 1
46 58 m 1
 80 151 l 1
 107 124 137 102 174 88 c 0
 194 79 217 73 243 73 c 0
 271 73 290 83 305 99 c 0
 327 124 337 162 343 197 c 2
 346 216 l 2xe8
 354 261 351 289 344 307 c 0
 329 345 293 337 278 339 c 2
 230 339 l 1
 242 411 l 1
 272 414 282 414 293 417 c 0
 330 426 372 470 386 547 c 0
 390 572 392 596 383 611 c 0
 376 622 365 628 344 628 c 0xf0
 319 628 298 621 279 610 c 0
 259 599 240 584 226 571 c 0
 213 559 204 548 200 543 c 1
 160 619 l 1
 193 652 232 680 278 698 c 0
 303 710 331 717 361 717 c 0
 423 717 467 698 493 670 c 0
 528 634 528 583 521 544 c 0xf0
 513 501 493 468 470 443 c 0
 439 409 402 389 381 378 c 1
 400 373 447 361 475 319 c 0
 492 293 501 256 492 203 c 0
 480 133 448 62 378 19 c 4
 338 -6 287 -22 230 -22 c 0
 198 -22 171 -16 144 -5 c 0
 106 9 74 30 46 58 c 1
EndSplineSet
EndChar
StartChar: uF5090
Encoding: 1003664 1003664 188
Width: 1000
Flags: MW
LayerCount: 2
Fore
SplineSet
543 82 m 1
 612 169 l 1
 616 159 620 150 625 140 c 0
 637 118 654 102 671 91 c 0
 689 78 711 72 731 72 c 0
 766 72 788 85 804 108 c 0
 823 135 832 175 840 220 c 2
 845 248 l 2
 852 288 857 329 849 354 c 0
 845 369 835 379 817 379 c 0
 759 379 724 296 723 296 c 2
 627 296 l 1
 698 695 l 1
 1035 695 l 1
 1017 594 l 1
 799 594 l 1
 771 435 l 1
 789 444 806 452 834 452 c 0
 880 452 926 438 956 406 c 4
 990 369 1004 309 988 219 c 0
 973 134 939 78 894 41 c 0
 838 -6 771 -22 717 -22 c 0
 684 -22 658 -14 635 -2 c 0
 580 22 553 62 543 82 c 1
46 58 m 1
 80 151 l 1
 107 124 137 102 174 88 c 0
 194 79 217 73 243 73 c 0
 271 73 290 83 305 99 c 0
 327 124 337 162 343 197 c 2
 346 216 l 2xe8
 354 261 351 289 344 307 c 0
 329 345 293 337 278 339 c 2
 230 339 l 1
 242 411 l 1
 272 414 282 414 293 417 c 0
 330 426 372 470 386 547 c 0
 390 572 392 596 383 611 c 0
 376 622 365 628 344 628 c 0xf0
 319 628 298 621 279 610 c 0
 259 599 240 584 226 571 c 0
 213 559 204 548 200 543 c 1
 160 619 l 1
 193 652 232 680 278 698 c 0
 303 710 331 717 361 717 c 0
 423 717 467 698 493 670 c 0
 528 634 528 583 521 544 c 0xf0
 513 501 493 468 470 443 c 0
 439 409 402 389 381 378 c 1
 400 373 447 361 475 319 c 0
 492 293 501 256 492 203 c 0
 480 133 448 62 378 19 c 4
 338 -6 287 -22 230 -22 c 0
 198 -22 171 -16 144 -5 c 0
 106 9 74 30 46 58 c 1
EndSplineSet
EndChar
StartChar: uF5092
Encoding: 1003666 1003666 190
Width: 1000
Flags: MW
LayerCount: 2
Fore
SplineSet
640 587 m 1
 659 695 l 1
 1097 695 l 1
 1079 594 l 1
 906 422 810 200 773 -11 c 1
 631 -11 l 1
 671 214 799 433 999 588 c 1
 640 587 l 1
46 58 m 1
 80 151 l 1
 107 124 137 102 174 88 c 0
 194 79 217 73 243 73 c 0
 271 73 290 83 305 99 c 0
 327 124 337 162 343 197 c 2
 346 216 l 2xe8
 354 261 351 289 344 307 c 0
 329 345 293 337 278 339 c 2
 230 339 l 1
 242 411 l 1
 272 414 282 414 293 417 c 0
 330 426 372 470 386 547 c 0
 390 572 392 596 383 611 c 0
 376 622 365 628 344 628 c 0xf0
 319 628 298 621 279 610 c 0
 259 599 240 584 226 571 c 0
 213 559 204 548 200 543 c 1
 160 619 l 1
 193 652 232 680 278 698 c 0
 303 710 331 717 361 717 c 0
 423 717 467 698 493 670 c 0
 528 634 528 583 521 544 c 0xf0
 513 501 493 468 470 443 c 0
 439 409 402 389 381 378 c 1
 400 373 447 361 475 319 c 0
 492 293 501 256 492 203 c 0
 480 133 448 62 378 19 c 4
 338 -6 287 -22 230 -22 c 0
 198 -22 171 -16 144 -5 c 0
 106 9 74 30 46 58 c 1
EndSplineSet
EndChar
StartChar: uF5093
Encoding: 1003667 1003667 191
Width: 1000
Flags: MW
LayerCount: 2
Fore
SplineSet
571 201 m 0xf2
 586 287 635 351 726 375 c 1
 706 384 622 406 643 523 c 0
 660 620 720 717 873 717 c 2
 874 717 l 2
 1027 717 1052 620 1035 522 c 0xec
 1012 394 902 379 900 375 c 1
 983 351 1008 287 993 201 c 0
 973 89 908 -22 743 -22 c 0
 578 -22 551 90 571 201 c 0xf2
710 190 m 2
 704 152 698 116 711 94 c 0
 719 81 733 73 759 73 c 0
 781 73 799 80 811 90 c 4
 843 116 847 166 854 198 c 2
 858 219 l 2xf2
 864 260 867 295 856 316 c 0
 849 331 833 339 807 339 c 0
 781 339 763 330 751 316 c 0
 724 287 720 239 714 213 c 2
 710 190 l 2
768 511 m 2xec
 762 475 761 449 770 432 c 0
 778 418 793 411 818 411 c 0
 844 411 863 419 875 432 c 0
 894 452 901 482 906 512 c 2
 909 530 l 2
 915 562 916 586 910 602 c 0
 903 620 888 628 859 628 c 0
 833 628 816 621 804 610 c 0
 782 590 777 557 771 529 c 2
 768 511 l 2xec
46 58 m 1
 80 151 l 1
 107 124 137 102 174 88 c 0
 194 79 217 73 243 73 c 0
 271 73 290 83 305 99 c 0
 327 124 337 162 343 197 c 2
 346 216 l 2xe8
 354 261 351 289 344 307 c 0
 329 345 293 337 278 339 c 2
 230 339 l 1
 242 411 l 1
 272 414 282 414 293 417 c 0
 330 426 372 470 386 547 c 0
 390 572 392 596 383 611 c 0
 376 622 365 628 344 628 c 0xf0
 319 628 298 621 279 610 c 0
 259 599 240 584 226 571 c 0
 213 559 204 548 200 543 c 1
 160 619 l 1
 193 652 232 680 278 698 c 0
 303 710 331 717 361 717 c 0
 423 717 467 698 493 670 c 0
 528 634 528 583 521 544 c 0xf0
 513 501 493 468 470 443 c 0
 439 409 402 389 381 378 c 1
 400 373 447 361 475 319 c 0
 492 293 501 256 492 203 c 0
 480 133 448 62 378 19 c 4
 338 -6 287 -22 230 -22 c 0
 198 -22 171 -16 144 -5 c 0
 106 9 74 30 46 58 c 1
EndSplineSet
EndChar
StartChar: uF5094
Encoding: 1003668 1003668 192
Width: 1000
Flags: MW
LayerCount: 2
Fore
SplineSet
607 443 m 0
 619 513 630 573 683 632 c 0
 728 682 780 717 878 717 c 0
 941 717 981 695 1008 662 c 0
 1071 585 1049 444 1034 359 c 0
 1016 255 984 124 888 45 c 0
 834 -3 763 -22 700 -22 c 0
 644 -22 608 -5 568 26 c 1
 630 110 l 1
 656 87 675 73 717 73 c 0
 763 73 807 96 832 131 c 0
 851 159 871 213 886 296 c 2
 888 305 l 1
 866 264 819 202 741 202 c 0
 663 202 633 241 618 273 c 0
 591 328 596 381 607 443 c 0
744 450 m 2
 726 335 728 318 739 298 c 0
 750 281 769 275 790 275 c 0
 813 275 845 284 871 324 c 0
 889 350 903 389 913 448 c 0
 927 525 944 628 861 628 c 0
 839 628 820 623 807 614 c 0
 764 586 760 522 750 482 c 2
 744 450 l 2
46 58 m 1
 80 151 l 1
 107 124 137 102 174 88 c 0
 194 79 217 73 243 73 c 0
 271 73 290 83 305 99 c 0
 327 124 337 162 343 197 c 2
 346 216 l 2xe8
 354 261 351 289 344 307 c 0
 329 345 293 337 278 339 c 2
 230 339 l 1
 242 411 l 1
 272 414 282 414 293 417 c 0
 330 426 372 470 386 547 c 0
 390 572 392 596 383 611 c 0
 376 622 365 628 344 628 c 0xf0
 319 628 298 621 279 610 c 0
 259 599 240 584 226 571 c 0
 213 559 204 548 200 543 c 1
 160 619 l 1
 193 652 232 680 278 698 c 0
 303 710 331 717 361 717 c 0
 423 717 467 698 493 670 c 0
 528 634 528 583 521 544 c 0xf0
 513 501 493 468 470 443 c 0
 439 409 402 389 381 378 c 1
 400 373 447 361 475 319 c 0
 492 293 501 256 492 203 c 0
 480 133 448 62 378 19 c 4
 338 -6 287 -22 230 -22 c 0
 198 -22 171 -16 144 -5 c 0
 106 9 74 30 46 58 c 1
EndSplineSet
EndChar
StartChar: uF5096
Encoding: 1003670 1003670 194
Width: 1000
Flags: MW
LayerCount: 2
Fore
SplineSet
662 575 m 1
 675 648 l 1
 791 648 863 670 927 717 c 1
 962 717 l 1
 849 73 l 1
 967 73 l 1
 954 0 l 1
 576 0 l 1
 589 73 l 1
 711 73 l 1
 802 591 l 1
 758 579 710 575 662 575 c 1
51 152 m 1
 68 247 l 1
 68 247 l 1
 365 695 l 1
 513 695 l 1
 434 247 l 1
 524 247 l 1
 507 152 l 1
 417 152 l 1
 390 0 l 1
 267 0 l 1
 294 152 l 1
 51 152 l 1
173 247 m 1
 315 247 l 1
 375 592 l 1
 350 528 310 466 173 247 c 1
EndSplineSet
EndChar
StartChar: uF5097
Encoding: 1003671 1003671 195
Width: 1000
Flags: MW
LayerCount: 2
Fore
SplineSet
637 574 m 1
 677 643 747 717 856 717 c 0
 986 717 1049 603 1029 487 c 0
 1011 385 927 333 794 229 c 2
 659 106 l 1
 962 108 l 1
 943 0 l 1
 545 0 l 1
 563 100 l 1
 735 254 l 2
 779 297 873 378 892 485 c 0
 904 552 885 617 827 617 c 0
 763 617 720 551 691 486 c 1
 637 574 l 1
51 152 m 1
 68 247 l 1
 68 247 l 1
 365 695 l 1
 513 695 l 1
 434 247 l 1
 524 247 l 1
 507 152 l 1
 417 152 l 1
 390 0 l 1
 267 0 l 1
 294 152 l 1
 51 152 l 1
173 247 m 1
 315 247 l 1
 375 592 l 1
 350 528 310 466 173 247 c 1
EndSplineSet
EndChar
StartChar: uF5099
Encoding: 1003673 1003673 197
Width: 1000
Flags: MW
LayerCount: 2
Fore
SplineSet
551 152 m 1
 568 247 l 1
 568 247 l 1
 865 695 l 1
 1013 695 l 1
 934 247 l 1
 1024 247 l 1
 1007 152 l 1
 917 152 l 1
 890 0 l 1
 767 0 l 1
 794 152 l 1
 551 152 l 1
673 247 m 1
 815 247 l 1
 875 592 l 1
 850 528 810 466 673 247 c 1
51 152 m 1
 68 247 l 1
 68 247 l 1
 365 695 l 1
 513 695 l 1
 434 247 l 1
 524 247 l 1
 507 152 l 1
 417 152 l 1
 390 0 l 1
 267 0 l 1
 294 152 l 1
 51 152 l 1
173 247 m 1
 315 247 l 1
 375 592 l 1
 350 528 310 466 173 247 c 1
EndSplineSet
EndChar
StartChar: uF509A
Encoding: 1003674 1003674 198
Width: 1000
Flags: MW
LayerCount: 2
Fore
SplineSet
543 82 m 1
 612 169 l 1
 616 159 620 150 625 140 c 0
 637 118 654 102 671 91 c 0
 689 78 711 72 731 72 c 0
 766 72 788 85 804 108 c 0
 823 135 832 175 840 220 c 2
 845 248 l 2
 852 288 857 329 849 354 c 0
 845 369 835 379 817 379 c 0
 759 379 724 296 723 296 c 2
 627 296 l 1
 698 695 l 1
 1035 695 l 1
 1017 594 l 1
 799 594 l 1
 771 435 l 1
 789 444 806 452 834 452 c 0
 880 452 926 438 956 406 c 4
 990 369 1004 309 988 219 c 0
 973 134 939 78 894 41 c 0
 838 -6 771 -22 717 -22 c 0
 684 -22 658 -14 635 -2 c 0
 580 22 553 62 543 82 c 1
51 152 m 1
 68 247 l 1
 68 247 l 1
 365 695 l 1
 513 695 l 1
 434 247 l 1
 524 247 l 1
 507 152 l 1
 417 152 l 1
 390 0 l 1
 267 0 l 1
 294 152 l 1
 51 152 l 1
173 247 m 1
 315 247 l 1
 375 592 l 1
 350 528 310 466 173 247 c 1
EndSplineSet
EndChar
StartChar: uF509C
Encoding: 1003676 1003676 200
Width: 1000
Flags: MW
LayerCount: 2
Fore
SplineSet
640 587 m 1
 659 695 l 1
 1097 695 l 1
 1079 594 l 1
 906 422 810 200 773 -11 c 1
 631 -11 l 1
 671 214 799 433 999 588 c 1
 640 587 l 1
51 152 m 1
 68 247 l 1
 68 247 l 1
 365 695 l 1
 513 695 l 1
 434 247 l 1
 524 247 l 1
 507 152 l 1
 417 152 l 1
 390 0 l 1
 267 0 l 1
 294 152 l 1
 51 152 l 1
173 247 m 1
 315 247 l 1
 375 592 l 1
 350 528 310 466 173 247 c 1
EndSplineSet
EndChar
StartChar: uF509D
Encoding: 1003677 1003677 201
Width: 1000
Flags: MW
LayerCount: 2
Fore
SplineSet
571 201 m 0xf2
 586 287 635 351 726 375 c 1
 706 384 622 406 643 523 c 0
 660 620 720 717 873 717 c 2
 874 717 l 2
 1027 717 1052 620 1035 522 c 0xec
 1012 394 902 379 900 375 c 1
 983 351 1008 287 993 201 c 0
 973 89 908 -22 743 -22 c 0
 578 -22 551 90 571 201 c 0xf2
710 190 m 2
 704 152 698 116 711 94 c 0
 719 81 733 73 759 73 c 0
 781 73 799 80 811 90 c 4
 843 116 847 166 854 198 c 2
 858 219 l 2xf2
 864 260 867 295 856 316 c 0
 849 331 833 339 807 339 c 0
 781 339 763 330 751 316 c 0
 724 287 720 239 714 213 c 2
 710 190 l 2
768 511 m 2xec
 762 475 761 449 770 432 c 0
 778 418 793 411 818 411 c 0
 844 411 863 419 875 432 c 0
 894 452 901 482 906 512 c 2
 909 530 l 2
 915 562 916 586 910 602 c 0
 903 620 888 628 859 628 c 0
 833 628 816 621 804 610 c 0
 782 590 777 557 771 529 c 2
 768 511 l 2xec
51 152 m 1
 68 247 l 1
 68 247 l 1
 365 695 l 1
 513 695 l 1
 434 247 l 1
 524 247 l 1
 507 152 l 1
 417 152 l 1
 390 0 l 1
 267 0 l 1
 294 152 l 1
 51 152 l 1
173 247 m 1
 315 247 l 1
 375 592 l 1
 350 528 310 466 173 247 c 1
EndSplineSet
EndChar
StartChar: uF509E
Encoding: 1003678 1003678 202
Width: 1000
Flags: MW
LayerCount: 2
Fore
SplineSet
607 443 m 0
 619 513 630 573 683 632 c 0
 728 682 780 717 878 717 c 0
 941 717 981 695 1008 662 c 0
 1071 585 1049 444 1034 359 c 0
 1016 255 984 124 888 45 c 0
 834 -3 763 -22 700 -22 c 0
 644 -22 608 -5 568 26 c 1
 630 110 l 1
 656 87 675 73 717 73 c 0
 763 73 807 96 832 131 c 0
 851 159 871 213 886 296 c 2
 888 305 l 1
 866 264 819 202 741 202 c 0
 663 202 633 241 618 273 c 0
 591 328 596 381 607 443 c 0
744 450 m 2
 726 335 728 318 739 298 c 0
 750 281 769 275 790 275 c 0
 813 275 845 284 871 324 c 0
 889 350 903 389 913 448 c 0
 927 525 944 628 861 628 c 0
 839 628 820 623 807 614 c 0
 764 586 760 522 750 482 c 2
 744 450 l 2
51 152 m 1
 68 247 l 1
 68 247 l 1
 365 695 l 1
 513 695 l 1
 434 247 l 1
 524 247 l 1
 507 152 l 1
 417 152 l 1
 390 0 l 1
 267 0 l 1
 294 152 l 1
 51 152 l 1
173 247 m 1
 315 247 l 1
 375 592 l 1
 350 528 310 466 173 247 c 1
EndSplineSet
EndChar
StartChar: uF509F
Encoding: 1003679 1003679 203
Width: 1000
Flags: MW
LayerCount: 2
Fore
SplineSet
595 344 m 0
 597 356 599 368 601 380 c 0
 626 509 669 664 804 706 c 0
 823 713 845 717 869 717 c 0
 915 717 963 700 997 654 c 0
 1054 576 1029 431 1017 362 c 2
 1015 352 l 2
 990 213 957 32 803 -12 c 4
 784 -18 762 -22 738 -22 c 0
 539 -22 566 180 595 344 c 0
729 352 m 0
 694 155 688 91 725 60 c 0
 732 55 741 50 752 50 c 0
 757 50 778 51 800 76 c 0
 841 120 852 200 882 357 c 0
 884 368 887 380 889 393 c 0
 902 468 915 559 907 595 c 0
 901 623 883 644 857 644 c 0
 782 644 758 516 737 396 c 0
 734 381 731 366 729 352 c 0
43 82 m 1
 112 169 l 1
 116 159 120 150 125 140 c 0
 137 118 154 102 171 91 c 0
 189 78 211 72 231 72 c 0
 266 72 288 85 304 108 c 0
 323 135 332 175 340 220 c 2
 345 248 l 2
 352 288 357 329 349 354 c 0
 345 369 335 379 317 379 c 0
 259 379 224 296 223 296 c 2
 127 296 l 1
 198 695 l 1
 535 695 l 1
 517 594 l 1
 299 594 l 1
 271 435 l 1
 289 444 306 452 334 452 c 0
 380 452 426 438 456 406 c 4
 490 369 504 309 488 219 c 0
 473 134 439 78 394 41 c 0
 338 -6 271 -22 217 -22 c 0
 184 -22 158 -14 135 -2 c 0
 80 22 53 62 43 82 c 1
EndSplineSet
EndChar
StartChar: uF50A0
Encoding: 1003680 1003680 204
Width: 1000
Flags: MW
LayerCount: 2
Fore
SplineSet
662 575 m 1
 675 648 l 1
 791 648 863 670 927 717 c 1
 962 717 l 1
 849 73 l 1
 967 73 l 1
 954 0 l 1
 576 0 l 1
 589 73 l 1
 711 73 l 1
 802 591 l 1
 758 579 710 575 662 575 c 1
43 82 m 1
 112 169 l 1
 116 159 120 150 125 140 c 0
 137 118 154 102 171 91 c 0
 189 78 211 72 231 72 c 0
 266 72 288 85 304 108 c 0
 323 135 332 175 340 220 c 2
 345 248 l 2
 352 288 357 329 349 354 c 0
 345 369 335 379 317 379 c 0
 259 379 224 296 223 296 c 2
 127 296 l 1
 198 695 l 1
 535 695 l 1
 517 594 l 1
 299 594 l 1
 271 435 l 1
 289 444 306 452 334 452 c 0
 380 452 426 438 456 406 c 4
 490 369 504 309 488 219 c 0
 473 134 439 78 394 41 c 0
 338 -6 271 -22 217 -22 c 0
 184 -22 158 -14 135 -2 c 0
 80 22 53 62 43 82 c 1
EndSplineSet
EndChar
StartChar: uF50A1
Encoding: 1003681 1003681 205
Width: 1000
Flags: MW
LayerCount: 2
Fore
SplineSet
637 574 m 1
 677 643 747 717 856 717 c 0
 986 717 1049 603 1029 487 c 0
 1011 385 927 333 794 229 c 2
 659 106 l 1
 962 108 l 1
 943 0 l 1
 545 0 l 1
 563 100 l 1
 735 254 l 2
 779 297 873 378 892 485 c 0
 904 552 885 617 827 617 c 0
 763 617 720 551 691 486 c 1
 637 574 l 1
43 82 m 1
 112 169 l 1
 116 159 120 150 125 140 c 0
 137 118 154 102 171 91 c 0
 189 78 211 72 231 72 c 0
 266 72 288 85 304 108 c 0
 323 135 332 175 340 220 c 2
 345 248 l 2
 352 288 357 329 349 354 c 0
 345 369 335 379 317 379 c 0
 259 379 224 296 223 296 c 2
 127 296 l 1
 198 695 l 1
 535 695 l 1
 517 594 l 1
 299 594 l 1
 271 435 l 1
 289 444 306 452 334 452 c 0
 380 452 426 438 456 406 c 4
 490 369 504 309 488 219 c 0
 473 134 439 78 394 41 c 0
 338 -6 271 -22 217 -22 c 0
 184 -22 158 -14 135 -2 c 0
 80 22 53 62 43 82 c 1
EndSplineSet
EndChar
StartChar: uF50A2
Encoding: 1003682 1003682 206
Width: 1000
Flags: MW
LayerCount: 2
Fore
SplineSet
546 58 m 1
 580 151 l 1
 607 124 637 102 674 88 c 0
 694 79 717 73 743 73 c 0
 771 73 790 83 805 99 c 0
 827 124 837 162 843 197 c 2
 846 216 l 2xe8
 854 261 851 289 844 307 c 0
 829 345 793 337 778 339 c 2
 730 339 l 1
 742 411 l 1
 772 414 782 414 793 417 c 0
 830 426 872 470 886 547 c 0
 890 572 892 596 883 611 c 0
 876 622 865 628 844 628 c 0xf0
 819 628 798 621 779 610 c 0
 759 599 740 584 726 571 c 0
 713 559 704 548 700 543 c 1
 660 619 l 1
 693 652 732 680 778 698 c 0
 803 710 831 717 861 717 c 0
 923 717 967 698 993 670 c 0
 1028 634 1028 583 1021 544 c 0xf0
 1013 501 993 468 970 443 c 0
 939 409 902 389 881 378 c 1
 900 373 947 361 975 319 c 0
 992 293 1001 256 992 203 c 0
 980 133 948 62 878 19 c 4
 838 -6 787 -22 730 -22 c 0
 698 -22 671 -16 644 -5 c 0
 606 9 574 30 546 58 c 1
43 82 m 1
 112 169 l 1
 116 159 120 150 125 140 c 0
 137 118 154 102 171 91 c 0
 189 78 211 72 231 72 c 0
 266 72 288 85 304 108 c 0
 323 135 332 175 340 220 c 2
 345 248 l 2
 352 288 357 329 349 354 c 0
 345 369 335 379 317 379 c 0
 259 379 224 296 223 296 c 2
 127 296 l 1
 198 695 l 1
 535 695 l 1
 517 594 l 1
 299 594 l 1
 271 435 l 1
 289 444 306 452 334 452 c 0
 380 452 426 438 456 406 c 4
 490 369 504 309 488 219 c 0
 473 134 439 78 394 41 c 0
 338 -6 271 -22 217 -22 c 0
 184 -22 158 -14 135 -2 c 0
 80 22 53 62 43 82 c 1
EndSplineSet
EndChar
StartChar: uF50A3
Encoding: 1003683 1003683 207
Width: 1000
Flags: MW
LayerCount: 2
Fore
SplineSet
551 152 m 1
 568 247 l 1
 568 247 l 1
 865 695 l 1
 1013 695 l 1
 934 247 l 1
 1024 247 l 1
 1007 152 l 1
 917 152 l 1
 890 0 l 1
 767 0 l 1
 794 152 l 1
 551 152 l 1
673 247 m 1
 815 247 l 1
 875 592 l 1
 850 528 810 466 673 247 c 1
43 82 m 1
 112 169 l 1
 116 159 120 150 125 140 c 0
 137 118 154 102 171 91 c 0
 189 78 211 72 231 72 c 0
 266 72 288 85 304 108 c 0
 323 135 332 175 340 220 c 2
 345 248 l 2
 352 288 357 329 349 354 c 0
 345 369 335 379 317 379 c 0
 259 379 224 296 223 296 c 2
 127 296 l 1
 198 695 l 1
 535 695 l 1
 517 594 l 1
 299 594 l 1
 271 435 l 1
 289 444 306 452 334 452 c 0
 380 452 426 438 456 406 c 4
 490 369 504 309 488 219 c 0
 473 134 439 78 394 41 c 0
 338 -6 271 -22 217 -22 c 0
 184 -22 158 -14 135 -2 c 0
 80 22 53 62 43 82 c 1
EndSplineSet
EndChar
StartChar: uF50A4
Encoding: 1003684 1003684 208
Width: 1000
Flags: MW
LayerCount: 2
Fore
SplineSet
543 82 m 1
 612 169 l 1
 616 159 620 150 625 140 c 0
 637 118 654 102 671 91 c 0
 689 78 711 72 731 72 c 0
 766 72 788 85 804 108 c 0
 823 135 832 175 840 220 c 2
 845 248 l 2
 852 288 857 329 849 354 c 0
 845 369 835 379 817 379 c 0
 759 379 724 296 723 296 c 2
 627 296 l 1
 698 695 l 1
 1035 695 l 1
 1017 594 l 1
 799 594 l 1
 771 435 l 1
 789 444 806 452 834 452 c 0
 880 452 926 438 956 406 c 4
 990 369 1004 309 988 219 c 0
 973 134 939 78 894 41 c 0
 838 -6 771 -22 717 -22 c 0
 684 -22 658 -14 635 -2 c 0
 580 22 553 62 543 82 c 1
43 82 m 1
 112 169 l 1
 116 159 120 150 125 140 c 0
 137 118 154 102 171 91 c 0
 189 78 211 72 231 72 c 0
 266 72 288 85 304 108 c 0
 323 135 332 175 340 220 c 2
 345 248 l 2
 352 288 357 329 349 354 c 0
 345 369 335 379 317 379 c 0
 259 379 224 296 223 296 c 2
 127 296 l 1
 198 695 l 1
 535 695 l 1
 517 594 l 1
 299 594 l 1
 271 435 l 1
 289 444 306 452 334 452 c 0
 380 452 426 438 456 406 c 4
 490 369 504 309 488 219 c 0
 473 134 439 78 394 41 c 0
 338 -6 271 -22 217 -22 c 0
 184 -22 158 -14 135 -2 c 0
 80 22 53 62 43 82 c 1
EndSplineSet
EndChar
StartChar: uF50A5
Encoding: 1003685 1003685 209
Width: 1000
Flags: MW
LayerCount: 2
Fore
SplineSet
596 342 m 0
 624 501 668 566 703 608 c 0
 765 682 844 717 922 717 c 0
 954 717 978 712 1011 696 c 1
 995 604 l 1
 967 619 944 628 910 628 c 0
 852 628 816 590 802 568 c 0
 783 539 763 489 746 391 c 1
 772 441 813 493 872 493 c 0
 948 493 975 455 992 424 c 0
 1020 368 1014 314 1003 250 c 2
 1002 244 l 2
 992 189 981 127 936 71 c 0
 861 -20 784 -22 746 -22 c 0
 685 -22 642 5 615 46 c 0
 561 127 582 262 596 342 c 0
723 253 m 0
 722 245 719 237 718 229 c 4
 705 148 701 72 765 72 c 0
 816 72 837 117 848 170 c 0
 853 193 856 217 861 240 c 2
 867 274 l 2
 873 313 881 351 877 378 c 0
 873 403 860 420 828 420 c 0
 776 420 746 356 730 288 c 0
 727 276 725 265 723 253 c 0
43 82 m 1
 112 169 l 1
 116 159 120 150 125 140 c 0
 137 118 154 102 171 91 c 0
 189 78 211 72 231 72 c 0
 266 72 288 85 304 108 c 0
 323 135 332 175 340 220 c 2
 345 248 l 2
 352 288 357 329 349 354 c 0
 345 369 335 379 317 379 c 0
 259 379 224 296 223 296 c 2
 127 296 l 1
 198 695 l 1
 535 695 l 1
 517 594 l 1
 299 594 l 1
 271 435 l 1
 289 444 306 452 334 452 c 0
 380 452 426 438 456 406 c 4
 490 369 504 309 488 219 c 0
 473 134 439 78 394 41 c 0
 338 -6 271 -22 217 -22 c 0
 184 -22 158 -14 135 -2 c 0
 80 22 53 62 43 82 c 1
EndSplineSet
EndChar
StartChar: uF50A6
Encoding: 1003686 1003686 210
Width: 1000
Flags: MW
LayerCount: 2
Fore
SplineSet
640 587 m 1
 659 695 l 1
 1097 695 l 1
 1079 594 l 1
 906 422 810 200 773 -11 c 1
 631 -11 l 1
 671 214 799 433 999 588 c 1
 640 587 l 1
43 82 m 1
 112 169 l 1
 116 159 120 150 125 140 c 0
 137 118 154 102 171 91 c 0
 189 78 211 72 231 72 c 0
 266 72 288 85 304 108 c 0
 323 135 332 175 340 220 c 2
 345 248 l 2
 352 288 357 329 349 354 c 0
 345 369 335 379 317 379 c 0
 259 379 224 296 223 296 c 2
 127 296 l 1
 198 695 l 1
 535 695 l 1
 517 594 l 1
 299 594 l 1
 271 435 l 1
 289 444 306 452 334 452 c 0
 380 452 426 438 456 406 c 4
 490 369 504 309 488 219 c 0
 473 134 439 78 394 41 c 0
 338 -6 271 -22 217 -22 c 0
 184 -22 158 -14 135 -2 c 0
 80 22 53 62 43 82 c 1
EndSplineSet
EndChar
StartChar: uF50A7
Encoding: 1003687 1003687 211
Width: 1000
Flags: MW
LayerCount: 2
Fore
SplineSet
571 201 m 0xf2
 586 287 635 351 726 375 c 1
 706 384 622 406 643 523 c 0
 660 620 720 717 873 717 c 2
 874 717 l 2
 1027 717 1052 620 1035 522 c 0xec
 1012 394 902 379 900 375 c 1
 983 351 1008 287 993 201 c 0
 973 89 908 -22 743 -22 c 0
 578 -22 551 90 571 201 c 0xf2
710 190 m 2
 704 152 698 116 711 94 c 0
 719 81 733 73 759 73 c 0
 781 73 799 80 811 90 c 4
 843 116 847 166 854 198 c 2
 858 219 l 2xf2
 864 260 867 295 856 316 c 0
 849 331 833 339 807 339 c 0
 781 339 763 330 751 316 c 0
 724 287 720 239 714 213 c 2
 710 190 l 2
768 511 m 2xec
 762 475 761 449 770 432 c 0
 778 418 793 411 818 411 c 0
 844 411 863 419 875 432 c 0
 894 452 901 482 906 512 c 2
 909 530 l 2
 915 562 916 586 910 602 c 0
 903 620 888 628 859 628 c 0
 833 628 816 621 804 610 c 0
 782 590 777 557 771 529 c 2
 768 511 l 2xec
43 82 m 1
 112 169 l 1
 116 159 120 150 125 140 c 0
 137 118 154 102 171 91 c 0
 189 78 211 72 231 72 c 0
 266 72 288 85 304 108 c 0
 323 135 332 175 340 220 c 2
 345 248 l 2
 352 288 357 329 349 354 c 0
 345 369 335 379 317 379 c 0
 259 379 224 296 223 296 c 2
 127 296 l 1
 198 695 l 1
 535 695 l 1
 517 594 l 1
 299 594 l 1
 271 435 l 1
 289 444 306 452 334 452 c 0
 380 452 426 438 456 406 c 4
 490 369 504 309 488 219 c 0
 473 134 439 78 394 41 c 0
 338 -6 271 -22 217 -22 c 0
 184 -22 158 -14 135 -2 c 0
 80 22 53 62 43 82 c 1
EndSplineSet
EndChar
StartChar: uF50A8
Encoding: 1003688 1003688 212
Width: 1000
Flags: MW
LayerCount: 2
Fore
SplineSet
607 443 m 0
 619 513 630 573 683 632 c 0
 728 682 780 717 878 717 c 0
 941 717 981 695 1008 662 c 0
 1071 585 1049 444 1034 359 c 0
 1016 255 984 124 888 45 c 0
 834 -3 763 -22 700 -22 c 0
 644 -22 608 -5 568 26 c 1
 630 110 l 1
 656 87 675 73 717 73 c 0
 763 73 807 96 832 131 c 0
 851 159 871 213 886 296 c 2
 888 305 l 1
 866 264 819 202 741 202 c 0
 663 202 633 241 618 273 c 0
 591 328 596 381 607 443 c 0
744 450 m 2
 726 335 728 318 739 298 c 0
 750 281 769 275 790 275 c 0
 813 275 845 284 871 324 c 0
 889 350 903 389 913 448 c 0
 927 525 944 628 861 628 c 0
 839 628 820 623 807 614 c 0
 764 586 760 522 750 482 c 2
 744 450 l 2
43 82 m 1
 112 169 l 1
 116 159 120 150 125 140 c 0
 137 118 154 102 171 91 c 0
 189 78 211 72 231 72 c 0
 266 72 288 85 304 108 c 0
 323 135 332 175 340 220 c 2
 345 248 l 2
 352 288 357 329 349 354 c 0
 345 369 335 379 317 379 c 0
 259 379 224 296 223 296 c 2
 127 296 l 1
 198 695 l 1
 535 695 l 1
 517 594 l 1
 299 594 l 1
 271 435 l 1
 289 444 306 452 334 452 c 0
 380 452 426 438 456 406 c 4
 490 369 504 309 488 219 c 0
 473 134 439 78 394 41 c 0
 338 -6 271 -22 217 -22 c 0
 184 -22 158 -14 135 -2 c 0
 80 22 53 62 43 82 c 1
EndSplineSet
EndChar
StartChar: uF50A9
Encoding: 1003689 1003689 213
Width: 1000
Flags: MW
LayerCount: 2
Fore
SplineSet
595 344 m 0
 595 356 595 368 595 380 c 0
 597 509 611 664 722 706 c 0
 738 713 756 717 777 717 c 0
 817 717 860 700 897 654 c 0
 959 576 959 431 959 362 c 2
 959 352 l 2
 959 213 957 32 830 -12 c 4
 814 -18 797 -22 776 -22 c 0
 603 -22 595 180 595 344 c 0
710 352 m 0
 710 155 714 91 751 60 c 0
 758 55 767 50 777 50 c 0
 781 50 799 51 815 76 c 0
 844 120 841 200 843 357 c 0
 843 368 843 380 843 393 c 0
 843 468 840 559 828 595 c 0
 818 623 800 644 777 644 c 0
 712 644 710 516 710 396 c 0
 710 381 710 366 710 352 c 0
160 344 m 0
 160 356 160 368 160 380 c 0
 162 509 176 664 287 706 c 0
 303 713 321 717 342 717 c 0
 382 717 426 700 463 654 c 0
 525 576 524 431 524 362 c 2
 524 352 l 2
 524 213 523 32 396 -12 c 4
 380 -18 362 -22 341 -22 c 0
 168 -22 160 180 160 344 c 0
276 352 m 0
 276 155 280 91 317 60 c 0
 324 55 332 50 342 50 c 0
 346 50 364 51 380 76 c 0
 409 120 406 200 408 357 c 0
 408 368 409 380 409 393 c 0
 409 468 405 559 393 595 c 0
 383 623 365 644 342 644 c 0
 277 644 276 516 276 396 c 0
 276 381 276 366 276 352 c 0
31 563 m 5
 31 694 l 5
 145 694 l 5
 145 582 l 29
 145 582 144 568 143 563 c 4
 141 556 89 452 89 452 c 5
 31 452 l 5
 66 563 l 5
 31 563 l 5
EndSplineSet
EndChar
StartChar: uF50AA
Encoding: 1003690 1003690 214
Width: 1000
Flags: MW
LayerCount: 2
Fore
SplineSet
618 575 m 1
 618 648 l 1
 719 648 778 670 827 717 c 1
 857 717 l 1
 857 73 l 1
 960 73 l 1
 960 0 l 1
 631 0 l 1
 631 73 l 1
 737 73 l 1
 737 591 l 1
 700 579 660 575 618 575 c 1
160 344 m 0
 160 356 160 368 160 380 c 0
 162 509 176 664 287 706 c 0
 303 713 321 717 342 717 c 0
 382 717 426 700 463 654 c 0
 525 576 524 431 524 362 c 2
 524 352 l 2
 524 213 523 32 396 -12 c 4
 380 -18 362 -22 341 -22 c 0
 168 -22 160 180 160 344 c 0
276 352 m 0
 276 155 280 91 317 60 c 0
 324 55 332 50 342 50 c 0
 346 50 364 51 380 76 c 0
 409 120 406 200 408 357 c 0
 408 368 409 380 409 393 c 0
 409 468 405 559 393 595 c 0
 383 623 365 644 342 644 c 0
 277 644 276 516 276 396 c 0
 276 381 276 366 276 352 c 0
31 563 m 5
 31 694 l 5
 145 694 l 5
 145 582 l 29
 145 582 144 568 143 563 c 4
 141 556 89 452 89 452 c 5
 31 452 l 5
 66 563 l 5
 31 563 l 5
EndSplineSet
EndChar
StartChar: uF50AC
Encoding: 1003692 1003692 216
Width: 1000
Flags: MW
LayerCount: 2
Fore
SplineSet
597 58 m 1
 611 151 l 1
 639 124 669 102 703 88 c 0
 722 79 742 73 765 73 c 0
 789 73 806 83 816 99 c 0
 832 124 833 162 833 197 c 2
 833 216 l 2xe8
 833 261 826 289 817 307 c 0
 798 345 768 337 755 339 c 2
 713 339 l 1
 713 411 l 1
 738 414 747 414 756 417 c 0
 786 426 817 470 817 547 c 0
 817 572 814 596 804 611 c 0
 796 622 786 628 768 628 c 0xf0
 746 628 729 621 714 610 c 0
 698 599 684 584 674 571 c 0
 664 559 659 548 656 543 c 1
 610 619 l 1
 633 652 663 680 700 698 c 0
 720 710 744 717 770 717 c 0
 824 717 864 698 891 670 c 0
 927 634 935 583 935 544 c 0xf0
 935 501 923 468 906 443 c 0
 884 409 855 389 838 378 c 1
 855 373 900 361 930 319 c 0
 949 293 962 256 962 203 c 0
 962 133 945 62 891 19 c 4
 860 -6 819 -22 769 -22 c 0
 741 -22 716 -16 691 -5 c 0
 656 9 626 30 597 58 c 1
160 344 m 0
 160 356 160 368 160 380 c 0
 162 509 176 664 287 706 c 0
 303 713 321 717 342 717 c 0
 382 717 426 700 463 654 c 0
 525 576 524 431 524 362 c 2
 524 352 l 2
 524 213 523 32 396 -12 c 4
 380 -18 362 -22 341 -22 c 0
 168 -22 160 180 160 344 c 0
276 352 m 0
 276 155 280 91 317 60 c 0
 324 55 332 50 342 50 c 0
 346 50 364 51 380 76 c 0
 409 120 406 200 408 357 c 0
 408 368 409 380 409 393 c 0
 409 468 405 559 393 595 c 0
 383 623 365 644 342 644 c 0
 277 644 276 516 276 396 c 0
 276 381 276 366 276 352 c 0
31 563 m 5
 31 694 l 5
 145 694 l 5
 145 582 l 29
 145 582 144 568 143 563 c 4
 141 556 89 452 89 452 c 5
 31 452 l 5
 66 563 l 5
 31 563 l 5
EndSplineSet
EndChar
StartChar: uF50AE
Encoding: 1003694 1003694 218
Width: 1000
Flags: MW
LayerCount: 2
Fore
SplineSet
590 82 m 1
 637 169 l 1
 642 159 646 150 652 140 c 0
 666 118 683 102 700 91 c 0
 717 78 738 72 755 72 c 0
 785 72 803 85 813 108 c 0
 825 135 827 175 827 220 c 2
 827 248 l 2
 827 288 825 329 815 354 c 0
 809 369 799 379 783 379 c 0
 733 379 715 296 714 296 c 2
 630 296 l 1
 630 695 l 1
 923 695 l 1
 923 594 l 1
 734 594 l 1
 734 435 l 1
 748 444 762 452 786 452 c 0
 826 452 868 438 899 406 c 4
 935 369 956 309 956 219 c 0
 956 134 935 78 902 41 c 0
 860 -6 804 -22 757 -22 c 0
 728 -22 705 -14 683 -2 c 0
 632 22 602 62 590 82 c 1
160 344 m 0
 160 356 160 368 160 380 c 0
 162 509 176 664 287 706 c 0
 303 713 321 717 342 717 c 0
 382 717 426 700 463 654 c 0
 525 576 524 431 524 362 c 2
 524 352 l 2
 524 213 523 32 396 -12 c 4
 380 -18 362 -22 341 -22 c 0
 168 -22 160 180 160 344 c 0
276 352 m 0
 276 155 280 91 317 60 c 0
 324 55 332 50 342 50 c 0
 346 50 364 51 380 76 c 0
 409 120 406 200 408 357 c 0
 408 368 409 380 409 393 c 0
 409 468 405 559 393 595 c 0
 383 623 365 644 342 644 c 0
 277 644 276 516 276 396 c 0
 276 381 276 366 276 352 c 0
31 563 m 5
 31 694 l 5
 145 694 l 5
 145 582 l 29
 145 582 144 568 143 563 c 4
 141 556 89 452 89 452 c 5
 31 452 l 5
 66 563 l 5
 31 563 l 5
EndSplineSet
EndChar
StartChar: uF50AF
Encoding: 1003695 1003695 219
Width: 1000
Flags: MW
LayerCount: 2
Fore
SplineSet
597 342 m 0
 597 501 625 566 649 608 c 0
 692 682 755 717 823 717 c 0
 851 717 872 712 903 696 c 1
 903 604 l 1
 876 619 855 628 825 628 c 0
 775 628 750 590 741 568 c 0
 729 539 719 489 719 391 c 1
 734 441 762 493 813 493 c 0
 879 493 909 455 928 424 c 0
 961 368 964 314 964 250 c 2
 964 244 l 2
 964 189 963 127 933 71 c 0
 882 -20 816 -22 783 -22 c 0
 730 -22 688 5 658 46 c 0
 599 127 597 262 597 342 c 0
720 253 m 0
 720 245 720 237 720 229 c 4
 721 148 728 72 784 72 c 0
 828 72 840 117 842 170 c 0
 843 193 842 217 843 240 c 2
 843 274 l 2
 842 313 843 351 835 378 c 0
 828 403 814 420 786 420 c 0
 741 420 724 356 721 288 c 0
 720 276 720 265 720 253 c 0
160 344 m 0
 160 356 160 368 160 380 c 0
 162 509 176 664 287 706 c 0
 303 713 321 717 342 717 c 0
 382 717 426 700 463 654 c 0
 525 576 524 431 524 362 c 2
 524 352 l 2
 524 213 523 32 396 -12 c 4
 380 -18 362 -22 341 -22 c 0
 168 -22 160 180 160 344 c 0
276 352 m 0
 276 155 280 91 317 60 c 0
 324 55 332 50 342 50 c 0
 346 50 364 51 380 76 c 0
 409 120 406 200 408 357 c 0
 408 368 409 380 409 393 c 0
 409 468 405 559 393 595 c 0
 383 623 365 644 342 644 c 0
 277 644 276 516 276 396 c 0
 276 381 276 366 276 352 c 0
31 563 m 5
 31 694 l 5
 145 694 l 5
 145 582 l 29
 145 582 144 568 143 563 c 4
 141 556 89 452 89 452 c 5
 31 452 l 5
 66 563 l 5
 31 563 l 5
EndSplineSet
EndChar
StartChar: uF50B0
Encoding: 1003696 1003696 220
Width: 1000
Flags: MW
LayerCount: 2
Fore
SplineSet
597 587 m 1
 597 695 l 1
 977 695 l 1
 977 594 l 1
 853 422 804 200 804 -11 c 1
 681 -11 l 1
 681 214 759 433 909 588 c 1
 597 587 l 1
160 344 m 0
 160 356 160 368 160 380 c 0
 162 509 176 664 287 706 c 0
 303 713 321 717 342 717 c 0
 382 717 426 700 463 654 c 0
 525 576 524 431 524 362 c 2
 524 352 l 2
 524 213 523 32 396 -12 c 4
 380 -18 362 -22 341 -22 c 0
 168 -22 160 180 160 344 c 0
276 352 m 0
 276 155 280 91 317 60 c 0
 324 55 332 50 342 50 c 0
 346 50 364 51 380 76 c 0
 409 120 406 200 408 357 c 0
 408 368 409 380 409 393 c 0
 409 468 405 559 393 595 c 0
 383 623 365 644 342 644 c 0
 277 644 276 516 276 396 c 0
 276 381 276 366 276 352 c 0
31 563 m 5
 31 694 l 5
 145 694 l 5
 145 582 l 29
 145 582 144 568 143 563 c 4
 141 556 89 452 89 452 c 5
 31 452 l 5
 66 563 l 5
 31 563 l 5
EndSplineSet
EndChar
StartChar: uF50B1
Encoding: 1003697 1003697 221
Width: 1000
Flags: MW
LayerCount: 2
Fore
SplineSet
597 201 m 0xf2
 597 287 628 351 704 375 c 1
 685 384 610 406 610 523 c 0
 610 620 647 717 780 717 c 2
 781 717 l 2
 914 717 950 620 950 522 c 0xec
 950 394 857 379 856 375 c 1
 932 351 963 287 963 201 c 0
 963 89 923 -22 780 -22 c 0
 637 -22 597 90 597 201 c 0xf2
718 190 m 2
 719 152 719 116 734 94 c 0
 743 81 756 73 779 73 c 0
 798 73 813 80 822 90 c 4
 845 116 842 166 843 198 c 2
 843 219 l 2xf2
 842 260 839 295 826 316 c 0
 817 331 803 339 780 339 c 0
 757 339 744 330 735 316 c 0
 716 287 719 239 718 213 c 2
 718 190 l 2
720 511 m 2xec
 720 475 724 449 734 432 c 0
 743 418 757 411 779 411 c 0
 802 411 816 419 825 432 c 0
 838 452 840 482 840 512 c 2
 840 530 l 2
 840 562 838 586 830 602 c 0
 821 620 806 628 781 628 c 0
 758 628 745 621 736 610 c 0
 720 590 721 557 720 529 c 2
 720 511 l 2xec
160 344 m 0
 160 356 160 368 160 380 c 0
 162 509 176 664 287 706 c 0
 303 713 321 717 342 717 c 0
 382 717 426 700 463 654 c 0
 525 576 524 431 524 362 c 2
 524 352 l 2
 524 213 523 32 396 -12 c 4
 380 -18 362 -22 341 -22 c 0
 168 -22 160 180 160 344 c 0
276 352 m 0
 276 155 280 91 317 60 c 0
 324 55 332 50 342 50 c 0
 346 50 364 51 380 76 c 0
 409 120 406 200 408 357 c 0
 408 368 409 380 409 393 c 0
 409 468 405 559 393 595 c 0
 383 623 365 644 342 644 c 0
 277 644 276 516 276 396 c 0
 276 381 276 366 276 352 c 0
31 563 m 5
 31 694 l 5
 145 694 l 5
 145 582 l 29
 145 582 144 568 143 563 c 4
 141 556 89 452 89 452 c 5
 31 452 l 5
 66 563 l 5
 31 563 l 5
EndSplineSet
EndChar
StartChar: uF50B2
Encoding: 1003698 1003698 222
Width: 1000
Flags: MW
LayerCount: 2
Fore
SplineSet
590 443 m 0
 590 513 591 573 628 632 c 0
 659 682 699 717 784 717 c 0
 839 717 876 695 905 662 c 0
 972 585 975 444 975 359 c 0
 975 255 967 124 896 45 c 0
 856 -3 798 -22 743 -22 c 0
 694 -22 659 -5 620 26 c 1
 662 110 l 1
 688 87 706 73 743 73 c 0
 783 73 817 96 834 131 c 0
 846 159 856 213 856 296 c 2
 856 305 l 1
 843 264 811 202 743 202 c 0
 675 202 644 241 626 273 c 0
 594 328 590 381 590 443 c 0
709 450 m 2
 711 335 714 318 727 298 c 0
 739 281 758 275 776 275 c 0
 796 275 821 284 838 324 c 0
 849 350 856 389 856 448 c 0
 856 525 855 628 783 628 c 0
 764 628 748 623 738 614 c 0
 705 586 712 522 709 482 c 2
 709 450 l 2
160 344 m 0
 160 356 160 368 160 380 c 0
 162 509 176 664 287 706 c 0
 303 713 321 717 342 717 c 0
 382 717 426 700 463 654 c 0
 525 576 524 431 524 362 c 2
 524 352 l 2
 524 213 523 32 396 -12 c 4
 380 -18 362 -22 341 -22 c 0
 168 -22 160 180 160 344 c 0
276 352 m 0
 276 155 280 91 317 60 c 0
 324 55 332 50 342 50 c 0
 346 50 364 51 380 76 c 0
 409 120 406 200 408 357 c 0
 408 368 409 380 409 393 c 0
 409 468 405 559 393 595 c 0
 383 623 365 644 342 644 c 0
 277 644 276 516 276 396 c 0
 276 381 276 366 276 352 c 0
31 563 m 5
 31 694 l 5
 145 694 l 5
 145 582 l 29
 145 582 144 568 143 563 c 4
 141 556 89 452 89 452 c 5
 31 452 l 5
 66 563 l 5
 31 563 l 5
EndSplineSet
EndChar
StartChar: uF50B3
Encoding: 1003699 1003699 223
Width: 1000
Flags: MW
LayerCount: 2
Fore
SplineSet
595 344 m 0
 595 356 595 368 595 380 c 0
 597 509 611 664 722 706 c 0
 738 713 756 717 777 717 c 0
 817 717 860 700 897 654 c 0
 959 576 959 431 959 362 c 2
 959 352 l 2
 959 213 957 32 830 -12 c 4
 814 -18 797 -22 776 -22 c 0
 603 -22 595 180 595 344 c 0
710 352 m 0
 710 155 714 91 751 60 c 0
 758 55 767 50 777 50 c 0
 781 50 799 51 815 76 c 0
 844 120 841 200 843 357 c 0
 843 368 843 380 843 393 c 0
 843 468 840 559 828 595 c 0
 818 623 800 644 777 644 c 0
 712 644 710 516 710 396 c 0
 710 381 710 366 710 352 c 0
183 575 m 1
 183 648 l 1
 284 648 343 670 392 717 c 1
 423 717 l 1
 423 73 l 1
 525 73 l 1
 525 0 l 1
 197 0 l 1
 197 73 l 1
 303 73 l 1
 303 591 l 1
 266 579 225 575 183 575 c 1
31 563 m 5
 31 694 l 5
 145 694 l 5
 145 582 l 29
 145 582 144 568 143 563 c 4
 141 556 89 452 89 452 c 5
 31 452 l 5
 66 563 l 5
 31 563 l 5
EndSplineSet
EndChar
StartChar: uF50B4
Encoding: 1003700 1003700 224
Width: 1000
Flags: MW
LayerCount: 2
Fore
SplineSet
618 575 m 1
 618 648 l 1
 719 648 778 670 827 717 c 1
 857 717 l 1
 857 73 l 1
 960 73 l 1
 960 0 l 1
 631 0 l 1
 631 73 l 1
 737 73 l 1
 737 591 l 1
 700 579 660 575 618 575 c 1
183 575 m 1
 183 648 l 1
 284 648 343 670 392 717 c 1
 423 717 l 1
 423 73 l 1
 525 73 l 1
 525 0 l 1
 197 0 l 1
 197 73 l 1
 303 73 l 1
 303 591 l 1
 266 579 225 575 183 575 c 1
31 563 m 5
 31 694 l 5
 145 694 l 5
 145 582 l 29
 145 582 144 568 143 563 c 4
 141 556 89 452 89 452 c 5
 31 452 l 5
 66 563 l 5
 31 563 l 5
EndSplineSet
EndChar
StartChar: uF50B5
Encoding: 1003701 1003701 225
Width: 1000
Flags: MW
LayerCount: 2
Fore
SplineSet
597 574 m 1
 621 643 670 717 765 717 c 0
 878 717 950 603 950 487 c 0
 950 385 886 333 786 229 c 2
 687 106 l 1
 950 108 l 1
 950 0 l 1
 604 0 l 1
 604 100 l 1
 730 254 l 2
 761 297 831 378 831 485 c 0
 831 552 805 617 755 617 c 0
 699 617 673 551 657 486 c 1
 597 574 l 1
183 575 m 1
 183 648 l 1
 284 648 343 670 392 717 c 1
 423 717 l 1
 423 73 l 1
 525 73 l 1
 525 0 l 1
 197 0 l 1
 197 73 l 1
 303 73 l 1
 303 591 l 1
 266 579 225 575 183 575 c 1
31 563 m 5
 31 694 l 5
 145 694 l 5
 145 582 l 29
 145 582 144 568 143 563 c 4
 141 556 89 452 89 452 c 5
 31 452 l 5
 66 563 l 5
 31 563 l 5
EndSplineSet
EndChar
StartChar: uF50B6
Encoding: 1003702 1003702 226
Width: 1000
Flags: MW
LayerCount: 2
Fore
SplineSet
597 58 m 1
 611 151 l 1
 639 124 669 102 703 88 c 0
 722 79 742 73 765 73 c 0
 789 73 806 83 816 99 c 0
 832 124 833 162 833 197 c 2
 833 216 l 2xe8
 833 261 826 289 817 307 c 0
 798 345 768 337 755 339 c 2
 713 339 l 1
 713 411 l 1
 738 414 747 414 756 417 c 0
 786 426 817 470 817 547 c 0
 817 572 814 596 804 611 c 0
 796 622 786 628 768 628 c 0xf0
 746 628 729 621 714 610 c 0
 698 599 684 584 674 571 c 0
 664 559 659 548 656 543 c 1
 610 619 l 1
 633 652 663 680 700 698 c 0
 720 710 744 717 770 717 c 0
 824 717 864 698 891 670 c 0
 927 634 935 583 935 544 c 0xf0
 935 501 923 468 906 443 c 0
 884 409 855 389 838 378 c 1
 855 373 900 361 930 319 c 0
 949 293 962 256 962 203 c 0
 962 133 945 62 891 19 c 4
 860 -6 819 -22 769 -22 c 0
 741 -22 716 -16 691 -5 c 0
 656 9 626 30 597 58 c 1
183 575 m 1
 183 648 l 1
 284 648 343 670 392 717 c 1
 423 717 l 1
 423 73 l 1
 525 73 l 1
 525 0 l 1
 197 0 l 1
 197 73 l 1
 303 73 l 1
 303 591 l 1
 266 579 225 575 183 575 c 1
31 563 m 5
 31 694 l 5
 145 694 l 5
 145 582 l 29
 145 582 144 568 143 563 c 4
 141 556 89 452 89 452 c 5
 31 452 l 5
 66 563 l 5
 31 563 l 5
EndSplineSet
EndChar
StartChar: uF50B7
Encoding: 1003703 1003703 227
Width: 1000
Flags: MW
LayerCount: 2
Fore
SplineSet
586 152 m 1
 586 247 l 1
 586 247 l 1
 776 695 l 1
 904 695 l 1
 904 247 l 1
 983 247 l 1
 983 152 l 1
 904 152 l 1
 904 0 l 1
 797 0 l 1
 797 152 l 1
 586 152 l 1
677 247 m 1
 801 247 l 1
 801 592 l 1
 789 528 762 466 677 247 c 1
183 575 m 1
 183 648 l 1
 284 648 343 670 392 717 c 1
 423 717 l 1
 423 73 l 1
 525 73 l 1
 525 0 l 1
 197 0 l 1
 197 73 l 1
 303 73 l 1
 303 591 l 1
 266 579 225 575 183 575 c 1
31 563 m 5
 31 694 l 5
 145 694 l 5
 145 582 l 29
 145 582 144 568 143 563 c 4
 141 556 89 452 89 452 c 5
 31 452 l 5
 66 563 l 5
 31 563 l 5
EndSplineSet
EndChar
StartChar: uF50B9
Encoding: 1003705 1003705 229
Width: 1000
Flags: MW
LayerCount: 2
Fore
SplineSet
597 342 m 0
 597 501 625 566 649 608 c 0
 692 682 755 717 823 717 c 0
 851 717 872 712 903 696 c 1
 903 604 l 1
 876 619 855 628 825 628 c 0
 775 628 750 590 741 568 c 0
 729 539 719 489 719 391 c 1
 734 441 762 493 813 493 c 0
 879 493 909 455 928 424 c 0
 961 368 964 314 964 250 c 2
 964 244 l 2
 964 189 963 127 933 71 c 0
 882 -20 816 -22 783 -22 c 0
 730 -22 688 5 658 46 c 0
 599 127 597 262 597 342 c 0
720 253 m 0
 720 245 720 237 720 229 c 4
 721 148 728 72 784 72 c 0
 828 72 840 117 842 170 c 0
 843 193 842 217 843 240 c 2
 843 274 l 2
 842 313 843 351 835 378 c 0
 828 403 814 420 786 420 c 0
 741 420 724 356 721 288 c 0
 720 276 720 265 720 253 c 0
183 575 m 1
 183 648 l 1
 284 648 343 670 392 717 c 1
 423 717 l 1
 423 73 l 1
 525 73 l 1
 525 0 l 1
 197 0 l 1
 197 73 l 1
 303 73 l 1
 303 591 l 1
 266 579 225 575 183 575 c 1
31 563 m 5
 31 694 l 5
 145 694 l 5
 145 582 l 29
 145 582 144 568 143 563 c 4
 141 556 89 452 89 452 c 5
 31 452 l 5
 66 563 l 5
 31 563 l 5
EndSplineSet
EndChar
StartChar: uF50BA
Encoding: 1003706 1003706 230
Width: 1000
Flags: MW
LayerCount: 2
Fore
SplineSet
597 587 m 1
 597 695 l 1
 977 695 l 1
 977 594 l 1
 853 422 804 200 804 -11 c 1
 681 -11 l 1
 681 214 759 433 909 588 c 1
 597 587 l 1
183 575 m 1
 183 648 l 1
 284 648 343 670 392 717 c 1
 423 717 l 1
 423 73 l 1
 525 73 l 1
 525 0 l 1
 197 0 l 1
 197 73 l 1
 303 73 l 1
 303 591 l 1
 266 579 225 575 183 575 c 1
31 563 m 5
 31 694 l 5
 145 694 l 5
 145 582 l 29
 145 582 144 568 143 563 c 4
 141 556 89 452 89 452 c 5
 31 452 l 5
 66 563 l 5
 31 563 l 5
EndSplineSet
EndChar
StartChar: uF50BC
Encoding: 1003708 1003708 232
Width: 1000
Flags: MW
LayerCount: 2
Fore
SplineSet
590 443 m 0
 590 513 591 573 628 632 c 0
 659 682 699 717 784 717 c 0
 839 717 876 695 905 662 c 0
 972 585 975 444 975 359 c 0
 975 255 967 124 896 45 c 0
 856 -3 798 -22 743 -22 c 0
 694 -22 659 -5 620 26 c 1
 662 110 l 1
 688 87 706 73 743 73 c 0
 783 73 817 96 834 131 c 0
 846 159 856 213 856 296 c 2
 856 305 l 1
 843 264 811 202 743 202 c 0
 675 202 644 241 626 273 c 0
 594 328 590 381 590 443 c 0
709 450 m 2
 711 335 714 318 727 298 c 0
 739 281 758 275 776 275 c 0
 796 275 821 284 838 324 c 0
 849 350 856 389 856 448 c 0
 856 525 855 628 783 628 c 0
 764 628 748 623 738 614 c 0
 705 586 712 522 709 482 c 2
 709 450 l 2
183 575 m 1
 183 648 l 1
 284 648 343 670 392 717 c 1
 423 717 l 1
 423 73 l 1
 525 73 l 1
 525 0 l 1
 197 0 l 1
 197 73 l 1
 303 73 l 1
 303 591 l 1
 266 579 225 575 183 575 c 1
31 563 m 5
 31 694 l 5
 145 694 l 5
 145 582 l 29
 145 582 144 568 143 563 c 4
 141 556 89 452 89 452 c 5
 31 452 l 5
 66 563 l 5
 31 563 l 5
EndSplineSet
EndChar
StartChar: uF50BE
Encoding: 1003710 1003710 234
Width: 1000
Flags: MW
LayerCount: 2
Fore
SplineSet
618 575 m 1
 618 648 l 1
 719 648 778 670 827 717 c 1
 857 717 l 1
 857 73 l 1
 960 73 l 1
 960 0 l 1
 631 0 l 1
 631 73 l 1
 737 73 l 1
 737 591 l 1
 700 579 660 575 618 575 c 1
162 574 m 1
 186 643 235 717 330 717 c 0
 443 717 516 603 516 487 c 0
 516 385 451 333 351 229 c 2
 252 106 l 1
 516 108 l 1
 516 0 l 1
 170 0 l 1
 170 100 l 1
 296 254 l 2
 327 297 397 378 397 485 c 0
 397 552 370 617 320 617 c 0
 264 617 238 551 222 486 c 1
 162 574 l 1
31 563 m 5
 31 694 l 5
 145 694 l 5
 145 582 l 29
 145 582 144 568 143 563 c 4
 141 556 89 452 89 452 c 5
 31 452 l 5
 66 563 l 5
 31 563 l 5
EndSplineSet
EndChar
StartChar: uF50BF
Encoding: 1003711 1003711 235
Width: 1000
Flags: MW
LayerCount: 2
Fore
SplineSet
597 574 m 1
 621 643 670 717 765 717 c 0
 878 717 950 603 950 487 c 0
 950 385 886 333 786 229 c 2
 687 106 l 1
 950 108 l 1
 950 0 l 1
 604 0 l 1
 604 100 l 1
 730 254 l 2
 761 297 831 378 831 485 c 0
 831 552 805 617 755 617 c 0
 699 617 673 551 657 486 c 1
 597 574 l 1
162 574 m 1
 186 643 235 717 330 717 c 0
 443 717 516 603 516 487 c 0
 516 385 451 333 351 229 c 2
 252 106 l 1
 516 108 l 1
 516 0 l 1
 170 0 l 1
 170 100 l 1
 296 254 l 2
 327 297 397 378 397 485 c 0
 397 552 370 617 320 617 c 0
 264 617 238 551 222 486 c 1
 162 574 l 1
31 563 m 5
 31 694 l 5
 145 694 l 5
 145 582 l 29
 145 582 144 568 143 563 c 4
 141 556 89 452 89 452 c 5
 31 452 l 5
 66 563 l 5
 31 563 l 5
EndSplineSet
EndChar
StartChar: uF50C0
Encoding: 1003712 1003712 236
Width: 1000
Flags: MW
LayerCount: 2
Fore
SplineSet
597 58 m 1
 611 151 l 1
 639 124 669 102 703 88 c 0
 722 79 742 73 765 73 c 0
 789 73 806 83 816 99 c 0
 832 124 833 162 833 197 c 2
 833 216 l 2xe8
 833 261 826 289 817 307 c 0
 798 345 768 337 755 339 c 2
 713 339 l 1
 713 411 l 1
 738 414 747 414 756 417 c 0
 786 426 817 470 817 547 c 0
 817 572 814 596 804 611 c 0
 796 622 786 628 768 628 c 0xf0
 746 628 729 621 714 610 c 0
 698 599 684 584 674 571 c 0
 664 559 659 548 656 543 c 1
 610 619 l 1
 633 652 663 680 700 698 c 0
 720 710 744 717 770 717 c 0
 824 717 864 698 891 670 c 0
 927 634 935 583 935 544 c 0xf0
 935 501 923 468 906 443 c 0
 884 409 855 389 838 378 c 1
 855 373 900 361 930 319 c 0
 949 293 962 256 962 203 c 0
 962 133 945 62 891 19 c 4
 860 -6 819 -22 769 -22 c 0
 741 -22 716 -16 691 -5 c 0
 656 9 626 30 597 58 c 1
162 574 m 1
 186 643 235 717 330 717 c 0
 443 717 516 603 516 487 c 0
 516 385 451 333 351 229 c 2
 252 106 l 1
 516 108 l 1
 516 0 l 1
 170 0 l 1
 170 100 l 1
 296 254 l 2
 327 297 397 378 397 485 c 0
 397 552 370 617 320 617 c 0
 264 617 238 551 222 486 c 1
 162 574 l 1
31 563 m 5
 31 694 l 5
 145 694 l 5
 145 582 l 29
 145 582 144 568 143 563 c 4
 141 556 89 452 89 452 c 5
 31 452 l 5
 66 563 l 5
 31 563 l 5
EndSplineSet
EndChar
StartChar: uF50C1
Encoding: 1003713 1003713 237
Width: 1000
Flags: MW
LayerCount: 2
Fore
SplineSet
586 152 m 1
 586 247 l 1
 586 247 l 1
 776 695 l 1
 904 695 l 1
 904 247 l 1
 983 247 l 1
 983 152 l 1
 904 152 l 1
 904 0 l 1
 797 0 l 1
 797 152 l 1
 586 152 l 1
677 247 m 1
 801 247 l 1
 801 592 l 1
 789 528 762 466 677 247 c 1
162 574 m 1
 186 643 235 717 330 717 c 0
 443 717 516 603 516 487 c 0
 516 385 451 333 351 229 c 2
 252 106 l 1
 516 108 l 1
 516 0 l 1
 170 0 l 1
 170 100 l 1
 296 254 l 2
 327 297 397 378 397 485 c 0
 397 552 370 617 320 617 c 0
 264 617 238 551 222 486 c 1
 162 574 l 1
31 563 m 5
 31 694 l 5
 145 694 l 5
 145 582 l 29
 145 582 144 568 143 563 c 4
 141 556 89 452 89 452 c 5
 31 452 l 5
 66 563 l 5
 31 563 l 5
EndSplineSet
EndChar
StartChar: uF50C2
Encoding: 1003714 1003714 238
Width: 1000
Flags: MW
LayerCount: 2
Fore
SplineSet
590 82 m 1
 637 169 l 1
 642 159 646 150 652 140 c 0
 666 118 683 102 700 91 c 0
 717 78 738 72 755 72 c 0
 785 72 803 85 813 108 c 0
 825 135 827 175 827 220 c 2
 827 248 l 2
 827 288 825 329 815 354 c 0
 809 369 799 379 783 379 c 0
 733 379 715 296 714 296 c 2
 630 296 l 1
 630 695 l 1
 923 695 l 1
 923 594 l 1
 734 594 l 1
 734 435 l 1
 748 444 762 452 786 452 c 0
 826 452 868 438 899 406 c 4
 935 369 956 309 956 219 c 0
 956 134 935 78 902 41 c 0
 860 -6 804 -22 757 -22 c 0
 728 -22 705 -14 683 -2 c 0
 632 22 602 62 590 82 c 1
162 574 m 1
 186 643 235 717 330 717 c 0
 443 717 516 603 516 487 c 0
 516 385 451 333 351 229 c 2
 252 106 l 1
 516 108 l 1
 516 0 l 1
 170 0 l 1
 170 100 l 1
 296 254 l 2
 327 297 397 378 397 485 c 0
 397 552 370 617 320 617 c 0
 264 617 238 551 222 486 c 1
 162 574 l 1
31 563 m 5
 31 694 l 5
 145 694 l 5
 145 582 l 29
 145 582 144 568 143 563 c 4
 141 556 89 452 89 452 c 5
 31 452 l 5
 66 563 l 5
 31 563 l 5
EndSplineSet
EndChar
StartChar: uF50C3
Encoding: 1003715 1003715 239
Width: 1000
Flags: MW
LayerCount: 2
Fore
SplineSet
597 342 m 0
 597 501 625 566 649 608 c 0
 692 682 755 717 823 717 c 0
 851 717 872 712 903 696 c 1
 903 604 l 1
 876 619 855 628 825 628 c 0
 775 628 750 590 741 568 c 0
 729 539 719 489 719 391 c 1
 734 441 762 493 813 493 c 0
 879 493 909 455 928 424 c 0
 961 368 964 314 964 250 c 2
 964 244 l 2
 964 189 963 127 933 71 c 0
 882 -20 816 -22 783 -22 c 0
 730 -22 688 5 658 46 c 0
 599 127 597 262 597 342 c 0
720 253 m 0
 720 245 720 237 720 229 c 4
 721 148 728 72 784 72 c 0
 828 72 840 117 842 170 c 0
 843 193 842 217 843 240 c 2
 843 274 l 2
 842 313 843 351 835 378 c 0
 828 403 814 420 786 420 c 0
 741 420 724 356 721 288 c 0
 720 276 720 265 720 253 c 0
162 574 m 1
 186 643 235 717 330 717 c 0
 443 717 516 603 516 487 c 0
 516 385 451 333 351 229 c 2
 252 106 l 1
 516 108 l 1
 516 0 l 1
 170 0 l 1
 170 100 l 1
 296 254 l 2
 327 297 397 378 397 485 c 0
 397 552 370 617 320 617 c 0
 264 617 238 551 222 486 c 1
 162 574 l 1
31 563 m 5
 31 694 l 5
 145 694 l 5
 145 582 l 29
 145 582 144 568 143 563 c 4
 141 556 89 452 89 452 c 5
 31 452 l 5
 66 563 l 5
 31 563 l 5
EndSplineSet
EndChar
StartChar: uF50C4
Encoding: 1003716 1003716 240
Width: 1000
Flags: MW
LayerCount: 2
Fore
SplineSet
597 587 m 1
 597 695 l 1
 977 695 l 1
 977 594 l 1
 853 422 804 200 804 -11 c 1
 681 -11 l 1
 681 214 759 433 909 588 c 1
 597 587 l 1
162 574 m 1
 186 643 235 717 330 717 c 0
 443 717 516 603 516 487 c 0
 516 385 451 333 351 229 c 2
 252 106 l 1
 516 108 l 1
 516 0 l 1
 170 0 l 1
 170 100 l 1
 296 254 l 2
 327 297 397 378 397 485 c 0
 397 552 370 617 320 617 c 0
 264 617 238 551 222 486 c 1
 162 574 l 1
31 563 m 5
 31 694 l 5
 145 694 l 5
 145 582 l 29
 145 582 144 568 143 563 c 4
 141 556 89 452 89 452 c 5
 31 452 l 5
 66 563 l 5
 31 563 l 5
EndSplineSet
EndChar
StartChar: uF50C5
Encoding: 1003717 1003717 241
Width: 1000
Flags: MW
LayerCount: 2
Fore
SplineSet
597 201 m 0xf2
 597 287 628 351 704 375 c 1
 685 384 610 406 610 523 c 0
 610 620 647 717 780 717 c 2
 781 717 l 2
 914 717 950 620 950 522 c 0xec
 950 394 857 379 856 375 c 1
 932 351 963 287 963 201 c 0
 963 89 923 -22 780 -22 c 0
 637 -22 597 90 597 201 c 0xf2
718 190 m 2
 719 152 719 116 734 94 c 0
 743 81 756 73 779 73 c 0
 798 73 813 80 822 90 c 4
 845 116 842 166 843 198 c 2
 843 219 l 2xf2
 842 260 839 295 826 316 c 0
 817 331 803 339 780 339 c 0
 757 339 744 330 735 316 c 0
 716 287 719 239 718 213 c 2
 718 190 l 2
720 511 m 2xec
 720 475 724 449 734 432 c 0
 743 418 757 411 779 411 c 0
 802 411 816 419 825 432 c 0
 838 452 840 482 840 512 c 2
 840 530 l 2
 840 562 838 586 830 602 c 0
 821 620 806 628 781 628 c 0
 758 628 745 621 736 610 c 0
 720 590 721 557 720 529 c 2
 720 511 l 2xec
162 574 m 1
 186 643 235 717 330 717 c 0
 443 717 516 603 516 487 c 0
 516 385 451 333 351 229 c 2
 252 106 l 1
 516 108 l 1
 516 0 l 1
 170 0 l 1
 170 100 l 1
 296 254 l 2
 327 297 397 378 397 485 c 0
 397 552 370 617 320 617 c 0
 264 617 238 551 222 486 c 1
 162 574 l 1
31 563 m 5
 31 694 l 5
 145 694 l 5
 145 582 l 29
 145 582 144 568 143 563 c 4
 141 556 89 452 89 452 c 5
 31 452 l 5
 66 563 l 5
 31 563 l 5
EndSplineSet
EndChar
StartChar: uF50C6
Encoding: 1003718 1003718 242
Width: 1000
Flags: MW
LayerCount: 2
Fore
SplineSet
590 443 m 0
 590 513 591 573 628 632 c 0
 659 682 699 717 784 717 c 0
 839 717 876 695 905 662 c 0
 972 585 975 444 975 359 c 0
 975 255 967 124 896 45 c 0
 856 -3 798 -22 743 -22 c 0
 694 -22 659 -5 620 26 c 1
 662 110 l 1
 688 87 706 73 743 73 c 0
 783 73 817 96 834 131 c 0
 846 159 856 213 856 296 c 2
 856 305 l 1
 843 264 811 202 743 202 c 0
 675 202 644 241 626 273 c 0
 594 328 590 381 590 443 c 0
709 450 m 2
 711 335 714 318 727 298 c 0
 739 281 758 275 776 275 c 0
 796 275 821 284 838 324 c 0
 849 350 856 389 856 448 c 0
 856 525 855 628 783 628 c 0
 764 628 748 623 738 614 c 0
 705 586 712 522 709 482 c 2
 709 450 l 2
162 574 m 1
 186 643 235 717 330 717 c 0
 443 717 516 603 516 487 c 0
 516 385 451 333 351 229 c 2
 252 106 l 1
 516 108 l 1
 516 0 l 1
 170 0 l 1
 170 100 l 1
 296 254 l 2
 327 297 397 378 397 485 c 0
 397 552 370 617 320 617 c 0
 264 617 238 551 222 486 c 1
 162 574 l 1
31 563 m 5
 31 694 l 5
 145 694 l 5
 145 582 l 29
 145 582 144 568 143 563 c 4
 141 556 89 452 89 452 c 5
 31 452 l 5
 66 563 l 5
 31 563 l 5
EndSplineSet
EndChar
StartChar: uF50C7
Encoding: 1003719 1003719 243
Width: 1000
Flags: MW
LayerCount: 2
Fore
SplineSet
595 344 m 0
 595 356 595 368 595 380 c 0
 597 509 611 664 722 706 c 0
 738 713 756 717 777 717 c 0
 817 717 860 700 897 654 c 0
 959 576 959 431 959 362 c 2
 959 352 l 2
 959 213 957 32 830 -12 c 4
 814 -18 797 -22 776 -22 c 0
 603 -22 595 180 595 344 c 0
710 352 m 0
 710 155 714 91 751 60 c 0
 758 55 767 50 777 50 c 0
 781 50 799 51 815 76 c 0
 844 120 841 200 843 357 c 0
 843 368 843 380 843 393 c 0
 843 468 840 559 828 595 c 0
 818 623 800 644 777 644 c 0
 712 644 710 516 710 396 c 0
 710 381 710 366 710 352 c 0
162 58 m 1
 177 151 l 1
 205 124 234 102 268 88 c 0
 287 79 307 73 330 73 c 0
 354 73 371 83 381 99 c 0
 397 124 398 162 398 197 c 2
 398 216 l 2xe8
 398 261 392 289 383 307 c 0
 364 345 333 337 320 339 c 2
 278 339 l 1
 278 411 l 1
 303 414 312 414 321 417 c 0
 351 426 383 470 383 547 c 0
 383 572 380 596 370 611 c 0
 362 622 351 628 333 628 c 0xf0
 311 628 294 621 279 610 c 0
 263 599 249 584 239 571 c 0
 229 559 224 548 221 543 c 1
 175 619 l 1
 198 652 228 680 265 698 c 0
 285 710 309 717 335 717 c 0
 389 717 430 698 457 670 c 0
 493 634 500 583 500 544 c 0xf0
 500 501 488 468 471 443 c 0
 449 409 420 389 403 378 c 1
 420 373 465 361 495 319 c 0
 514 293 527 256 527 203 c 0
 527 133 511 62 457 19 c 4
 426 -6 384 -22 334 -22 c 0
 306 -22 282 -16 257 -5 c 0
 222 9 191 30 162 58 c 1
31 563 m 5
 31 694 l 5
 145 694 l 5
 145 582 l 29
 145 582 144 568 143 563 c 4
 141 556 89 452 89 452 c 5
 31 452 l 5
 66 563 l 5
 31 563 l 5
EndSplineSet
EndChar
StartChar: uF50C9
Encoding: 1003721 1003721 245
Width: 1000
Flags: MW
LayerCount: 2
Fore
SplineSet
597 574 m 1
 621 643 670 717 765 717 c 0
 878 717 950 603 950 487 c 0
 950 385 886 333 786 229 c 2
 687 106 l 1
 950 108 l 1
 950 0 l 1
 604 0 l 1
 604 100 l 1
 730 254 l 2
 761 297 831 378 831 485 c 0
 831 552 805 617 755 617 c 0
 699 617 673 551 657 486 c 1
 597 574 l 1
162 58 m 1
 177 151 l 1
 205 124 234 102 268 88 c 0
 287 79 307 73 330 73 c 0
 354 73 371 83 381 99 c 0
 397 124 398 162 398 197 c 2
 398 216 l 2xe8
 398 261 392 289 383 307 c 0
 364 345 333 337 320 339 c 2
 278 339 l 1
 278 411 l 1
 303 414 312 414 321 417 c 0
 351 426 383 470 383 547 c 0
 383 572 380 596 370 611 c 0
 362 622 351 628 333 628 c 0xf0
 311 628 294 621 279 610 c 0
 263 599 249 584 239 571 c 0
 229 559 224 548 221 543 c 1
 175 619 l 1
 198 652 228 680 265 698 c 0
 285 710 309 717 335 717 c 0
 389 717 430 698 457 670 c 0
 493 634 500 583 500 544 c 0xf0
 500 501 488 468 471 443 c 0
 449 409 420 389 403 378 c 1
 420 373 465 361 495 319 c 0
 514 293 527 256 527 203 c 0
 527 133 511 62 457 19 c 4
 426 -6 384 -22 334 -22 c 0
 306 -22 282 -16 257 -5 c 0
 222 9 191 30 162 58 c 1
31 563 m 5
 31 694 l 5
 145 694 l 5
 145 582 l 29
 145 582 144 568 143 563 c 4
 141 556 89 452 89 452 c 5
 31 452 l 5
 66 563 l 5
 31 563 l 5
EndSplineSet
EndChar
StartChar: uF50CA
Encoding: 1003722 1003722 246
Width: 1000
Flags: MW
LayerCount: 2
Fore
SplineSet
597 58 m 1
 611 151 l 1
 639 124 669 102 703 88 c 0
 722 79 742 73 765 73 c 0
 789 73 806 83 816 99 c 0
 832 124 833 162 833 197 c 2
 833 216 l 2xe8
 833 261 826 289 817 307 c 0
 798 345 768 337 755 339 c 2
 713 339 l 1
 713 411 l 1
 738 414 747 414 756 417 c 0
 786 426 817 470 817 547 c 0
 817 572 814 596 804 611 c 0
 796 622 786 628 768 628 c 0xf0
 746 628 729 621 714 610 c 0
 698 599 684 584 674 571 c 0
 664 559 659 548 656 543 c 1
 610 619 l 1
 633 652 663 680 700 698 c 0
 720 710 744 717 770 717 c 0
 824 717 864 698 891 670 c 0
 927 634 935 583 935 544 c 0xf0
 935 501 923 468 906 443 c 0
 884 409 855 389 838 378 c 1
 855 373 900 361 930 319 c 0
 949 293 962 256 962 203 c 0
 962 133 945 62 891 19 c 4
 860 -6 819 -22 769 -22 c 0
 741 -22 716 -16 691 -5 c 0
 656 9 626 30 597 58 c 1
162 58 m 1
 177 151 l 1
 205 124 234 102 268 88 c 0
 287 79 307 73 330 73 c 0
 354 73 371 83 381 99 c 0
 397 124 398 162 398 197 c 2
 398 216 l 2xe8
 398 261 392 289 383 307 c 0
 364 345 333 337 320 339 c 2
 278 339 l 1
 278 411 l 1
 303 414 312 414 321 417 c 0
 351 426 383 470 383 547 c 0
 383 572 380 596 370 611 c 0
 362 622 351 628 333 628 c 0xf0
 311 628 294 621 279 610 c 0
 263 599 249 584 239 571 c 0
 229 559 224 548 221 543 c 1
 175 619 l 1
 198 652 228 680 265 698 c 0
 285 710 309 717 335 717 c 0
 389 717 430 698 457 670 c 0
 493 634 500 583 500 544 c 0xf0
 500 501 488 468 471 443 c 0
 449 409 420 389 403 378 c 1
 420 373 465 361 495 319 c 0
 514 293 527 256 527 203 c 0
 527 133 511 62 457 19 c 4
 426 -6 384 -22 334 -22 c 0
 306 -22 282 -16 257 -5 c 0
 222 9 191 30 162 58 c 1
31 563 m 5
 31 694 l 5
 145 694 l 5
 145 582 l 29
 145 582 144 568 143 563 c 4
 141 556 89 452 89 452 c 5
 31 452 l 5
 66 563 l 5
 31 563 l 5
EndSplineSet
EndChar
StartChar: uF50CC
Encoding: 1003724 1003724 248
Width: 1000
Flags: MW
LayerCount: 2
Fore
SplineSet
590 82 m 1
 637 169 l 1
 642 159 646 150 652 140 c 0
 666 118 683 102 700 91 c 0
 717 78 738 72 755 72 c 0
 785 72 803 85 813 108 c 0
 825 135 827 175 827 220 c 2
 827 248 l 2
 827 288 825 329 815 354 c 0
 809 369 799 379 783 379 c 0
 733 379 715 296 714 296 c 2
 630 296 l 1
 630 695 l 1
 923 695 l 1
 923 594 l 1
 734 594 l 1
 734 435 l 1
 748 444 762 452 786 452 c 0
 826 452 868 438 899 406 c 4
 935 369 956 309 956 219 c 0
 956 134 935 78 902 41 c 0
 860 -6 804 -22 757 -22 c 0
 728 -22 705 -14 683 -2 c 0
 632 22 602 62 590 82 c 1
162 58 m 1
 177 151 l 1
 205 124 234 102 268 88 c 0
 287 79 307 73 330 73 c 0
 354 73 371 83 381 99 c 0
 397 124 398 162 398 197 c 2
 398 216 l 2xe8
 398 261 392 289 383 307 c 0
 364 345 333 337 320 339 c 2
 278 339 l 1
 278 411 l 1
 303 414 312 414 321 417 c 0
 351 426 383 470 383 547 c 0
 383 572 380 596 370 611 c 0
 362 622 351 628 333 628 c 0xf0
 311 628 294 621 279 610 c 0
 263 599 249 584 239 571 c 0
 229 559 224 548 221 543 c 1
 175 619 l 1
 198 652 228 680 265 698 c 0
 285 710 309 717 335 717 c 0
 389 717 430 698 457 670 c 0
 493 634 500 583 500 544 c 0xf0
 500 501 488 468 471 443 c 0
 449 409 420 389 403 378 c 1
 420 373 465 361 495 319 c 0
 514 293 527 256 527 203 c 0
 527 133 511 62 457 19 c 4
 426 -6 384 -22 334 -22 c 0
 306 -22 282 -16 257 -5 c 0
 222 9 191 30 162 58 c 1
31 563 m 5
 31 694 l 5
 145 694 l 5
 145 582 l 29
 145 582 144 568 143 563 c 4
 141 556 89 452 89 452 c 5
 31 452 l 5
 66 563 l 5
 31 563 l 5
EndSplineSet
EndChar
StartChar: uF50CD
Encoding: 1003725 1003725 249
Width: 1000
Flags: MW
LayerCount: 2
Fore
SplineSet
597 342 m 0
 597 501 625 566 649 608 c 0
 692 682 755 717 823 717 c 0
 851 717 872 712 903 696 c 1
 903 604 l 1
 876 619 855 628 825 628 c 0
 775 628 750 590 741 568 c 0
 729 539 719 489 719 391 c 1
 734 441 762 493 813 493 c 0
 879 493 909 455 928 424 c 0
 961 368 964 314 964 250 c 2
 964 244 l 2
 964 189 963 127 933 71 c 0
 882 -20 816 -22 783 -22 c 0
 730 -22 688 5 658 46 c 0
 599 127 597 262 597 342 c 0
720 253 m 0
 720 245 720 237 720 229 c 4
 721 148 728 72 784 72 c 0
 828 72 840 117 842 170 c 0
 843 193 842 217 843 240 c 2
 843 274 l 2
 842 313 843 351 835 378 c 0
 828 403 814 420 786 420 c 0
 741 420 724 356 721 288 c 0
 720 276 720 265 720 253 c 0
162 58 m 1
 177 151 l 1
 205 124 234 102 268 88 c 0
 287 79 307 73 330 73 c 0
 354 73 371 83 381 99 c 0
 397 124 398 162 398 197 c 2
 398 216 l 2xe8
 398 261 392 289 383 307 c 0
 364 345 333 337 320 339 c 2
 278 339 l 1
 278 411 l 1
 303 414 312 414 321 417 c 0
 351 426 383 470 383 547 c 0
 383 572 380 596 370 611 c 0
 362 622 351 628 333 628 c 0xf0
 311 628 294 621 279 610 c 0
 263 599 249 584 239 571 c 0
 229 559 224 548 221 543 c 1
 175 619 l 1
 198 652 228 680 265 698 c 0
 285 710 309 717 335 717 c 0
 389 717 430 698 457 670 c 0
 493 634 500 583 500 544 c 0xf0
 500 501 488 468 471 443 c 0
 449 409 420 389 403 378 c 1
 420 373 465 361 495 319 c 0
 514 293 527 256 527 203 c 0
 527 133 511 62 457 19 c 4
 426 -6 384 -22 334 -22 c 0
 306 -22 282 -16 257 -5 c 0
 222 9 191 30 162 58 c 1
31 563 m 5
 31 694 l 5
 145 694 l 5
 145 582 l 29
 145 582 144 568 143 563 c 4
 141 556 89 452 89 452 c 5
 31 452 l 5
 66 563 l 5
 31 563 l 5
EndSplineSet
EndChar
StartChar: uF50CF
Encoding: 1003727 1003727 251
Width: 1000
Flags: MW
LayerCount: 2
Fore
SplineSet
597 201 m 0xf2
 597 287 628 351 704 375 c 1
 685 384 610 406 610 523 c 0
 610 620 647 717 780 717 c 2
 781 717 l 2
 914 717 950 620 950 522 c 0xec
 950 394 857 379 856 375 c 1
 932 351 963 287 963 201 c 0
 963 89 923 -22 780 -22 c 0
 637 -22 597 90 597 201 c 0xf2
718 190 m 2
 719 152 719 116 734 94 c 0
 743 81 756 73 779 73 c 0
 798 73 813 80 822 90 c 4
 845 116 842 166 843 198 c 2
 843 219 l 2xf2
 842 260 839 295 826 316 c 0
 817 331 803 339 780 339 c 0
 757 339 744 330 735 316 c 0
 716 287 719 239 718 213 c 2
 718 190 l 2
720 511 m 2xec
 720 475 724 449 734 432 c 0
 743 418 757 411 779 411 c 0
 802 411 816 419 825 432 c 0
 838 452 840 482 840 512 c 2
 840 530 l 2
 840 562 838 586 830 602 c 0
 821 620 806 628 781 628 c 0
 758 628 745 621 736 610 c 0
 720 590 721 557 720 529 c 2
 720 511 l 2xec
162 58 m 1
 177 151 l 1
 205 124 234 102 268 88 c 0
 287 79 307 73 330 73 c 0
 354 73 371 83 381 99 c 0
 397 124 398 162 398 197 c 2
 398 216 l 2xe8
 398 261 392 289 383 307 c 0
 364 345 333 337 320 339 c 2
 278 339 l 1
 278 411 l 1
 303 414 312 414 321 417 c 0
 351 426 383 470 383 547 c 0
 383 572 380 596 370 611 c 0
 362 622 351 628 333 628 c 0xf0
 311 628 294 621 279 610 c 0
 263 599 249 584 239 571 c 0
 229 559 224 548 221 543 c 1
 175 619 l 1
 198 652 228 680 265 698 c 0
 285 710 309 717 335 717 c 0
 389 717 430 698 457 670 c 0
 493 634 500 583 500 544 c 0xf0
 500 501 488 468 471 443 c 0
 449 409 420 389 403 378 c 1
 420 373 465 361 495 319 c 0
 514 293 527 256 527 203 c 0
 527 133 511 62 457 19 c 4
 426 -6 384 -22 334 -22 c 0
 306 -22 282 -16 257 -5 c 0
 222 9 191 30 162 58 c 1
31 563 m 5
 31 694 l 5
 145 694 l 5
 145 582 l 29
 145 582 144 568 143 563 c 4
 141 556 89 452 89 452 c 5
 31 452 l 5
 66 563 l 5
 31 563 l 5
EndSplineSet
EndChar
StartChar: uF50D0
Encoding: 1003728 1003728 252
Width: 1000
Flags: MW
LayerCount: 2
Fore
SplineSet
590 443 m 0
 590 513 591 573 628 632 c 0
 659 682 699 717 784 717 c 0
 839 717 876 695 905 662 c 0
 972 585 975 444 975 359 c 0
 975 255 967 124 896 45 c 0
 856 -3 798 -22 743 -22 c 0
 694 -22 659 -5 620 26 c 1
 662 110 l 1
 688 87 706 73 743 73 c 0
 783 73 817 96 834 131 c 0
 846 159 856 213 856 296 c 2
 856 305 l 1
 843 264 811 202 743 202 c 0
 675 202 644 241 626 273 c 0
 594 328 590 381 590 443 c 0
709 450 m 2
 711 335 714 318 727 298 c 0
 739 281 758 275 776 275 c 0
 796 275 821 284 838 324 c 0
 849 350 856 389 856 448 c 0
 856 525 855 628 783 628 c 0
 764 628 748 623 738 614 c 0
 705 586 712 522 709 482 c 2
 709 450 l 2
162 58 m 1
 177 151 l 1
 205 124 234 102 268 88 c 0
 287 79 307 73 330 73 c 0
 354 73 371 83 381 99 c 0
 397 124 398 162 398 197 c 2
 398 216 l 2xe8
 398 261 392 289 383 307 c 0
 364 345 333 337 320 339 c 2
 278 339 l 1
 278 411 l 1
 303 414 312 414 321 417 c 0
 351 426 383 470 383 547 c 0
 383 572 380 596 370 611 c 0
 362 622 351 628 333 628 c 0xf0
 311 628 294 621 279 610 c 0
 263 599 249 584 239 571 c 0
 229 559 224 548 221 543 c 1
 175 619 l 1
 198 652 228 680 265 698 c 0
 285 710 309 717 335 717 c 0
 389 717 430 698 457 670 c 0
 493 634 500 583 500 544 c 0xf0
 500 501 488 468 471 443 c 0
 449 409 420 389 403 378 c 1
 420 373 465 361 495 319 c 0
 514 293 527 256 527 203 c 0
 527 133 511 62 457 19 c 4
 426 -6 384 -22 334 -22 c 0
 306 -22 282 -16 257 -5 c 0
 222 9 191 30 162 58 c 1
31 563 m 5
 31 694 l 5
 145 694 l 5
 145 582 l 29
 145 582 144 568 143 563 c 4
 141 556 89 452 89 452 c 5
 31 452 l 5
 66 563 l 5
 31 563 l 5
EndSplineSet
EndChar
StartChar: uF50D2
Encoding: 1003730 1003730 254
Width: 1000
Flags: MW
LayerCount: 2
Fore
SplineSet
618 575 m 1
 618 648 l 1
 719 648 778 670 827 717 c 1
 857 717 l 1
 857 73 l 1
 960 73 l 1
 960 0 l 1
 631 0 l 1
 631 73 l 1
 737 73 l 1
 737 591 l 1
 700 579 660 575 618 575 c 1
151 152 m 1
 151 247 l 1
 151 247 l 1
 341 695 l 1
 470 695 l 1
 470 247 l 1
 548 247 l 1
 548 152 l 1
 470 152 l 1
 470 0 l 1
 363 0 l 1
 363 152 l 1
 151 152 l 1
243 247 m 1
 366 247 l 1
 366 592 l 1
 354 528 328 466 243 247 c 1
31 563 m 5
 31 694 l 5
 145 694 l 5
 145 582 l 29
 145 582 144 568 143 563 c 4
 141 556 89 452 89 452 c 5
 31 452 l 5
 66 563 l 5
 31 563 l 5
EndSplineSet
EndChar
StartChar: uF50D3
Encoding: 1003731 1003731 255
Width: 1000
Flags: MW
LayerCount: 2
Fore
SplineSet
597 574 m 1
 621 643 670 717 765 717 c 0
 878 717 950 603 950 487 c 0
 950 385 886 333 786 229 c 2
 687 106 l 1
 950 108 l 1
 950 0 l 1
 604 0 l 1
 604 100 l 1
 730 254 l 2
 761 297 831 378 831 485 c 0
 831 552 805 617 755 617 c 0
 699 617 673 551 657 486 c 1
 597 574 l 1
151 152 m 1
 151 247 l 1
 151 247 l 1
 341 695 l 1
 470 695 l 1
 470 247 l 1
 548 247 l 1
 548 152 l 1
 470 152 l 1
 470 0 l 1
 363 0 l 1
 363 152 l 1
 151 152 l 1
243 247 m 1
 366 247 l 1
 366 592 l 1
 354 528 328 466 243 247 c 1
31 563 m 5
 31 694 l 5
 145 694 l 5
 145 582 l 29
 145 582 144 568 143 563 c 4
 141 556 89 452 89 452 c 5
 31 452 l 5
 66 563 l 5
 31 563 l 5
EndSplineSet
EndChar
StartChar: uF50D5
Encoding: 1003733 1003733 257
Width: 1000
Flags: MW
LayerCount: 2
Fore
SplineSet
586 152 m 1
 586 247 l 1
 586 247 l 1
 776 695 l 1
 904 695 l 1
 904 247 l 1
 983 247 l 1
 983 152 l 1
 904 152 l 1
 904 0 l 1
 797 0 l 1
 797 152 l 1
 586 152 l 1
677 247 m 1
 801 247 l 1
 801 592 l 1
 789 528 762 466 677 247 c 1
151 152 m 1
 151 247 l 1
 151 247 l 1
 341 695 l 1
 470 695 l 1
 470 247 l 1
 548 247 l 1
 548 152 l 1
 470 152 l 1
 470 0 l 1
 363 0 l 1
 363 152 l 1
 151 152 l 1
243 247 m 1
 366 247 l 1
 366 592 l 1
 354 528 328 466 243 247 c 1
31 563 m 5
 31 694 l 5
 145 694 l 5
 145 582 l 29
 145 582 144 568 143 563 c 4
 141 556 89 452 89 452 c 5
 31 452 l 5
 66 563 l 5
 31 563 l 5
EndSplineSet
EndChar
StartChar: uF50D6
Encoding: 1003734 1003734 258
Width: 1000
Flags: MW
LayerCount: 2
Fore
SplineSet
590 82 m 1
 637 169 l 1
 642 159 646 150 652 140 c 0
 666 118 683 102 700 91 c 0
 717 78 738 72 755 72 c 0
 785 72 803 85 813 108 c 0
 825 135 827 175 827 220 c 2
 827 248 l 2
 827 288 825 329 815 354 c 0
 809 369 799 379 783 379 c 0
 733 379 715 296 714 296 c 2
 630 296 l 1
 630 695 l 1
 923 695 l 1
 923 594 l 1
 734 594 l 1
 734 435 l 1
 748 444 762 452 786 452 c 0
 826 452 868 438 899 406 c 4
 935 369 956 309 956 219 c 0
 956 134 935 78 902 41 c 0
 860 -6 804 -22 757 -22 c 0
 728 -22 705 -14 683 -2 c 0
 632 22 602 62 590 82 c 1
151 152 m 1
 151 247 l 1
 151 247 l 1
 341 695 l 1
 470 695 l 1
 470 247 l 1
 548 247 l 1
 548 152 l 1
 470 152 l 1
 470 0 l 1
 363 0 l 1
 363 152 l 1
 151 152 l 1
243 247 m 1
 366 247 l 1
 366 592 l 1
 354 528 328 466 243 247 c 1
31 563 m 5
 31 694 l 5
 145 694 l 5
 145 582 l 29
 145 582 144 568 143 563 c 4
 141 556 89 452 89 452 c 5
 31 452 l 5
 66 563 l 5
 31 563 l 5
EndSplineSet
EndChar
StartChar: uF50D7
Encoding: 1003735 1003735 259
Width: 1000
Flags: MW
LayerCount: 2
Fore
SplineSet
597 342 m 0
 597 501 625 566 649 608 c 0
 692 682 755 717 823 717 c 0
 851 717 872 712 903 696 c 1
 903 604 l 1
 876 619 855 628 825 628 c 0
 775 628 750 590 741 568 c 0
 729 539 719 489 719 391 c 1
 734 441 762 493 813 493 c 0
 879 493 909 455 928 424 c 0
 961 368 964 314 964 250 c 2
 964 244 l 2
 964 189 963 127 933 71 c 0
 882 -20 816 -22 783 -22 c 0
 730 -22 688 5 658 46 c 0
 599 127 597 262 597 342 c 0
720 253 m 0
 720 245 720 237 720 229 c 4
 721 148 728 72 784 72 c 0
 828 72 840 117 842 170 c 0
 843 193 842 217 843 240 c 2
 843 274 l 2
 842 313 843 351 835 378 c 0
 828 403 814 420 786 420 c 0
 741 420 724 356 721 288 c 0
 720 276 720 265 720 253 c 0
151 152 m 1
 151 247 l 1
 151 247 l 1
 341 695 l 1
 470 695 l 1
 470 247 l 1
 548 247 l 1
 548 152 l 1
 470 152 l 1
 470 0 l 1
 363 0 l 1
 363 152 l 1
 151 152 l 1
243 247 m 1
 366 247 l 1
 366 592 l 1
 354 528 328 466 243 247 c 1
31 563 m 5
 31 694 l 5
 145 694 l 5
 145 582 l 29
 145 582 144 568 143 563 c 4
 141 556 89 452 89 452 c 5
 31 452 l 5
 66 563 l 5
 31 563 l 5
EndSplineSet
EndChar
StartChar: uF50D8
Encoding: 1003736 1003736 260
Width: 1000
Flags: MW
LayerCount: 2
Fore
SplineSet
597 587 m 1
 597 695 l 1
 977 695 l 1
 977 594 l 1
 853 422 804 200 804 -11 c 1
 681 -11 l 1
 681 214 759 433 909 588 c 1
 597 587 l 1
151 152 m 1
 151 247 l 1
 151 247 l 1
 341 695 l 1
 470 695 l 1
 470 247 l 1
 548 247 l 1
 548 152 l 1
 470 152 l 1
 470 0 l 1
 363 0 l 1
 363 152 l 1
 151 152 l 1
243 247 m 1
 366 247 l 1
 366 592 l 1
 354 528 328 466 243 247 c 1
31 563 m 5
 31 694 l 5
 145 694 l 5
 145 582 l 29
 145 582 144 568 143 563 c 4
 141 556 89 452 89 452 c 5
 31 452 l 5
 66 563 l 5
 31 563 l 5
EndSplineSet
EndChar
StartChar: uF50DA
Encoding: 1003738 1003738 262
Width: 1000
Flags: MW
LayerCount: 2
Fore
SplineSet
590 443 m 0
 590 513 591 573 628 632 c 0
 659 682 699 717 784 717 c 0
 839 717 876 695 905 662 c 0
 972 585 975 444 975 359 c 0
 975 255 967 124 896 45 c 0
 856 -3 798 -22 743 -22 c 0
 694 -22 659 -5 620 26 c 1
 662 110 l 1
 688 87 706 73 743 73 c 0
 783 73 817 96 834 131 c 0
 846 159 856 213 856 296 c 2
 856 305 l 1
 843 264 811 202 743 202 c 0
 675 202 644 241 626 273 c 0
 594 328 590 381 590 443 c 0
709 450 m 2
 711 335 714 318 727 298 c 0
 739 281 758 275 776 275 c 0
 796 275 821 284 838 324 c 0
 849 350 856 389 856 448 c 0
 856 525 855 628 783 628 c 0
 764 628 748 623 738 614 c 0
 705 586 712 522 709 482 c 2
 709 450 l 2
151 152 m 1
 151 247 l 1
 151 247 l 1
 341 695 l 1
 470 695 l 1
 470 247 l 1
 548 247 l 1
 548 152 l 1
 470 152 l 1
 470 0 l 1
 363 0 l 1
 363 152 l 1
 151 152 l 1
243 247 m 1
 366 247 l 1
 366 592 l 1
 354 528 328 466 243 247 c 1
31 563 m 5
 31 694 l 5
 145 694 l 5
 145 582 l 29
 145 582 144 568 143 563 c 4
 141 556 89 452 89 452 c 5
 31 452 l 5
 66 563 l 5
 31 563 l 5
EndSplineSet
EndChar
StartChar: uF50DB
Encoding: 1003739 1003739 263
Width: 1000
Flags: MW
LayerCount: 2
Fore
SplineSet
595 344 m 0
 595 356 595 368 595 380 c 0
 597 509 611 664 722 706 c 0
 738 713 756 717 777 717 c 0
 817 717 860 700 897 654 c 0
 959 576 959 431 959 362 c 2
 959 352 l 2
 959 213 957 32 830 -12 c 4
 814 -18 797 -22 776 -22 c 0
 603 -22 595 180 595 344 c 0
710 352 m 0
 710 155 714 91 751 60 c 0
 758 55 767 50 777 50 c 0
 781 50 799 51 815 76 c 0
 844 120 841 200 843 357 c 0
 843 368 843 380 843 393 c 0
 843 468 840 559 828 595 c 0
 818 623 800 644 777 644 c 0
 712 644 710 516 710 396 c 0
 710 381 710 366 710 352 c 0
156 82 m 1
 202 169 l 1
 207 159 211 150 217 140 c 0
 231 118 248 102 265 91 c 0
 282 78 303 72 320 72 c 0
 350 72 368 85 378 108 c 0
 390 135 392 175 392 220 c 2
 392 248 l 2
 392 288 390 329 380 354 c 0
 374 369 364 379 348 379 c 0
 298 379 280 296 279 296 c 2
 196 296 l 1
 196 695 l 1
 489 695 l 1
 489 594 l 1
 299 594 l 1
 299 435 l 1
 313 444 327 452 351 452 c 0
 391 452 433 438 464 406 c 4
 500 369 521 309 521 219 c 0
 521 134 500 78 467 41 c 0
 425 -6 370 -22 323 -22 c 0
 294 -22 270 -14 248 -2 c 0
 197 22 168 62 156 82 c 1
31 563 m 5
 31 694 l 5
 145 694 l 5
 145 582 l 29
 145 582 144 568 143 563 c 4
 141 556 89 452 89 452 c 5
 31 452 l 5
 66 563 l 5
 31 563 l 5
EndSplineSet
EndChar
StartChar: uF50DC
Encoding: 1003740 1003740 264
Width: 1000
Flags: MW
LayerCount: 2
Fore
SplineSet
618 575 m 1
 618 648 l 1
 719 648 778 670 827 717 c 1
 857 717 l 1
 857 73 l 1
 960 73 l 1
 960 0 l 1
 631 0 l 1
 631 73 l 1
 737 73 l 1
 737 591 l 1
 700 579 660 575 618 575 c 1
156 82 m 1
 202 169 l 1
 207 159 211 150 217 140 c 0
 231 118 248 102 265 91 c 0
 282 78 303 72 320 72 c 0
 350 72 368 85 378 108 c 0
 390 135 392 175 392 220 c 2
 392 248 l 2
 392 288 390 329 380 354 c 0
 374 369 364 379 348 379 c 0
 298 379 280 296 279 296 c 2
 196 296 l 1
 196 695 l 1
 489 695 l 1
 489 594 l 1
 299 594 l 1
 299 435 l 1
 313 444 327 452 351 452 c 0
 391 452 433 438 464 406 c 4
 500 369 521 309 521 219 c 0
 521 134 500 78 467 41 c 0
 425 -6 370 -22 323 -22 c 0
 294 -22 270 -14 248 -2 c 0
 197 22 168 62 156 82 c 1
31 563 m 5
 31 694 l 5
 145 694 l 5
 145 582 l 29
 145 582 144 568 143 563 c 4
 141 556 89 452 89 452 c 5
 31 452 l 5
 66 563 l 5
 31 563 l 5
EndSplineSet
EndChar
StartChar: uF50DD
Encoding: 1003741 1003741 265
Width: 1000
Flags: MW
LayerCount: 2
Fore
SplineSet
597 574 m 1
 621 643 670 717 765 717 c 0
 878 717 950 603 950 487 c 0
 950 385 886 333 786 229 c 2
 687 106 l 1
 950 108 l 1
 950 0 l 1
 604 0 l 1
 604 100 l 1
 730 254 l 2
 761 297 831 378 831 485 c 0
 831 552 805 617 755 617 c 0
 699 617 673 551 657 486 c 1
 597 574 l 1
156 82 m 1
 202 169 l 1
 207 159 211 150 217 140 c 0
 231 118 248 102 265 91 c 0
 282 78 303 72 320 72 c 0
 350 72 368 85 378 108 c 0
 390 135 392 175 392 220 c 2
 392 248 l 2
 392 288 390 329 380 354 c 0
 374 369 364 379 348 379 c 0
 298 379 280 296 279 296 c 2
 196 296 l 1
 196 695 l 1
 489 695 l 1
 489 594 l 1
 299 594 l 1
 299 435 l 1
 313 444 327 452 351 452 c 0
 391 452 433 438 464 406 c 4
 500 369 521 309 521 219 c 0
 521 134 500 78 467 41 c 0
 425 -6 370 -22 323 -22 c 0
 294 -22 270 -14 248 -2 c 0
 197 22 168 62 156 82 c 1
31 563 m 5
 31 694 l 5
 145 694 l 5
 145 582 l 29
 145 582 144 568 143 563 c 4
 141 556 89 452 89 452 c 5
 31 452 l 5
 66 563 l 5
 31 563 l 5
EndSplineSet
EndChar
StartChar: uF50DE
Encoding: 1003742 1003742 266
Width: 1000
Flags: MW
LayerCount: 2
Fore
SplineSet
597 58 m 1
 611 151 l 1
 639 124 669 102 703 88 c 0
 722 79 742 73 765 73 c 0
 789 73 806 83 816 99 c 0
 832 124 833 162 833 197 c 2
 833 216 l 2xe8
 833 261 826 289 817 307 c 0
 798 345 768 337 755 339 c 2
 713 339 l 1
 713 411 l 1
 738 414 747 414 756 417 c 0
 786 426 817 470 817 547 c 0
 817 572 814 596 804 611 c 0
 796 622 786 628 768 628 c 0xf0
 746 628 729 621 714 610 c 0
 698 599 684 584 674 571 c 0
 664 559 659 548 656 543 c 1
 610 619 l 1
 633 652 663 680 700 698 c 0
 720 710 744 717 770 717 c 0
 824 717 864 698 891 670 c 0
 927 634 935 583 935 544 c 0xf0
 935 501 923 468 906 443 c 0
 884 409 855 389 838 378 c 1
 855 373 900 361 930 319 c 0
 949 293 962 256 962 203 c 0
 962 133 945 62 891 19 c 4
 860 -6 819 -22 769 -22 c 0
 741 -22 716 -16 691 -5 c 0
 656 9 626 30 597 58 c 1
156 82 m 1
 202 169 l 1
 207 159 211 150 217 140 c 0
 231 118 248 102 265 91 c 0
 282 78 303 72 320 72 c 0
 350 72 368 85 378 108 c 0
 390 135 392 175 392 220 c 2
 392 248 l 2
 392 288 390 329 380 354 c 0
 374 369 364 379 348 379 c 0
 298 379 280 296 279 296 c 2
 196 296 l 1
 196 695 l 1
 489 695 l 1
 489 594 l 1
 299 594 l 1
 299 435 l 1
 313 444 327 452 351 452 c 0
 391 452 433 438 464 406 c 4
 500 369 521 309 521 219 c 0
 521 134 500 78 467 41 c 0
 425 -6 370 -22 323 -22 c 0
 294 -22 270 -14 248 -2 c 0
 197 22 168 62 156 82 c 1
31 563 m 5
 31 694 l 5
 145 694 l 5
 145 582 l 29
 145 582 144 568 143 563 c 4
 141 556 89 452 89 452 c 5
 31 452 l 5
 66 563 l 5
 31 563 l 5
EndSplineSet
EndChar
StartChar: uF50E0
Encoding: 1003744 1003744 268
Width: 1000
Flags: MW
LayerCount: 2
Fore
SplineSet
590 82 m 1
 637 169 l 1
 642 159 646 150 652 140 c 0
 666 118 683 102 700 91 c 0
 717 78 738 72 755 72 c 0
 785 72 803 85 813 108 c 0
 825 135 827 175 827 220 c 2
 827 248 l 2
 827 288 825 329 815 354 c 0
 809 369 799 379 783 379 c 0
 733 379 715 296 714 296 c 2
 630 296 l 1
 630 695 l 1
 923 695 l 1
 923 594 l 1
 734 594 l 1
 734 435 l 1
 748 444 762 452 786 452 c 0
 826 452 868 438 899 406 c 4
 935 369 956 309 956 219 c 0
 956 134 935 78 902 41 c 0
 860 -6 804 -22 757 -22 c 0
 728 -22 705 -14 683 -2 c 0
 632 22 602 62 590 82 c 1
156 82 m 1
 202 169 l 1
 207 159 211 150 217 140 c 0
 231 118 248 102 265 91 c 0
 282 78 303 72 320 72 c 0
 350 72 368 85 378 108 c 0
 390 135 392 175 392 220 c 2
 392 248 l 2
 392 288 390 329 380 354 c 0
 374 369 364 379 348 379 c 0
 298 379 280 296 279 296 c 2
 196 296 l 1
 196 695 l 1
 489 695 l 1
 489 594 l 1
 299 594 l 1
 299 435 l 1
 313 444 327 452 351 452 c 0
 391 452 433 438 464 406 c 4
 500 369 521 309 521 219 c 0
 521 134 500 78 467 41 c 0
 425 -6 370 -22 323 -22 c 0
 294 -22 270 -14 248 -2 c 0
 197 22 168 62 156 82 c 1
31 563 m 5
 31 694 l 5
 145 694 l 5
 145 582 l 29
 145 582 144 568 143 563 c 4
 141 556 89 452 89 452 c 5
 31 452 l 5
 66 563 l 5
 31 563 l 5
EndSplineSet
EndChar
StartChar: uF50E1
Encoding: 1003745 1003745 269
Width: 1000
Flags: MW
LayerCount: 2
Fore
SplineSet
597 342 m 0
 597 501 625 566 649 608 c 0
 692 682 755 717 823 717 c 0
 851 717 872 712 903 696 c 1
 903 604 l 1
 876 619 855 628 825 628 c 0
 775 628 750 590 741 568 c 0
 729 539 719 489 719 391 c 1
 734 441 762 493 813 493 c 0
 879 493 909 455 928 424 c 0
 961 368 964 314 964 250 c 2
 964 244 l 2
 964 189 963 127 933 71 c 0
 882 -20 816 -22 783 -22 c 0
 730 -22 688 5 658 46 c 0
 599 127 597 262 597 342 c 0
720 253 m 0
 720 245 720 237 720 229 c 4
 721 148 728 72 784 72 c 0
 828 72 840 117 842 170 c 0
 843 193 842 217 843 240 c 2
 843 274 l 2
 842 313 843 351 835 378 c 0
 828 403 814 420 786 420 c 0
 741 420 724 356 721 288 c 0
 720 276 720 265 720 253 c 0
156 82 m 1
 202 169 l 1
 207 159 211 150 217 140 c 0
 231 118 248 102 265 91 c 0
 282 78 303 72 320 72 c 0
 350 72 368 85 378 108 c 0
 390 135 392 175 392 220 c 2
 392 248 l 2
 392 288 390 329 380 354 c 0
 374 369 364 379 348 379 c 0
 298 379 280 296 279 296 c 2
 196 296 l 1
 196 695 l 1
 489 695 l 1
 489 594 l 1
 299 594 l 1
 299 435 l 1
 313 444 327 452 351 452 c 0
 391 452 433 438 464 406 c 4
 500 369 521 309 521 219 c 0
 521 134 500 78 467 41 c 0
 425 -6 370 -22 323 -22 c 0
 294 -22 270 -14 248 -2 c 0
 197 22 168 62 156 82 c 1
31 563 m 5
 31 694 l 5
 145 694 l 5
 145 582 l 29
 145 582 144 568 143 563 c 4
 141 556 89 452 89 452 c 5
 31 452 l 5
 66 563 l 5
 31 563 l 5
EndSplineSet
EndChar
StartChar: uF50E2
Encoding: 1003746 1003746 270
Width: 1000
Flags: MW
LayerCount: 2
Fore
SplineSet
597 587 m 1
 597 695 l 1
 977 695 l 1
 977 594 l 1
 853 422 804 200 804 -11 c 1
 681 -11 l 1
 681 214 759 433 909 588 c 1
 597 587 l 1
156 82 m 1
 202 169 l 1
 207 159 211 150 217 140 c 0
 231 118 248 102 265 91 c 0
 282 78 303 72 320 72 c 0
 350 72 368 85 378 108 c 0
 390 135 392 175 392 220 c 2
 392 248 l 2
 392 288 390 329 380 354 c 0
 374 369 364 379 348 379 c 0
 298 379 280 296 279 296 c 2
 196 296 l 1
 196 695 l 1
 489 695 l 1
 489 594 l 1
 299 594 l 1
 299 435 l 1
 313 444 327 452 351 452 c 0
 391 452 433 438 464 406 c 4
 500 369 521 309 521 219 c 0
 521 134 500 78 467 41 c 0
 425 -6 370 -22 323 -22 c 0
 294 -22 270 -14 248 -2 c 0
 197 22 168 62 156 82 c 1
31 563 m 5
 31 694 l 5
 145 694 l 5
 145 582 l 29
 145 582 144 568 143 563 c 4
 141 556 89 452 89 452 c 5
 31 452 l 5
 66 563 l 5
 31 563 l 5
EndSplineSet
EndChar
StartChar: uF50E3
Encoding: 1003747 1003747 271
Width: 1000
Flags: MW
LayerCount: 2
Fore
SplineSet
597 201 m 0xf2
 597 287 628 351 704 375 c 1
 685 384 610 406 610 523 c 0
 610 620 647 717 780 717 c 2
 781 717 l 2
 914 717 950 620 950 522 c 0xec
 950 394 857 379 856 375 c 1
 932 351 963 287 963 201 c 0
 963 89 923 -22 780 -22 c 0
 637 -22 597 90 597 201 c 0xf2
718 190 m 2
 719 152 719 116 734 94 c 0
 743 81 756 73 779 73 c 0
 798 73 813 80 822 90 c 4
 845 116 842 166 843 198 c 2
 843 219 l 2xf2
 842 260 839 295 826 316 c 0
 817 331 803 339 780 339 c 0
 757 339 744 330 735 316 c 0
 716 287 719 239 718 213 c 2
 718 190 l 2
720 511 m 2xec
 720 475 724 449 734 432 c 0
 743 418 757 411 779 411 c 0
 802 411 816 419 825 432 c 0
 838 452 840 482 840 512 c 2
 840 530 l 2
 840 562 838 586 830 602 c 0
 821 620 806 628 781 628 c 0
 758 628 745 621 736 610 c 0
 720 590 721 557 720 529 c 2
 720 511 l 2xec
156 82 m 1
 202 169 l 1
 207 159 211 150 217 140 c 0
 231 118 248 102 265 91 c 0
 282 78 303 72 320 72 c 0
 350 72 368 85 378 108 c 0
 390 135 392 175 392 220 c 2
 392 248 l 2
 392 288 390 329 380 354 c 0
 374 369 364 379 348 379 c 0
 298 379 280 296 279 296 c 2
 196 296 l 1
 196 695 l 1
 489 695 l 1
 489 594 l 1
 299 594 l 1
 299 435 l 1
 313 444 327 452 351 452 c 0
 391 452 433 438 464 406 c 4
 500 369 521 309 521 219 c 0
 521 134 500 78 467 41 c 0
 425 -6 370 -22 323 -22 c 0
 294 -22 270 -14 248 -2 c 0
 197 22 168 62 156 82 c 1
31 563 m 5
 31 694 l 5
 145 694 l 5
 145 582 l 29
 145 582 144 568 143 563 c 4
 141 556 89 452 89 452 c 5
 31 452 l 5
 66 563 l 5
 31 563 l 5
EndSplineSet
EndChar
